<?xml version="1.0" encoding="UTF-8"?>
<svg version="1.1" xmlns="http://www.w3.org/2000/svg" width="173" height="70">
<path d="M0 0 C3.3 0 6.6 0 10 0 C12.40179579 2.49735795 13.59733126 4.04726714 15.125 7 C15.50914063 7.66773438 15.89328125 8.33546875 16.2890625 9.0234375 C17.22627578 10.66356073 18.11791625 12.32958053 19 14 C19.53367188 12.989375 20.06734375 11.97875 20.6171875 10.9375 C21.36782936 9.62387674 22.12054423 8.31143653 22.875 7 C23.22046875 6.33226562 23.5659375 5.66453125 23.921875 4.9765625 C25.0546875 3.0625 25.0546875 3.0625 28 0 C31.3 0 34.6 0 38 0 C38 12.54 38 25.08 38 38 C35.03 38 32.06 38 29 38 C28.505 28.1 28.505 28.1 28 18 C25.44959359 21.94428926 25.44959359 21.94428926 22.91455078 25.8984375 C21.99417448 27.30056241 20.99861169 28.65247579 20 30 C19.34 30 18.68 30 18 30 C16.53299085 28.02042138 15.19621241 26.07215564 13.875 24 C12.59625 22.02 11.3175 20.04 10 18 C9.67 24.6 9.34 31.2 9 38 C6.03 38 3.06 38 0 38 C0 25.46 0 12.92 0 0 Z " fill="#183059" transform="translate(111,17)"/>
<path d="M0 0 C3.34125 -0.061875 6.6825 -0.12375 10.125 -0.1875 C11.68758545 -0.22846802 11.68758545 -0.22846802 13.28173828 -0.27026367 C18.61315151 -0.31794798 22.4244937 -0.06240374 27 3 C30.05055526 6.37166634 31.27403455 9.02588404 31.5 13.5 C31.26581613 17.98726507 30.11061244 20.65010968 27 24 C21.29321195 27.42407283 16.57929314 27.27038191 10 27 C10 30.63 10 34.26 10 38 C6.7 38 3.4 38 0 38 C0 25.46 0 12.92 0 0 Z M10 8 C10 11.63 10 15.26 10 19 C15.88551294 19.40910928 15.88551294 19.40910928 21 17 C21.99843776 14.59117313 21.99843776 14.59117313 22 12 C20.27773504 8.75150023 20.27773504 8.75150023 17 8 C14.66700175 7.96045766 12.33291811 7.95598268 10 8 Z " fill="#173259" transform="translate(75,17)"/>
<path d="M0 0 C5.94 0 11.88 0 18 0 C18 1.98 18 3.96 18 6 C16.68 6 15.36 6 14 6 C14 16.56 14 27.12 14 38 C11.03 38 8.06 38 5 38 C5 27.44 5 16.88 5 6 C3.35 6 1.7 6 0 6 C0 4.02 0 2.04 0 0 Z " fill="#183059" transform="translate(153,17)"/>
<path d="M0 0 C0.83837891 2.11181641 0.83837891 2.11181641 1 5 C-0.7322965 7.3453282 -2.3514266 9.19318115 -4.4140625 11.2109375 C-4.98071625 11.7833316 -5.54737 12.35572571 -6.13119507 12.94546509 C-7.33285904 14.15121067 -8.54212827 15.3494173 -9.75830078 16.54052734 C-11.61853587 18.36864747 -13.44462114 20.2265352 -15.26953125 22.08984375 C-16.44078936 23.25713699 -17.61390736 24.42256762 -18.7890625 25.5859375 C-19.33511139 26.14413177 -19.88116028 26.70232605 -20.4437561 27.2774353 C-22.02978516 28.80615234 -22.02978516 28.80615234 -25 31 C-27.88818359 30.83837891 -27.88818359 30.83837891 -30 30 C-30.68041992 27.73461914 -30.68041992 27.73461914 -31 25 C-29.8762207 23.07592773 -29.8762207 23.07592773 -28.11328125 21.24609375 C-27.46439941 20.56015137 -26.81551758 19.87420898 -26.14697266 19.16748047 C-25.43847168 18.45221191 -24.7299707 17.73694336 -24 17 C-23.29278809 16.26797363 -22.58557617 15.53594727 -21.85693359 14.78173828 C-19.65404183 12.52086275 -17.42536913 10.28872367 -15.1875 8.0625 C-14.42501953 7.29615234 -13.66253906 6.52980469 -12.87695312 5.74023438 C-12.14798828 5.01255859 -11.41902344 4.28488281 -10.66796875 3.53515625 C-10.01078857 2.879104 -9.3536084 2.22305176 -8.67651367 1.54711914 C-5.55923686 -1.329564 -3.98896684 -0.9447553 0 0 Z " fill="#19315A" transform="translate(70,24)"/>
<path d="M0 0 C0.51186634 4.08009956 0.27697543 5.62327038 -2.19970703 8.99194336 C-3.20240016 10.04077628 -4.22300085 11.07268652 -5.2578125 12.08984375 C-5.79848358 12.63862686 -6.33915466 13.18740997 -6.89620972 13.75282288 C-8.0405259 14.90558386 -9.19252049 16.05076682 -10.3515625 17.1887207 C-12.12147664 18.93402563 -13.8539643 20.71127043 -15.5859375 22.49414062 C-16.70363803 23.61147075 -17.8233653 24.72677791 -18.9453125 25.83984375 C-19.71912766 26.63961891 -19.71912766 26.63961891 -20.50857544 27.45555115 C-22.02392578 28.91381836 -22.02392578 28.91381836 -25 31 C-28.37841797 30.82250977 -28.37841797 30.82250977 -31 30 C-31.49472361 25.96945761 -31.32169438 24.42495922 -28.82861328 21.1315918 C-27.84131359 20.13851358 -26.83741598 19.16174955 -25.8203125 18.19921875 C-25.29235077 17.67737503 -24.76438904 17.15553131 -24.22042847 16.61787415 C-22.53553008 14.95985069 -20.83066662 13.32412201 -19.125 11.6875 C-17.98436374 10.56839434 -16.84502493 9.44796461 -15.70703125 8.32617188 C-5.80589514 -1.37508043 -5.80589514 -1.37508043 0 0 Z " fill="#19315A" transform="translate(31,16)"/>
<path d="M0 0 C3.92218517 0.7399626 6.00485869 3.0593548 8.7043457 5.8112793 C9.25217209 6.35432205 9.79999847 6.89736481 10.36442566 7.4568634 C11.51766184 8.60670181 12.66462644 9.76286011 13.80566406 10.92480469 C15.55389684 12.69980233 17.32717874 14.44656482 19.10473633 16.19213867 C20.22287945 17.31358591 21.33947051 18.43658323 22.4543457 19.5612793 C22.98550491 20.08231735 23.51666412 20.60335541 24.06391907 21.1401825 C26.3687899 23.52004939 27.67428778 24.99660725 28.140625 28.328125 C27.74731445 30.51831055 27.74731445 30.51831055 26.74731445 31.51831055 C22.72405681 32.08729282 21.17983283 31.8409415 17.87890625 29.37866211 C16.88563675 28.40461962 15.90887833 27.41354239 14.9465332 26.40893555 C14.42468948 25.88571716 13.90284576 25.36249878 13.3651886 24.82342529 C12.26819297 23.71738993 11.17847461 22.60409494 10.09570312 21.48413086 C8.43855705 19.77217693 6.75860486 18.08550411 5.07348633 16.40112305 C4.00890878 15.32179904 2.94570905 14.24111393 1.8840332 13.15893555 C1.38304611 12.65460999 0.88205902 12.15028442 0.3658905 11.63067627 C-4.15252455 6.92469096 -4.15252455 6.92469096 -4.25268555 3.51831055 C-2.25268555 0.51831055 -2.25268555 0.51831055 0 0 Z " fill="#19305A" transform="translate(19.252685546875,38.481689453125)"/>
<path d="M0 0 C4.09008463 -0.51654997 5.62278502 -0.279333 8.99194336 2.21557617 C10.04068083 3.22490375 11.07259368 4.25191412 12.08984375 5.29296875 C12.63862686 5.83601151 13.18740997 6.37905426 13.75282288 6.93855286 C14.90550981 8.08716681 16.05069407 9.24335332 17.1887207 10.40649414 C18.93553494 12.18549873 20.712132 13.93015812 22.49414062 15.67382812 C23.61130441 16.79495572 24.72660608 17.91794258 25.83984375 19.04296875 C26.63961891 19.82452583 26.63961891 19.82452583 27.45555115 20.62187195 C28.91381836 22.13745117 28.91381836 22.13745117 31 25 C30.82250977 27.87231445 30.82250977 27.87231445 30 30 C27.73461914 30.68115234 27.73461914 30.68115234 25 31 C23.07592773 29.86962891 23.07592773 29.86962891 21.24609375 28.1015625 C20.56015137 27.45219727 19.87420898 26.80283203 19.16748047 26.13378906 C18.45221191 25.42963867 17.73694336 24.72548828 17 24 C16.26797363 23.30874023 15.53594727 22.61748047 14.78173828 21.90527344 C12.5151696 19.75447169 10.28640556 17.56982223 8.0625 15.375 C7.29615234 14.63765625 6.52980469 13.9003125 5.74023438 13.140625 C5.01255859 12.42132813 4.28488281 11.70203125 3.53515625 10.9609375 C2.879104 10.31946777 2.22305176 9.67799805 1.54711914 9.01708984 C-0.27185824 6.64555897 -0.73054287 4.95825655 -1 2 C-0.67 1.34 -0.34 0.68 0 0 Z " fill="#19305A" transform="translate(24,0)"/>
<path d="M0 0 C0.66 0.66 1.32 1.32 2 2 C1.72593928 6.10038623 0.40504315 8.09934229 -2.45703125 10.953125 C-3.15763672 11.654375 -3.85824219 12.355625 -4.58007812 13.078125 C-5.68512695 14.15320313 -5.68512695 14.15320313 -6.8125 15.25 C-7.53759766 15.9821875 -8.26269531 16.714375 -9.00976562 17.46875 C-15.31054553 23.69458924 -15.31054553 23.69458924 -19 24 C-19.99 23.34 -20.98 22.68 -22 22 C-22.54151713 18.87213239 -22.34219559 17.49166292 -20.51879883 14.87182617 C-19.49822388 13.84279175 -19.49822388 13.84279175 -18.45703125 12.79296875 C-17.71259766 12.04208984 -16.96816406 11.29121094 -16.20117188 10.51757812 C-15.41291016 9.74865234 -14.62464844 8.97972656 -13.8125 8.1875 C-13.04357422 7.39923828 -12.27464844 6.61097656 -11.48242188 5.79882812 C-10.73154297 5.05439453 -9.98066406 4.30996094 -9.20703125 3.54296875 C-8.5210083 2.86258545 -7.83498535 2.18220215 -7.12817383 1.48120117 C-4.51717715 -0.33604293 -3.11913482 -0.45747311 0 0 Z " fill="#19315A" transform="translate(69,39)"/>
<path d="M0 0 C0.671875 1.77734375 0.671875 1.77734375 1 4 C-0.046875 5.75390625 -0.046875 5.75390625 -1.75 7.5625 C-2.39195313 8.24441406 -3.03390625 8.92632812 -3.6953125 9.62890625 C-4.45585937 10.41136719 -5.21640625 11.19382812 -6 12 C-6.9148948 12.98751081 -7.82891375 13.97583356 -8.7421875 14.96484375 C-9.70160037 15.97800842 -10.66253314 16.98973605 -11.625 18 C-12.52476563 18.94875 -13.42453125 19.8975 -14.3515625 20.875 C-17 23 -17 23 -19.7734375 23.375 C-22 23 -22 23 -23 22 C-23.5546875 19.45703125 -23.5546875 19.45703125 -23 16 C-20.69108884 12.90127881 -17.93608523 10.32799801 -15.125 7.6875 C-14.00544922 6.59598633 -14.00544922 6.59598633 -12.86328125 5.48242188 C-5.77651239 -1.36812136 -5.77651239 -1.36812136 0 0 Z " fill="#173258" transform="translate(23,8)"/>
<path d="M0 0 C3.38110306 -0.27164987 5.36488331 -0.4122386 8.25756836 1.46533203 C10.50346035 3.66830218 12.73987318 5.87368221 14.9375 8.125 C15.72962891 8.88554687 16.52175781 9.64609375 17.33789062 10.4296875 C22.99903869 16.12520506 22.99903869 16.12520506 23.00390625 20.5546875 C22.67261719 21.36164062 22.34132813 22.16859375 22 23 C18.61889694 23.27164987 16.63511669 23.4122386 13.74243164 21.53466797 C11.49653965 19.33169782 9.26012682 17.12631779 7.0625 14.875 C6.27037109 14.11445313 5.47824219 13.35390625 4.66210938 12.5703125 C-0.99903869 6.87479494 -0.99903869 6.87479494 -1.00390625 2.4453125 C-0.67261719 1.63835937 -0.34132812 0.83140625 0 0 Z " fill="#19315A" transform="translate(40,0)"/>
<path d="M0 0 C3.44260845 0.36197031 4.47105477 1.41051762 6.9074707 3.8269043 C8.03378906 4.94355469 8.03378906 4.94355469 9.18286133 6.08276367 C9.95178711 6.87102539 10.72071289 7.65928711 11.51293945 8.47143555 C12.30120117 9.24036133 13.08946289 10.00928711 13.90161133 10.80151367 C15.01826172 11.92783203 15.01826172 11.92783203 16.1574707 13.0769043 C16.837854 13.76292725 17.5182373 14.4489502 18.21923828 15.15576172 C20.02122168 17.74483199 20.08221567 19.19197493 19.70043945 22.28393555 C18.70043945 23.28393555 18.70043945 23.28393555 16.16137695 23.82299805 C10.74692916 22.97966419 8.03845699 19.4928108 4.32543945 15.65893555 C3.58938477 14.94608398 2.85333008 14.23323242 2.0949707 13.4987793 C-3.15900964 8.18631308 -3.15900964 8.18631308 -3.83862305 3.82299805 C-3.10845764 0.38381317 -3.10845764 0.38381317 0 0 Z " fill="#19315A" transform="translate(11.299560546875,46.716064453125)"/>
<path d="M0 0 C2.5 0.125 2.5 0.125 3.5 1.125 C3.625 4.125 3.625 4.125 3.5 7.125 C2.5 8.125 2.5 8.125 0.0625 8.3125 C-2.5 8.125 -2.5 8.125 -4.5 6.125 C-3.77607362 0.18880368 -3.77607362 0.18880368 0 0 Z " fill="#19315A" transform="translate(27.5,30.875)"/>
<path d="M0 0 C2.4375 0.1875 2.4375 0.1875 3.4375 1.1875 C3.625 3.625 3.625 3.625 3.4375 6.1875 C2.7775 6.8475 2.1175 7.5075 1.4375 8.1875 C-1.1875 7.8125 -1.1875 7.8125 -3.5625 7.1875 C-4.1875 4.8125 -4.1875 4.8125 -4.5625 2.1875 C-2.5625 0.1875 -2.5625 0.1875 0 0 Z " fill="#19315A" transform="translate(35.5625,38.8125)"/>
<path d="M0 0 C2.00720923 0.28674418 4.0085944 0.61866701 6 1 C6 2.98 6 4.96 6 7 C3.125 7.625 3.125 7.625 0 8 C-0.66 7.34 -1.32 6.68 -2 6 C-1.44444444 1.44444444 -1.44444444 1.44444444 0 0 Z " fill="#19315A" transform="translate(41,31)"/>
<path d="M0 0 C4.70588235 0.70588235 4.70588235 0.70588235 6 2 C6.125 4.5 6.125 4.5 6 7 C5 8 5 8 2.5625 8.1875 C0 8 0 8 -2 6 C-1.44444444 1.44444444 -1.44444444 1.44444444 0 0 Z " fill="#19315A" transform="translate(33,23)"/>
</svg>
