<svg width="173" height="70" viewBox="0 0 173 70" fill="none" xmlns="http://www.w3.org/2000/svg">
<path d="M81.9901 7.46265H97.2312C106.13 7.46265 111.496 12.7236 111.496 20.3179V20.4199C111.496 29.0241 104.784 33.4866 96.4156 33.4866H90.1977V44.6429H81.9901V7.46265ZM96.6972 26.2132C100.801 26.2132 103.197 23.7705 103.197 20.584V20.4783C103.197 16.8324 100.636 14.8491 96.5363 14.8491H90.1977V26.2132H96.6972Z" fill="#19315A"/>
<path d="M117.582 7.46265H126.43L136.232 23.1871L146.038 7.46265H154.886V44.6465H146.729V20.3725L136.232 36.2538H136.02L125.629 20.5293V44.6465H117.582V7.46265Z" fill="#19315A"/>
<path d="M172.413 7.46265H164.205V44.6429H172.413V7.46265Z" fill="#19315A"/>
<path d="M37.7882 29.6768C37.2862 30.1767 36.6469 30.517 35.951 30.6547C35.255 30.7924 34.5338 30.7214 33.8783 30.4506C33.2229 30.1798 32.6627 29.7214 32.2686 29.1333C31.8745 28.5452 31.6641 27.8539 31.6641 27.1466C31.6641 26.4394 31.8745 25.748 32.2686 25.16C32.6627 24.5719 33.2229 24.1134 33.8783 23.8426C34.5338 23.5718 35.255 23.5008 35.951 23.6385C36.6469 23.7763 37.2862 24.1166 37.7882 24.6164C38.4574 25.2896 38.8328 26.1989 38.8328 27.1466C38.8328 28.0943 38.4574 29.0037 37.7882 29.6768Z" fill="#2B72B8"/>
<path d="M53.5523 29.6768C52.877 30.3439 51.9647 30.7181 51.014 30.7181C50.0633 30.7181 49.151 30.3439 48.4756 29.6768L24.8294 6.10651C24.496 5.77424 24.2316 5.37977 24.0512 4.94564C23.8708 4.51151 23.7779 4.04621 23.7779 3.5763C23.7779 2.62729 24.1561 1.71715 24.8294 1.04609C25.5026 0.375041 26.4157 -0.00195312 27.3677 -0.00195312C28.3198 -0.00195312 29.2329 0.375041 29.9061 1.04609L53.5523 24.6164C54.2215 25.2896 54.597 26.1989 54.597 27.1466C54.597 28.0943 54.2215 29.0036 53.5523 29.6768Z" fill="#2B72B8"/>
<path d="M29.9061 32.4731C30.4075 32.9735 30.7489 33.6107 30.8871 34.3044C31.0253 34.9981 30.954 35.7171 30.6824 36.3704C30.4107 37.0238 29.9508 37.5821 29.3608 37.975C28.7708 38.3678 28.0772 38.5775 27.3677 38.5775C26.6582 38.5775 25.9646 38.3678 25.3746 37.975C24.7847 37.5821 24.3248 37.0238 24.0531 36.3704C23.7814 35.7171 23.7102 34.9981 23.8483 34.3044C23.9865 33.6107 24.3279 32.9735 24.8294 32.4731C25.5047 31.8061 26.417 31.4319 27.3677 31.4319C28.3185 31.4319 29.2307 31.8061 29.9061 32.4731Z" fill="#44B4E3"/>
<path d="M29.9061 16.7742C30.5753 17.4473 30.9507 18.3567 30.9507 19.3044C30.9507 20.2521 30.5753 21.1614 29.9061 21.8346L6.25981 45.3903C5.5866 46.0614 4.67352 46.4384 3.72145 46.4384C2.76938 46.4384 1.85631 46.0614 1.18309 45.3903C0.509877 44.7193 0.131668 43.8091 0.131668 42.8601C0.131668 41.9111 0.509877 41.0009 1.18309 40.3299L24.8294 16.7742C25.5047 16.1071 26.417 15.7329 27.3677 15.7329C28.3184 15.7329 29.2307 16.1071 29.9061 16.7742Z" fill="#44B4E3"/>
<path d="M32.7114 40.33C33.3847 39.659 34.2977 39.282 35.2498 39.282C36.2019 39.282 37.115 39.659 37.7882 40.33C38.4614 41.0011 38.8396 41.9112 38.8396 42.8602C38.8396 43.8093 38.4614 44.7194 37.7882 45.3904C37.1128 46.0575 36.2005 46.4317 35.2498 46.4317C34.2991 46.4317 33.3868 46.0575 32.7114 45.3904C32.0423 44.7173 31.6668 43.8079 31.6668 42.8602C31.6668 41.9126 32.0423 41.0032 32.7114 40.33Z" fill="#19315A"/>
<path d="M16.8741 40.2571C17.5479 39.5885 18.4599 39.2131 19.4107 39.2131C20.3614 39.2131 21.2734 39.5885 21.9472 40.2571L45.6703 63.9003C46.3053 64.5775 46.6517 65.474 46.6365 66.4009C46.6213 67.3278 46.2457 68.2125 45.5888 68.8687C44.9319 69.5249 44.0451 69.9012 43.1153 69.9184C42.1855 69.9356 41.2853 69.5922 40.6045 68.9607L16.8741 45.3138C16.2034 44.6422 15.8268 43.7331 15.8268 42.7854C15.8268 41.8378 16.2034 40.9287 16.8741 40.2571Z" fill="#19315A"/>
<path d="M40.6045 37.5336C40.103 37.0333 39.7616 36.396 39.6235 35.7023C39.4853 35.0086 39.5566 34.2896 39.8282 33.6363C40.0999 32.983 40.5598 32.4246 41.1498 32.0317C41.7398 31.6389 42.4334 31.4292 43.1429 31.4292C43.8524 31.4292 44.546 31.6389 45.1359 32.0317C45.7259 32.4246 46.1858 32.983 46.4575 33.6363C46.7292 34.2896 46.8004 35.0086 46.6623 35.7023C46.5241 36.396 46.1827 37.0333 45.6812 37.5336C45.0059 38.2006 44.0936 38.5748 43.1429 38.5748C42.1921 38.5748 41.2799 38.2006 40.6045 37.5336Z" fill="#1FBED0"/>
<path d="M40.6045 53.2326C39.9353 52.5594 39.5599 51.6501 39.5599 50.7024C39.5599 49.7547 39.9353 48.8454 40.6045 48.1722L64.2508 24.6019C64.5851 24.2703 64.9816 24.0076 65.4178 23.8288C65.8539 23.6501 66.3211 23.5586 66.7927 23.5598C67.2643 23.561 67.731 23.6548 68.1663 23.8358C68.6015 24.0167 68.9967 24.2814 69.3293 24.6146C69.6619 24.9479 69.9255 25.3431 70.1048 25.7779C70.2842 26.2126 70.3759 26.6783 70.3747 27.1484C70.3735 27.6185 70.2795 28.0837 70.0979 28.5175C69.9163 28.9514 69.6508 29.3453 69.3165 29.6769L45.6703 53.2326C44.9954 53.8963 44.0855 54.2684 43.1374 54.2684C42.1893 54.2684 41.2794 53.8963 40.6045 53.2326Z" fill="#1FBED0"/>
<path d="M48.4756 61.104C47.8047 60.4317 47.428 59.522 47.428 58.5738C47.428 57.6255 47.8047 56.7158 48.4756 56.0436L64.2398 40.33C64.913 39.659 65.8261 39.282 66.7782 39.282C67.7302 39.282 68.6433 39.659 69.3165 40.33C69.9897 41.0011 70.368 41.9112 70.368 42.8602C70.368 43.8092 69.9897 44.7194 69.3165 45.3904L53.5487 61.104C52.8744 61.7717 51.9626 62.1464 51.0122 62.1464C50.0617 62.1464 49.1499 61.7717 48.4756 61.104Z" fill="#2B72B8"/>
<path d="M61.4527 21.8202C60.7774 22.4872 59.8651 22.8614 58.9144 22.8614C57.9636 22.8614 57.0514 22.4872 56.376 21.8202L40.6045 6.10662C39.9695 5.42939 39.6231 4.53285 39.6383 3.60599C39.6535 2.67913 40.0291 1.79436 40.686 1.13818C41.3429 0.481996 42.2297 0.105661 43.1595 0.088504C44.0893 0.0713466 44.9895 0.414706 45.6703 1.04621L61.4527 16.7743C62.1219 17.4475 62.4973 18.3569 62.4973 19.3045C62.4973 20.2522 62.1219 21.1616 61.4527 21.8347" fill="#44B4E3"/>
<path d="M29.9061 68.9606C29.2307 69.6277 28.3185 70.0019 27.3677 70.0019C26.417 70.0019 25.5047 69.6277 24.8294 68.9606L8.99204 53.1705C8.38433 52.488 8.06138 51.5996 8.0893 50.6875C8.11722 49.7753 8.4939 48.9082 9.14223 48.2639C9.79055 47.6195 10.6615 47.2465 11.5767 47.2213C12.4918 47.1961 13.3821 47.5206 14.0651 48.1283L29.9061 63.9148C30.5753 64.588 30.9507 65.4973 30.9507 66.445C30.9507 67.3927 30.5753 68.302 29.9061 68.9752" fill="#1FBED0"/>
<path d="M22.024 8.90282C22.6932 9.576 23.0686 10.4853 23.0686 11.433C23.0686 12.3807 22.6932 13.2901 22.024 13.9632L6.12815 29.808C5.45493 30.4791 4.54186 30.8561 3.58979 30.8561C2.63771 30.8561 1.72464 30.4791 1.05142 29.808C0.378208 29.137 0 28.2268 0 27.2778C0 26.3288 0.378208 25.4187 1.05142 24.7476L16.9473 8.90282C17.6226 8.23579 18.5349 7.86157 19.4856 7.86157C20.4364 7.86157 21.3486 8.23579 22.024 8.90282Z" fill="#19315A"/>
<path d="M83.764 52.5616C83.8621 52.5739 83.9617 52.5655 84.0562 52.5368C84.1508 52.5081 84.2383 52.4598 84.3129 52.3951C84.3874 52.3304 84.4475 52.2507 84.489 52.1613C84.5306 52.0719 84.5527 51.9747 84.554 51.8762C84.554 51.4314 84.2431 51.1908 83.7457 51.1908H82.9739V52.5725L83.764 52.5616ZM81.9791 50.283H83.8298C84.9088 50.283 85.5635 50.9246 85.5635 51.8434C85.5635 52.8897 84.7479 53.4293 83.7347 53.4293H82.9776V54.7819H81.9827L81.9791 50.283Z" fill="#2B72B8"/>
<path d="M88.4603 52.9081L87.8605 51.4497L87.257 52.9081H88.4603ZM87.4216 50.2539H88.3396L90.2781 54.8003H89.2503L88.8334 53.7867H86.9205L86.5072 54.8003H85.4903L87.4216 50.2539Z" fill="#2B72B8"/>
<path d="M92.9811 52.4778C93.4639 52.4778 93.7418 52.2189 93.7418 51.8398C93.7418 51.4132 93.4456 51.1944 92.9591 51.1944H91.9716V52.4924L92.9811 52.4778ZM90.9731 50.2903H93.0432C93.2829 50.2756 93.5231 50.3086 93.7498 50.3875C93.9766 50.4663 94.1852 50.5895 94.3636 50.7497C94.4907 50.8873 94.5891 51.0488 94.6531 51.2246C94.7172 51.4005 94.7456 51.5873 94.7367 51.7741C94.7512 52.0811 94.6642 52.3843 94.4891 52.6372C94.314 52.8901 94.0605 53.0787 93.7675 53.1741L94.8647 54.7856H93.7016L92.7324 53.3273H91.9496V54.7856H90.9511L90.9731 50.2903Z" fill="#2B72B8"/>
<path d="M96.7082 51.2017H95.3292V50.283H99.0819V51.2017H97.7067V54.7965H96.7082V51.2017Z" fill="#2B72B8"/>
<path d="M99.85 50.283H100.768L102.889 53.0647V50.283H103.873V54.7965H103.025L100.83 51.9272V54.7965H99.85V50.283Z" fill="#2B72B8"/>
<path d="M104.963 50.283H108.376V51.1689H105.951V52.084H108.087V52.9663H105.951V53.9142H108.409V54.7965H104.963V50.283Z" fill="#2B72B8"/>
<path d="M111.306 52.4778C111.788 52.4778 112.066 52.2189 112.066 51.8398C112.066 51.4132 111.77 51.1944 111.284 51.1944H110.296V52.4924L111.306 52.4778ZM109.298 50.2903H111.368C111.607 50.2756 111.848 50.3086 112.074 50.3875C112.301 50.4663 112.51 50.5895 112.688 50.7497C112.819 50.887 112.92 51.0491 112.987 51.2264C113.053 51.4036 113.084 51.5923 113.076 51.7814C113.09 52.0884 113.003 52.3915 112.828 52.6444C112.653 52.8973 112.4 53.086 112.107 53.1814L113.204 54.7929H112.041L111.071 53.3346H110.289V54.7929H109.29L109.298 50.2903Z" fill="#2B72B8"/>
<path d="M113.668 54.1405L114.257 53.4368C114.625 53.7771 115.105 53.9727 115.607 53.9873C116.017 53.9873 116.262 53.8233 116.262 53.5608C116.262 53.3092 116.108 53.1962 115.351 52.9884C114.436 52.755 113.848 52.5035 113.848 51.6066C113.848 50.7863 114.51 50.2467 115.435 50.2467C116.046 50.2364 116.641 50.4389 117.117 50.8191L116.598 51.5665C116.26 51.303 115.849 51.1479 115.42 51.1217C115.055 51.1217 114.839 51.2967 114.839 51.5155C114.839 51.8108 115.033 51.9092 115.815 52.1061C116.733 52.3467 117.253 52.6748 117.253 53.4623C117.253 54.3592 116.565 54.8623 115.589 54.8623C114.88 54.8637 114.196 54.604 113.668 54.1332" fill="#2B72B8"/>
<path d="M118.12 50.283H119.118V52.0694H120.954V50.283H121.949V54.7965H120.954V52.9845H119.118V54.7965H118.12V50.283Z" fill="#2B72B8"/>
<path d="M124.081 50.283H123.087V54.7965H124.081V50.283Z" fill="#2B72B8"/>
<path d="M127 52.5616C127.098 52.5739 127.198 52.5655 127.293 52.5368C127.387 52.5081 127.475 52.4598 127.549 52.3951C127.624 52.3304 127.684 52.2507 127.725 52.1613C127.767 52.0719 127.789 51.9747 127.79 51.8762C127.79 51.4314 127.479 51.1908 126.982 51.1908H126.21V52.5725L127 52.5616ZM125.215 50.283H127.066C128.145 50.283 128.8 50.9246 128.8 51.8434C128.8 52.8897 127.984 53.4293 126.971 53.4293H126.214V54.7819H125.219L125.215 50.283Z" fill="#2B72B8"/>
<path d="M131.481 50.283H134.93V51.1871H132.476V52.1496H134.637V53.0501H132.476V54.7965H131.481V50.283Z" fill="#2B72B8"/>
<path d="M139.297 52.5545C139.303 52.3708 139.273 52.1878 139.207 52.0162C139.141 51.8446 139.041 51.688 138.913 51.5557C138.785 51.4234 138.631 51.3181 138.462 51.246C138.292 51.174 138.11 51.1366 137.925 51.1363C137.743 51.1361 137.561 51.1728 137.393 51.2442C137.225 51.3156 137.073 51.4201 136.946 51.5516C136.819 51.683 136.72 51.8387 136.656 52.0091C136.591 52.1796 136.561 52.3614 136.568 52.5436C136.562 52.7275 136.592 52.911 136.658 53.083C136.724 53.255 136.823 53.412 136.951 53.5447C137.079 53.6774 137.233 53.7831 137.403 53.8553C137.573 53.9276 137.755 53.9651 137.94 53.9654C138.123 53.9656 138.304 53.9289 138.472 53.8575C138.641 53.7861 138.793 53.6816 138.92 53.5501C139.046 53.4187 139.145 53.263 139.21 53.0926C139.275 52.9221 139.304 52.7403 139.297 52.5581M135.526 52.5581C135.526 51.9219 135.78 51.3117 136.231 50.8618C136.682 50.4119 137.294 50.1592 137.933 50.1592C138.571 50.1592 139.183 50.4119 139.635 50.8618C140.086 51.3117 140.339 51.9219 140.339 52.5581C140.34 52.8709 140.277 53.1806 140.155 53.4688C140.032 53.7569 139.853 54.0177 139.628 54.2356C139.403 54.4535 139.137 54.6242 138.844 54.7375C138.551 54.8508 138.239 54.9044 137.925 54.8951C137.613 54.9059 137.302 54.8538 137.011 54.7418C136.719 54.6298 136.454 54.4602 136.229 54.2433C136.005 54.0264 135.828 53.7667 135.707 53.4796C135.586 53.1925 135.524 52.8841 135.526 52.5727" fill="#2B72B8"/>
<path d="M143.236 52.4778C143.719 52.4778 143.997 52.2189 143.997 51.8397C143.997 51.4132 143.701 51.1944 143.214 51.1944H142.227V52.4924L143.236 52.4778ZM141.228 50.2903H143.298C143.782 50.263 144.257 50.4282 144.619 50.7496C144.749 50.887 144.851 51.0491 144.918 51.2264C144.984 51.4036 145.014 51.5923 145.007 51.7814C145.021 52.0884 144.934 52.3915 144.759 52.6444C144.584 52.8973 144.33 53.086 144.037 53.1814L145.135 54.7929H143.971L143.002 53.3345H142.219V54.7929H141.221L141.228 50.2903Z" fill="#2B72B8"/>
<path d="M81.9901 58.0269H83.0654L84.2541 59.9373L85.4428 58.0269H86.5181V62.5404H85.5269V59.5946L84.2541 61.5232H84.2285L82.9666 59.6128V62.5404H81.9901V58.0269Z" fill="#2B72B8"/>
<path d="M90.2086 60.6517L89.6088 59.1934L89.0053 60.6517H90.2086ZM89.1626 57.9939H90.0806L92.0191 62.5403H90.9767L90.5634 61.5304H88.6505L88.2372 62.5403H87.2204L89.1626 57.9939Z" fill="#2B72B8"/>
<path d="M94.7367 60.2179C95.2232 60.2179 95.5011 59.9627 95.5011 59.5799C95.5011 59.1533 95.2049 58.9345 94.7184 58.9345H93.7309V60.2288L94.7367 60.2179ZM92.7324 58.0304H94.8025C95.0423 58.0148 95.2827 58.0475 95.5096 58.1264C95.7364 58.2053 95.945 58.3289 96.1229 58.4898C96.2535 58.6271 96.3551 58.7892 96.4217 58.9665C96.4883 59.1437 96.5185 59.3324 96.5106 59.5215C96.5251 59.8285 96.4381 60.1316 96.263 60.3845C96.0879 60.6374 95.8344 60.8261 95.5414 60.9215L96.6387 62.533H95.4682L94.499 61.0747H93.7162V62.533H92.7177L92.7324 58.0304Z" fill="#2B72B8"/>
<path d="M97.4031 58.0269H98.398V59.9993L100.234 58.0269H101.437L99.594 59.9409L101.522 62.5404H100.325L98.921 60.619L98.398 61.1623V62.5404H97.4031V58.0269Z" fill="#2B72B8"/>
<path d="M102.125 58.0269H105.541V58.9092H103.116V59.8279H105.252V60.7102H103.116V61.6581H105.574V62.5404H102.125V58.0269Z" fill="#2B72B8"/>
<path d="M107.516 58.942H106.141V58.0269H109.89V58.942H108.515V62.5404H107.516V58.942Z" fill="#2B72B8"/>
<path d="M113.639 58.0269H112.644V62.5404H113.639V58.0269Z" fill="#2B72B8"/>
<path d="M114.773 58.0269H115.848L117.037 59.9373L118.229 58.0269H119.305V62.5404H118.313V59.5946L117.037 61.5232H117.011L115.75 59.6128V62.5404H114.773V58.0269Z" fill="#2B72B8"/>
<path d="M122.169 60.3019C122.266 60.3142 122.365 60.3058 122.459 60.2773C122.554 60.2488 122.641 60.2008 122.715 60.1364C122.789 60.0721 122.849 59.9928 122.89 59.9038C122.932 59.8148 122.954 59.7182 122.955 59.6201C122.955 59.1753 122.644 58.9383 122.147 58.9383H121.379V60.3164L122.169 60.3019ZM120.38 58.0269H122.231C123.328 58.0269 123.964 58.6649 123.964 59.5873C123.964 60.63 123.152 61.1732 122.136 61.1732H121.379V62.5258H120.38V58.0269Z" fill="#2B72B8"/>
<path d="M124.718 58.0269H125.713V61.6362H127.969V62.5404H124.718V58.0269Z" fill="#2B72B8"/>
<path d="M128.723 58.0269H132.139V58.9092H129.714V59.8279H131.847V60.7102H129.714V61.6581H132.172V62.5404H128.723V58.0269Z" fill="#2B72B8"/>
<path d="M133.061 58.0269H134.133L135.325 59.9373L136.514 58.0269H137.589V62.5404H136.598V59.5946L135.325 61.5232H135.299L134.037 59.6128V62.5404H133.061V58.0269Z" fill="#2B72B8"/>
<path d="M138.679 58.0269H142.095V58.9092H139.67V59.8279H141.802V60.7102H139.67V61.6581H142.128V62.5404H138.679V58.0269Z" fill="#2B72B8"/>
<path d="M143.017 58.0269H143.935L146.056 60.805V58.0269H147.04V62.5404H146.192L143.997 59.6711V62.5404H143.017V58.0269Z" fill="#2B72B8"/>
<path d="M149.183 58.942H147.805V58.0269H151.557V58.942H150.178V62.5404H149.183V58.942Z" fill="#2B72B8"/>
<path d="M154.355 60.6517L153.755 59.1934L153.152 60.6517H154.355ZM153.309 57.9939H154.227L156.166 62.5403H155.127L154.71 61.5304H152.783L152.369 62.5403H151.352L153.309 57.9939Z" fill="#2B72B8"/>
<path d="M157.325 58.942H155.95V58.0269H159.699V58.942H158.324V62.5404H157.325V58.942Z" fill="#2B72B8"/>
<path d="M161.506 58.0269H160.511V62.5404H161.506V58.0269Z" fill="#2B72B8"/>
<path d="M166.213 60.2981C166.22 60.1145 166.189 59.9314 166.123 59.7598C166.057 59.5882 165.957 59.4316 165.829 59.2993C165.701 59.167 165.548 59.0617 165.378 58.9897C165.208 58.9176 165.026 58.8803 164.842 58.8799C164.658 58.8788 164.477 58.9148 164.308 58.9857C164.139 59.0567 163.986 59.1612 163.859 59.2928C163.731 59.4244 163.632 59.5804 163.567 59.7513C163.502 59.9223 163.473 60.1046 163.481 60.2872C163.475 60.4709 163.505 60.6539 163.571 60.8255C163.637 60.9971 163.737 61.1537 163.865 61.286C163.993 61.4183 164.147 61.5236 164.316 61.5957C164.486 61.6677 164.668 61.7051 164.853 61.7054C165.036 61.7066 165.217 61.6707 165.386 61.5999C165.554 61.5292 165.707 61.4251 165.834 61.2938C165.961 61.1626 166.061 61.0071 166.126 60.8365C166.191 60.666 166.221 60.4841 166.213 60.3018M162.439 60.3018C162.439 59.6655 162.692 59.0554 163.143 58.6055C163.595 58.1556 164.207 57.9028 164.845 57.9028C165.484 57.9028 166.096 58.1556 166.547 58.6055C166.998 59.0554 167.252 59.6655 167.252 60.3018C167.252 60.938 166.998 61.5482 166.547 61.9981C166.096 62.448 165.484 62.7007 164.845 62.7007C164.207 62.7007 163.595 62.448 163.143 61.9981C162.692 61.5482 162.439 60.938 162.439 60.3018Z" fill="#2B72B8"/>
<path d="M168.141 58.0269H169.062L171.184 60.805V58.0269H172.168V62.5404H171.319L169.125 59.6711V62.5404H168.141V58.0269Z" fill="#2B72B8"/>
</svg>
