<svg width="27" height="24" viewBox="0 0 27 24" fill="none" xmlns="http://www.w3.org/2000/svg">
<path d="M18.4686 16.2208L25 22.5M20.6456 10.4628C20.6456 15.4128 16.4716 19.4256 11.3228 19.4256C6.17396 19.4256 2 15.4128 2 10.4628C2 5.51277 6.17396 1.5 11.3228 1.5C16.4716 1.5 20.6456 5.51277 20.6456 10.4628Z" stroke="#F2F2F2" stroke-width="3" stroke-miterlimit="10"/>
<path d="M18.4686 16.2208L25 22.5M20.6456 10.4628C20.6456 15.4128 16.4716 19.4256 11.3228 19.4256C6.17396 19.4256 2 15.4128 2 10.4628C2 5.51277 6.17396 1.5 11.3228 1.5C16.4716 1.5 20.6456 5.51277 20.6456 10.4628Z" stroke="#A1A2A3" stroke-width="3" stroke-miterlimit="10"/>
</svg>
