<?xml version="1.0" encoding="UTF-8"?>
<svg version="1.1" xmlns="http://www.w3.org/2000/svg" width="334" height="138">
<path d="M0 0 C1.875 1.0625 1.875 1.0625 3 3 C3.13887572 6.68020651 2.90461982 9.01117929 0.36328125 11.7890625 C-1.37579736 13.27768557 -3.13636746 14.6716144 -5 16 C1.28187593 15.12238498 6.59817038 13.98452963 12.18359375 10.94921875 C19.03550031 7.368545 28.12271542 6.06410372 35.625 7.875 C38 9 38 9 39 10 C39.46580407 15.35674677 39.46580407 15.35674677 37.6875 17.8125 C36 19 36 19 33 20 C37.12672918 22.81263106 41.09743461 25.13016467 45.8125 26.8125 C54.68578668 30.21165136 64.00745888 36.74500626 69 45 C69.625 48.875 69.625 48.875 69 52 C66 54 66 54 63 53.875 C59.53257162 52.86366672 58.9548078 51.89730442 57 49 C57.32668586 55.65763242 57.87283538 61.7150078 60.28125 67.96484375 C62.33456336 73.77884516 62.66539897 79.89894748 62 86 C60.375 88.75 60.375 88.75 58 90 C54.875 89.75 54.875 89.75 52 89 C51.34 89 50.68 89 50 89 C45.15538022 94.10115769 41.03989992 99.75817949 37.375 105.75 C33.77567522 111.6009954 29.72309143 116.18460571 24 120 C21 120.375 21 120.375 18 120 C16.0625 118.3125 16.0625 118.3125 15 116 C15.41025641 111.58974359 15.41025641 111.58974359 17 110 C10.19504963 109.79886846 4.54835756 110.01210574 -2 112 C-13.65085424 113.70233661 -13.65085424 113.70233661 -19 111 C-19.66 110.34 -20.32 109.68 -21 109 C-20.54545455 103.54545455 -20.54545455 103.54545455 -18 101 C-22.95928789 96.76147629 -27.81139702 92.93780699 -33.625 89.9375 C-40.86685099 86.15780691 -47.16924218 81.34228583 -51 74 C-51.48807426 71.00182954 -51.47564411 69.72598311 -49.8125 67.1875 C-47.26452085 65.51813435 -45.99696745 65.42914906 -43 66 C-40.1875 68.5 -40.1875 68.5 -38 71 C-37.58295676 64.53582985 -38.37280317 60.17021231 -41.02734375 54.26171875 C-43.02446557 49.61780898 -43.19059653 45.50164576 -43.25 40.4375 C-43.270625 39.76525391 -43.29125 39.09300781 -43.3125 38.40039062 C-43.33562464 35.48957674 -43.33120863 33.48901979 -41.671875 31.0390625 C-40 30 -40 30 -37 29.9375 C-34 31 -34 31 -32.125 34.0625 C-31.75375 35.031875 -31.3825 36.00125 -31 37 C-28.06253951 32.85484697 -26.04299215 28.9518905 -24.1875 24.1875 C-20.45128691 15.06480301 -11.52203786 -1.12410125 0 0 Z M-2.8125 53.125 C-4.86936643 58.10478187 -4.86936643 62.89521813 -2.8125 67.875 C-0.15714992 70.98816906 1.99538846 72.73393338 6.1484375 73.28515625 C10.88577152 73.46615074 14.26398962 73.18659709 18 70 C21.18659709 66.26398962 21.46615074 62.88577152 21.28515625 58.1484375 C20.73393338 53.99538846 18.98816906 51.84285008 15.875 49.1875 C8.82753742 46.27659154 2.21122127 47.23511989 -2.8125 53.125 Z " fill="#FFFFFF" transform="translate(61,9)"/>
<path d="M0 0 C2.53209597 0.09546502 3.81723007 0.27111472 5.79296875 1.88671875 C7.46687537 4.04826204 8.85101951 6.27352216 10.25 8.625 C11.03961289 9.9158247 11.83004105 11.2061509 12.62109375 12.49609375 C14.86724325 16.18478887 17.06668455 19.8988083 19.25 23.625 C23.62626366 17.49291019 27.79606813 11.27618544 31.76953125 4.875 C33.25 2.625 33.25 2.625 35.25 0.625 C39.58643601 0.30962284 41.57653229 0.17602153 45.25 2.625 C45.63095093 4.62962341 45.63095093 4.62962341 45.63818359 7.11889648 C45.64764008 8.05003769 45.65709656 8.98117889 45.6668396 9.9405365 C45.66076691 10.94887039 45.65469421 11.95720428 45.6484375 12.99609375 C45.65130768 14.02936295 45.65417786 15.06263214 45.65713501 16.12721252 C45.65917913 18.31536404 45.65362505 20.50353369 45.64111328 22.69165039 C45.62508126 26.04550001 45.64094235 29.39814146 45.66015625 32.75195312 C45.65817356 34.87500267 45.65432936 36.99805146 45.6484375 39.12109375 C45.65754654 40.63055824 45.65754654 40.63055824 45.6668396 42.17051697 C45.65738312 43.10481033 45.64792664 44.0391037 45.63818359 45.00170898 C45.63579681 45.82396469 45.63341003 46.6462204 45.63095093 47.49339294 C45.1549217 50.15700966 44.44289509 51.06639468 42.25 52.625 C38.6875 52.5625 38.6875 52.5625 35.25 51.625 C33.20244931 48.6398645 32.96016881 45.98317262 32.8359375 42.421875 C32.77792969 40.95234375 32.77792969 40.95234375 32.71875 39.453125 C32.6878125 38.43734375 32.656875 37.4215625 32.625 36.375 C32.56699219 34.828125 32.56699219 34.828125 32.5078125 33.25 C32.41368326 30.7085106 32.32805021 28.16702567 32.25 25.625 C31.41855469 26.88957031 31.41855469 26.88957031 30.5703125 28.1796875 C29.84585938 29.27539062 29.12140625 30.37109375 28.375 31.5 C27.65570313 32.59054688 26.93640625 33.68109375 26.1953125 34.8046875 C24.25 37.625 24.25 37.625 22.25 39.625 C18.93359375 39.69140625 18.93359375 39.69140625 15.25 38.625 C13.14025447 36.53128708 11.76251309 34.14226242 10.3125 31.5625 C9.71598633 30.56766602 9.71598633 30.56766602 9.10742188 29.55273438 C8.13397232 27.92249958 7.18906346 26.2752816 6.25 24.625 C6.23541748 25.36661377 6.22083496 26.10822754 6.20581055 26.87231445 C6.13140543 30.22790631 6.03471994 33.58249494 5.9375 36.9375 C5.90366211 38.68836914 5.90366211 38.68836914 5.86914062 40.47460938 C5.83369141 41.59287109 5.79824219 42.71113281 5.76171875 43.86328125 C5.73553467 44.89493408 5.70935059 45.92658691 5.68237305 46.98950195 C5.25 49.625 5.25 49.625 3.90942383 51.46557617 C1.35521548 53.25017753 -0.72842097 52.94644458 -3.75 52.625 C-6.22565035 50.14934965 -6.00234962 49.43194267 -6.00878906 46.0234375 C-6.01509338 45.06904785 -6.02139771 44.1146582 -6.02789307 43.13134766 C-6.0238446 42.09800293 -6.01979614 41.0646582 -6.015625 40 C-6.01753845 38.94216309 -6.0194519 37.88432617 -6.02142334 36.79443359 C-6.02278602 34.55501061 -6.01908382 32.31557974 -6.01074219 30.07617188 C-6.00004402 26.63914323 -6.01063488 23.2026373 -6.0234375 19.765625 C-6.02211592 17.59374884 -6.01955356 15.42187301 -6.015625 13.25 C-6.02169769 11.69998291 -6.02169769 11.69998291 -6.02789307 10.11865234 C-6.02158875 9.1642627 -6.01528442 8.20987305 -6.00878906 7.2265625 C-6.00719788 6.38432129 -6.00560669 5.54208008 -6.00396729 4.67431641 C-5.51600094 0.73681149 -3.69448024 0.61574671 0 0 Z " fill="#FFFFFF" transform="translate(211.75,41.375)"/>
<path d="M0 0 C0.99193359 -0.00386719 1.98386719 -0.00773437 3.00585938 -0.01171875 C4.55950195 0.00568359 4.55950195 0.00568359 6.14453125 0.0234375 C7.16095703 0.01183594 8.17738281 0.00023437 9.22460938 -0.01171875 C16.21816395 0.01537055 22.42917768 0.45298101 28.015625 5.1171875 C28.69818359 5.99890625 28.69818359 5.99890625 29.39453125 6.8984375 C29.86761719 7.48625 30.34070313 8.0740625 30.828125 8.6796875 C33.7659282 13.15246746 33.39061786 18.25963319 32.95703125 23.3984375 C30.98047016 29.21831182 27.1944769 32.73673973 21.75 35.53125 C18.18558051 36.63796486 14.83300062 36.61520803 11.14453125 36.5234375 C10.10522461 36.50990234 10.10522461 36.50990234 9.04492188 36.49609375 C7.3488073 36.47269907 5.65287254 36.43683391 3.95703125 36.3984375 C3.99183594 37.21828125 4.02664062 38.038125 4.0625 38.8828125 C4.08957031 39.96046875 4.11664063 41.038125 4.14453125 42.1484375 C4.17933594 43.21578125 4.21414062 44.283125 4.25 45.3828125 C3.92430975 48.7352508 3.34804936 50.06315408 0.95703125 52.3984375 C-2.04296875 52.8359375 -2.04296875 52.8359375 -5.04296875 52.3984375 C-7.15708606 50.8157879 -7.94553415 49.93220081 -8.42391968 47.31152344 C-8.42630646 46.51004883 -8.42869324 45.70857422 -8.43115234 44.8828125 C-8.44060883 43.97176758 -8.45006531 43.06072266 -8.45980835 42.12207031 C-8.45373566 41.14077148 -8.44766296 40.15947266 -8.44140625 39.1484375 C-8.44427643 38.1387793 -8.44714661 37.12912109 -8.45010376 36.08886719 C-8.45214563 33.95377034 -8.44660721 31.81865484 -8.43408203 29.68359375 C-8.41803053 26.41103379 -8.433927 23.13970894 -8.453125 19.8671875 C-8.45114259 17.7942681 -8.44729896 15.72134947 -8.44140625 13.6484375 C-8.44747894 12.66713867 -8.45355164 11.68583984 -8.45980835 10.67480469 C-8.45035187 9.76375977 -8.44089539 8.85271484 -8.43115234 7.9140625 C-8.42876556 7.11258789 -8.42637878 6.31111328 -8.42391968 5.48535156 C-7.54231162 0.65575245 -4.41859086 0.01666943 0 0 Z M3.95703125 11.3984375 C3.95703125 16.3484375 3.95703125 21.2984375 3.95703125 26.3984375 C11.77027892 26.9015509 11.77027892 26.9015509 18.95703125 24.3984375 C20.93665375 21.87891795 20.96360441 20.55948004 20.83203125 17.3359375 C19.79064716 13.83986234 19.08079365 13.1744897 15.95703125 11.3984375 C12.90928675 11.03685871 12.90928675 11.03685871 9.70703125 11.2109375 C7.80953125 11.2728125 5.91203125 11.3346875 3.95703125 11.3984375 Z " fill="#FFFFFF" transform="translate(165.04296875,41.6015625)"/>
<path d="M0 0 C1.0374939 0.00303635 1.0374939 0.00303635 2.09594727 0.00613403 C2.80243408 0.00517731 3.5089209 0.00422058 4.23681641 0.00323486 C5.7331552 0.00255321 7.22949694 0.00440649 8.72583008 0.00857544 C11.02374884 0.01392396 13.32147213 0.00863003 15.61938477 0.00222778 C17.06990603 0.00288857 18.52042718 0.00416974 19.97094727 0.00613403 C20.66260986 0.0041098 21.35427246 0.00208557 22.06689453 0 C26.91849503 0.0239943 26.91849503 0.0239943 28.03344727 1.13894653 C28.07425509 3.13853017 28.07599083 5.13939907 28.03344727 7.13894653 C25.38886348 8.46123843 23.35583425 8.23571847 20.40844727 8.20144653 C19.40555664 8.1924231 18.40266602 8.18339966 17.36938477 8.17410278 C16.59852539 8.16250122 15.82766602 8.15089966 15.03344727 8.13894653 C15.04915771 9.40077759 15.06486816 10.66260864 15.08105469 11.962677 C15.13525034 16.63285976 15.16975948 21.3030146 15.19824219 25.97341919 C15.21335252 27.99690419 15.23384164 30.02035633 15.25976562 32.04373169 C15.29605054 34.94794818 15.31315082 37.85173269 15.32641602 40.75613403 C15.34189987 41.66451019 15.35738373 42.57288635 15.37333679 43.50878906 C15.37356339 44.34950958 15.37378998 45.1902301 15.37402344 46.056427 C15.38068527 46.79811127 15.38734711 47.53979553 15.39421082 48.30395508 C15.27515884 48.90950226 15.15610687 49.51504944 15.03344727 50.13894653 C11.56302023 52.45256456 10.11510553 52.64915382 6.03344727 52.13894653 C4.00083777 50.37063276 3.13743741 48.91300051 2.77700806 46.23013306 C2.68530792 43.81366649 2.69665674 41.41614369 2.74047852 38.99832153 C2.74472336 38.11613953 2.7489682 37.23395752 2.75334167 36.32504272 C2.77010888 33.5126977 2.80775728 30.70107427 2.84594727 27.88894653 C2.86099664 25.98010273 2.87468461 24.07124767 2.88696289 22.16238403 C2.92000599 17.48762764 2.97177472 12.81340935 3.03344727 8.13894653 C1.91969727 8.15957153 0.80594727 8.18019653 -0.34155273 8.20144653 C-3.96655273 8.13894653 -3.96655273 8.13894653 -5.96655273 7.13894653 C-6.0090963 5.13939907 -6.00736056 3.13853017 -5.96655273 1.13894653 C-4.28981624 -0.53778996 -2.23800198 0.01106836 0 0 Z " fill="#FFFFFF" transform="translate(265.966552734375,41.861053466796875)"/>
<path d="M0 0 C1.0374939 0.00303635 1.0374939 0.00303635 2.09594727 0.00613403 C2.80243408 0.00517731 3.5089209 0.00422058 4.23681641 0.00323486 C5.7331552 0.00255321 7.22949694 0.00440649 8.72583008 0.00857544 C11.02374884 0.01392396 13.32147213 0.00863003 15.61938477 0.00222778 C17.06990603 0.00288857 18.52042718 0.00416974 19.97094727 0.00613403 C20.66260986 0.0041098 21.35427246 0.00208557 22.06689453 0 C26.91849503 0.0239943 26.91849503 0.0239943 28.03344727 1.13894653 C28.07425509 3.13853017 28.07599083 5.13939907 28.03344727 7.13894653 C25.13119175 8.59007429 22.58433493 8.26879812 19.34594727 8.27175903 C18.35848511 8.27319412 18.35848511 8.27319412 17.35107422 8.2746582 C15.95906478 8.27533878 14.56705217 8.27349299 13.17504883 8.26931763 C11.04183844 8.26396758 8.90883859 8.26926666 6.77563477 8.27566528 C5.4240718 8.27500448 4.07250897 8.27372327 2.72094727 8.27175903 C0.87049805 8.27006714 0.87049805 8.27006714 -1.01733398 8.26834106 C-3.96655273 8.13894653 -3.96655273 8.13894653 -5.96655273 7.13894653 C-6.0090963 5.13939907 -6.00736056 3.13853017 -5.96655273 1.13894653 C-4.28981624 -0.53778996 -2.23800198 0.01106836 0 0 Z " fill="#F4F5F7" transform="translate(265.966552734375,41.861053466796875)"/>
<path d="M0 0 C1.875 1.0625 1.875 1.0625 3 3 C2.55555556 9.44444444 2.55555556 9.44444444 1 11 C-2.4375 11.1875 -2.4375 11.1875 -6 11 C-8 9 -8 9 -8.3125 6.0625 C-8 3 -8 3 -6.8125 1.125 C-4.34492892 -0.40659584 -2.85480169 -0.42822025 0 0 Z " fill="#FFFFFF" transform="translate(73,127)"/>
<path d="M0 0 C2.9375 0.875 2.9375 0.875 4.9375 3.875 C4.875 6.9375 4.875 6.9375 3.9375 9.875 C1.6875 11.4375 1.6875 11.4375 -1.0625 11.875 C-3.875 10.875 -3.875 10.875 -6.0625 8.875 C-6.60238198 5.63570812 -6.59755204 3.79647852 -4.9375 0.9375 C-3.0625 -0.125 -3.0625 -0.125 0 0 Z " fill="#FFFFFF" transform="translate(117.0625,103.125)"/>
<path d="M0 0 C1.7325 0.1546875 1.7325 0.1546875 3.5 0.3125 C5.64762184 3.53393276 6.061068 4.5720467 5.5 8.3125 C3.875 10.1875 3.875 10.1875 1.5 11.3125 C-1.6875 11.125 -1.6875 11.125 -4.5 10.3125 C-5.88125018 7.54999964 -5.69079306 5.36518901 -5.5 2.3125 C-3.5 0.3125 -3.5 0.3125 0 0 Z " fill="#FFFFFF" transform="translate(110.5,17.6875)"/>
<path d="M0 0 C3 0.4375 3 0.4375 4.9375 1.5625 C6 3.4375 6 3.4375 5.875 6.5 C5 9.4375 5 9.4375 2 11.4375 C-1.1875 11.0625 -1.1875 11.0625 -4 10.4375 C-5.1875 7.6875 -5.1875 7.6875 -6 4.4375 C-4.56622525 1.03228497 -3.66125744 0.53393338 0 0 Z " fill="#FFFFFF" transform="translate(70,-0.4375)"/>
<path d="M0 0 C2.9375 0.8125 2.9375 0.8125 4.9375 3.8125 C4.6875 6.9375 4.6875 6.9375 3.9375 9.8125 C1.17499964 11.19375018 -1.00981099 11.00329306 -4.0625 10.8125 C-6.0625 8.8125 -6.0625 8.8125 -6.375 5.3125 C-6.271875 4.1575 -6.16875 3.0025 -6.0625 1.8125 C-3.0625 -0.1875 -3.0625 -0.1875 0 0 Z " fill="#FFFFFF" transform="translate(31.0625,109.1875)"/>
<path d="M0 0 C1.7325 0.1546875 1.7325 0.1546875 3.5 0.3125 C5.5 3.3125 5.5 3.3125 5.3125 6.375 C4.5 9.3125 4.5 9.3125 1.5 11.3125 C-1.625 11.0625 -1.625 11.0625 -4.5 10.3125 C-5.88125018 7.54999964 -5.69079306 5.36518901 -5.5 2.3125 C-3.5 0.3125 -3.5 0.3125 0 0 Z " fill="#FFFFFF" transform="translate(6.5,63.6875)"/>
<path d="M0 0 C2.9375 0.875 2.9375 0.875 4.9375 3.875 C4.38194444 9.43055556 4.38194444 9.43055556 2.9375 10.875 C-0.5 11.0625 -0.5 11.0625 -4.0625 10.875 C-6.0625 8.875 -6.0625 8.875 -6.375 5.9375 C-6.0625 2.875 -6.0625 2.875 -4.9375 0.9375 C-3.0625 -0.125 -3.0625 -0.125 0 0 Z " fill="#FFFFFF" transform="translate(135.0625,63.125)"/>
<path d="M0 0 C0.9075 0.391875 1.815 0.78375 2.75 1.1875 C3.5 3.9375 3.5 3.9375 3.75 7.1875 C2.125 9.625 2.125 9.625 -0.25 11.1875 C-3.64154295 11.02599795 -4.83296757 10.60453243 -7.25 8.1875 C-7.625 5.25 -7.625 5.25 -7.25 2.1875 C-4.7566461 -0.88124326 -3.86315383 -0.96578846 0 0 Z " fill="#FFFFFF" transform="translate(26.25,23.8125)"/>
</svg>
