<svg width="167" height="69" viewBox="0 0 167 69" fill="none" xmlns="http://www.w3.org/2000/svg">
<path d="M24.3926 60.5709C23.8568 60.5709 23.3209 60.5532 22.7822 60.5178C22.0881 60.4691 21.4417 60.1483 20.9846 59.6255C20.5275 59.1027 20.297 58.4206 20.3436 57.7287C20.3902 57.0369 20.7102 56.3917 21.2333 55.9345C21.7564 55.4773 22.4401 55.2454 23.1344 55.2897C28.0033 55.6127 32.8016 53.9951 36.474 50.7927C40.1464 47.5904 42.3921 43.0654 42.7173 38.2131C42.7402 37.87 42.8308 37.5348 42.9837 37.2265C43.1366 36.9183 43.349 36.6431 43.6086 36.4167C43.8682 36.1903 44.1701 36.017 44.4969 35.9068C44.8237 35.7967 45.1691 35.7517 45.5134 35.7746C45.8576 35.7975 46.194 35.8877 46.5033 36.0401C46.8125 36.1925 47.0886 36.4041 47.3158 36.6629C47.543 36.9216 47.7169 37.2225 47.8274 37.5482C47.938 37.8739 47.9831 38.2181 47.9601 38.5612C47.561 44.5231 44.9057 50.1117 40.5309 54.1973C36.1561 58.2829 30.388 60.5609 24.3926 60.5709Z" fill="white"/>
<path d="M40.9884 64.3444C40.4158 64.3442 39.8588 64.1577 39.4022 63.8132C38.9457 63.4687 38.6145 62.985 38.459 62.4357C38.3035 61.8864 38.3323 61.3015 38.5409 60.77C38.7496 60.2385 39.1266 59.7894 39.6148 59.491C39.8872 59.3199 45.5948 55.6556 47.9453 46.2911C48.1145 45.617 48.5455 45.0375 49.1434 44.6801C49.7413 44.3227 50.4572 44.2166 51.1336 44.3852C51.81 44.5538 52.3915 44.9833 52.7502 45.5792C53.1088 46.1751 53.2152 46.8886 53.0461 47.5627C50.133 59.1606 42.664 63.775 42.3473 63.9667C41.937 64.2129 41.4673 64.3435 40.9884 64.3444Z" fill="white"/>
<path d="M28.9723 34.0913C28.8913 35.3023 29.1724 36.5101 29.7801 37.5618C30.3878 38.6136 31.2948 39.4622 32.3864 40.0003C33.478 40.5383 34.7052 40.7417 35.9128 40.5847C37.1204 40.4277 38.2542 39.9173 39.1707 39.1182C40.0873 38.319 40.7455 37.2669 41.0621 36.0949C41.3787 34.923 41.3395 33.6837 40.9494 32.534C40.5594 31.3842 39.836 30.3755 38.8707 29.6355C37.9054 28.8955 36.7417 28.4573 35.5266 28.3764C34.7197 28.3227 33.9101 28.4279 33.144 28.6861C32.3779 28.9442 31.6704 29.3502 31.0617 29.8809C30.4531 30.4116 29.9553 31.0566 29.5968 31.779C29.2383 32.5014 29.0261 33.2871 28.9723 34.0913Z" fill="white"/>
<path d="M37.8179 66.6573C37.8729 66.142 37.7734 65.6221 37.532 65.1632C37.2905 64.7043 36.9179 64.327 36.4613 64.0792C36.0047 63.8313 35.4846 63.724 34.9668 63.7707C34.449 63.8174 33.9567 64.0161 33.5522 64.3417C33.1477 64.6672 32.8492 65.105 32.6943 65.5997C32.5395 66.0943 32.5353 66.6237 32.6823 67.1207C32.8293 67.6177 33.1209 68.0601 33.5202 68.392C33.9195 68.7239 34.4086 68.9303 34.9256 68.9851C35.6189 69.0587 36.3131 68.8547 36.8555 68.4182C37.3979 67.9816 37.7441 67.3482 37.8179 66.6573Z" fill="white"/>
<path d="M16.82 59.3523C17.2118 59.0114 17.4934 58.5624 17.6291 58.062C17.7648 57.5616 17.7485 57.0323 17.5822 56.5411C17.416 56.05 17.1073 55.619 16.6953 55.3027C16.2832 54.9865 15.7862 54.7991 15.2673 54.7644C14.7483 54.7297 14.2307 54.8492 13.78 55.1078C13.3292 55.3664 12.9655 55.7524 12.7349 56.217C12.5043 56.6817 12.4173 57.204 12.4847 57.718C12.5521 58.232 12.7709 58.7145 13.1136 59.1044C13.5724 59.6266 14.2204 59.946 14.9153 59.9925C15.6102 60.039 16.2952 59.8087 16.82 59.3523Z" fill="white"/>
<path d="M31.2163 47.3059C31.157 47.3059 31.0978 47.3059 31.0386 47.3059C24.7812 46.8901 18.9456 44.0148 14.8149 39.3121C10.6841 34.6094 8.5963 28.4643 9.01049 22.2279C9.06291 21.5392 9.38607 20.899 9.90967 20.4466C10.4333 19.9941 11.115 19.7661 11.8064 19.8119C12.4979 19.8578 13.1432 20.174 13.602 20.6916C14.0608 21.2093 14.2959 21.8865 14.2563 22.576C14.095 24.9789 14.4103 27.3899 15.1843 29.6712C15.9582 31.9526 17.1755 34.0597 18.7667 35.8721C20.3579 37.6845 22.2917 39.1667 24.4579 40.234C26.624 41.3014 28.9798 41.9329 31.3909 42.0927C32.0712 42.1382 32.707 42.4454 33.1643 42.9494C33.6217 43.4533 33.8646 44.1147 33.8419 44.7938C33.8193 45.4729 33.5328 46.1166 33.0429 46.5892C32.553 47.0618 31.898 47.3262 31.2163 47.3266" fill="white"/>
<path d="M22.6489 52.4455C22.4335 52.4458 22.2187 52.42 22.0095 52.3688C10.3723 49.4656 5.74224 42.0219 5.54982 41.7062C5.20186 41.1132 5.10151 40.4077 5.27037 39.7417C5.43924 39.0757 5.86381 38.5025 6.45265 38.1454C7.04149 37.7884 7.74749 37.6761 8.4186 37.8327C9.0897 37.9894 9.67222 38.4025 10.0407 38.983C10.2124 39.2544 13.8892 44.9427 23.2854 47.2853C23.9064 47.4415 24.4489 47.8183 24.8108 48.3449C25.1728 48.8715 25.3295 49.5117 25.2513 50.1452C25.1732 50.7788 24.8656 51.3621 24.3864 51.7857C23.9073 52.2092 23.2894 52.4438 22.6489 52.4455Z" fill="white"/>
<path d="M2.84996 37.1922C3.36697 37.247 3.88869 37.1478 4.34915 36.9072C4.80961 36.6665 5.18812 36.2952 5.43683 35.8402C5.68553 35.3851 5.79325 34.8668 5.74637 34.3507C5.69949 33.8347 5.50011 33.344 5.17345 32.9409C4.84678 32.5378 4.4075 32.2402 3.91116 32.0859C3.41482 31.9316 2.88371 31.9274 2.385 32.0739C1.88628 32.2205 1.44235 32.5111 1.10936 32.909C0.776363 33.307 0.569254 33.7944 0.514221 34.3097C0.441231 35.0004 0.646156 35.6919 1.08404 36.2322C1.52192 36.7726 2.157 37.1178 2.84996 37.1922Z" fill="white"/>
<path d="M10.1798 16.2653C10.5221 16.6554 10.9727 16.9356 11.4747 17.0704C11.9767 17.2053 12.5076 17.1888 13.0002 17.0229C13.4928 16.8571 13.9249 16.5494 14.2421 16.1388C14.5592 15.7282 14.747 15.2331 14.7818 14.7161C14.8166 14.199 14.6967 13.6834 14.4374 13.2342C14.1782 12.7851 13.791 12.4227 13.3251 12.1928C12.8591 11.9629 12.3352 11.8759 11.8196 11.9428C11.304 12.0097 10.8199 12.2274 10.4285 12.5685C9.90365 13.0259 9.58259 13.6723 9.53595 14.3656C9.48932 15.0589 9.72093 15.7422 10.1798 16.2653Z" fill="white"/>
<path d="M24.8959 33.2297C24.8367 33.2297 24.7804 33.2297 24.7182 33.2297C24.3738 33.2072 24.0372 33.1172 23.7277 32.9648C23.4182 32.8124 23.142 32.6006 22.9148 32.3416C22.6877 32.0826 22.514 31.7814 22.4039 31.4554C22.2937 31.1293 22.2492 30.7848 22.273 30.4416C22.4788 27.3519 23.2933 24.3329 24.6702 21.557C26.047 18.7811 27.9591 16.3027 30.2972 14.2634C32.6353 12.2242 35.3537 10.664 38.297 9.67204C41.2403 8.68007 44.3508 8.27572 47.4509 8.48211C48.145 8.53074 48.7914 8.85161 49.2485 9.3744C49.7056 9.89719 49.9361 10.5793 49.8895 11.2711C49.8429 11.963 49.5229 12.6082 48.9998 13.0654C48.4767 13.5226 47.793 13.7544 47.0987 13.7101C42.2302 13.3871 37.4324 15.0043 33.7601 18.2061C30.0878 21.4078 27.8418 25.932 27.5158 30.7839C27.4722 31.4468 27.1772 32.0685 26.6907 32.5227C26.2042 32.9769 25.5625 33.2296 24.8959 33.2297Z" fill="white"/>
<path d="M19.7418 24.6945C19.3437 24.6932 18.951 24.602 18.5933 24.4277C18.2355 24.2535 17.9221 24.0007 17.6765 23.6883C17.4309 23.376 17.2595 23.0122 17.1753 22.6244C17.091 22.2365 17.0961 21.8347 17.19 21.4491C20.1001 9.85124 27.572 5.23689 27.8888 5.04511C28.4838 4.69833 29.1916 4.59832 29.8599 4.76662C30.5282 4.93491 31.1034 5.35805 31.4617 5.9449C31.8199 6.53174 31.9326 7.23535 31.7754 7.90419C31.6182 8.57302 31.2037 9.15357 30.6212 9.5208C30.3489 9.69193 24.6413 13.3563 22.2907 22.7207C22.1461 23.2851 21.8171 23.7854 21.3556 24.1428C20.8941 24.5002 20.3263 24.6943 19.7418 24.6945Z" fill="white"/>
<path d="M32.4152 2.34256C32.3602 2.85782 32.4597 3.37778 32.7011 3.83668C32.9426 4.29558 33.3152 4.67281 33.7718 4.92067C34.2284 5.16854 34.7485 5.27589 35.2663 5.22917C35.7841 5.18245 36.2764 4.98374 36.6809 4.65819C37.0854 4.33263 37.3839 3.89484 37.5388 3.40017C37.6936 2.90551 37.6978 2.3762 37.5508 1.87917C37.4038 1.38214 37.1122 0.939717 36.7129 0.607849C36.3136 0.27598 35.8245 0.0695719 35.3075 0.0147257C34.6142 -0.0588191 33.92 0.145115 33.3776 0.581667C32.8352 1.01822 32.489 1.65163 32.4152 2.34256Z" fill="white"/>
<path d="M53.4131 9.64757C53.0213 9.98843 52.7397 10.4375 52.604 10.9379C52.4683 11.4383 52.4846 11.9675 52.6509 12.4587C52.8171 12.9499 53.1258 13.3808 53.5378 13.6971C53.9499 14.0134 54.4469 14.2007 54.9658 14.2354C55.4848 14.2701 56.0024 14.1506 56.4531 13.892C56.9039 13.6335 57.2676 13.2474 57.4982 12.7828C57.7287 12.3182 57.8158 11.7958 57.7484 11.2819C57.681 10.7679 57.4622 10.2854 57.1195 9.8954C56.8926 9.63649 56.6166 9.42469 56.3075 9.2721C55.9983 9.11951 55.6621 9.02913 55.3179 9.00611C54.9737 8.9831 54.6283 9.0279 54.3015 9.13797C53.9746 9.24803 53.6728 9.4212 53.4131 9.64757Z" fill="white"/>
<path d="M58.6027 49.2355C58.5435 49.2355 58.4843 49.2355 58.4251 49.2355C58.0805 49.213 57.7437 49.123 57.4341 48.9706C57.1245 48.8182 56.8481 48.6065 56.6207 48.3475C56.3932 48.0886 56.2193 47.7874 56.1088 47.4614C55.9984 47.1353 55.9535 46.7907 55.9768 46.4474C56.3009 41.5949 54.6778 36.8129 51.4646 33.153C48.2513 29.493 43.711 27.2549 38.8422 26.9308C38.497 26.9088 38.1595 26.819 37.8492 26.6668C37.5388 26.5146 37.2617 26.3028 37.0336 26.0436C36.8055 25.7844 36.631 25.4829 36.5201 25.1563C36.4092 24.8298 36.364 24.4846 36.3872 24.1407C36.4104 23.7967 36.5014 23.4607 36.6552 23.1518C36.8089 22.843 37.0223 22.5675 37.2831 22.341C37.5439 22.1145 37.847 21.9415 38.175 21.832C38.5029 21.7225 38.8494 21.6786 39.1945 21.7027C45.454 22.12 51.291 24.9978 55.4219 29.7034C59.5528 34.409 61.6393 40.557 61.2226 46.7955C61.1776 47.458 60.8822 48.0788 60.396 48.5327C59.9098 48.9867 59.2689 49.2399 58.6027 49.2414" fill="white"/>
<path d="M62.4364 31.2738C61.9861 31.2745 61.5432 31.1598 61.1502 30.9408C60.7573 30.7217 60.4274 30.4056 60.1924 30.0228C60.0207 29.7514 56.3439 24.0631 46.9477 21.7176C46.6035 21.6431 46.2778 21.5005 45.99 21.2982C45.7022 21.0959 45.4582 20.838 45.2723 20.5398C45.0865 20.2417 44.9626 19.9093 44.9081 19.5626C44.8536 19.2158 44.8696 18.8617 44.9551 18.5212C45.0407 18.1807 45.194 17.8608 45.4059 17.5804C45.6179 17.3001 45.8842 17.0651 46.1891 16.8894C46.494 16.7137 46.8311 16.6008 47.1806 16.5574C47.5301 16.5141 47.8848 16.5411 48.2236 16.6371C59.8608 19.5373 64.4909 26.984 64.6833 27.2996C64.9239 27.6968 65.0544 28.1505 65.0614 28.6144C65.0684 29.0784 64.9517 29.5358 64.7231 29.94C64.4946 30.3442 64.1625 30.6807 63.7607 30.915C63.3589 31.1494 62.9019 31.2732 62.4364 31.2738Z" fill="white"/>
<path d="M67.3831 31.8077C66.8661 31.7528 66.3444 31.852 65.884 32.0927C65.4235 32.3333 65.045 32.7046 64.7963 33.1597C64.5476 33.6147 64.4398 34.1331 64.4867 34.6491C64.5336 35.1652 64.733 35.6558 65.0597 36.0589C65.3863 36.4621 65.8256 36.7596 66.3219 36.9139C66.8183 37.0682 67.3494 37.0724 67.8481 36.9259C68.3468 36.7794 68.7907 36.4888 69.1237 36.0908C69.4567 35.6929 69.6638 35.2055 69.7189 34.6902C69.7927 33.9993 69.588 33.3074 69.15 32.7668C68.712 32.2263 68.0764 31.8813 67.3831 31.8077Z" fill="white"/>
<path d="M60.0533 52.7316C59.711 52.3415 59.2604 52.0613 58.7584 51.9265C58.2564 51.7916 57.7255 51.8081 57.2329 51.974C56.7403 52.1398 56.3082 52.4475 55.991 52.8581C55.6739 53.2687 55.4861 53.7638 55.4513 54.2809C55.4165 54.7979 55.5364 55.3135 55.7956 55.7627C56.0549 56.2118 56.4421 56.5742 56.908 56.8041C57.374 57.034 57.8979 57.121 58.4135 57.0541C58.9291 56.9872 59.4132 56.7695 59.8046 56.4284C60.3294 55.971 60.6505 55.3246 60.6971 54.6313C60.7438 53.9381 60.5122 53.2547 60.0533 52.7316Z" fill="white"/>
<path d="M88.6771 27.0519C91.4835 27.0519 93.1177 25.382 93.1177 23.2164V23.1426C93.1177 20.6348 91.3681 19.3072 88.5617 19.3072H84.2277V27.0519H88.6771ZM78.6118 17.0206C78.6091 16.6526 78.6798 16.2876 78.8198 15.9471C78.9599 15.6065 79.1665 15.2971 79.4277 15.0368C79.6888 14.7765 79.9993 14.5706 80.341 14.431C80.6828 14.2914 81.049 14.221 81.4183 14.2237H89.0383C95.1248 14.2237 98.8075 17.8202 98.8075 23.0158V23.0895C98.8075 28.9725 94.213 32.0262 88.4906 32.0262H84.2277V37.0742C84.2277 37.8176 83.9314 38.5305 83.4039 39.0561C82.8765 39.5818 82.1612 39.8771 81.4153 39.8771C80.6694 39.8771 79.9541 39.5818 79.4267 39.0561C78.8993 38.5305 78.603 37.8176 78.603 37.0742L78.6118 17.0206Z" fill="white"/>
<path d="M102.964 16.8791C102.961 16.511 103.032 16.1461 103.172 15.8055C103.312 15.4649 103.519 15.1555 103.78 14.8952C104.041 14.6349 104.351 14.429 104.693 14.2894C105.035 14.1498 105.401 14.0794 105.77 14.0821H106.392C106.909 14.0742 107.418 14.2047 107.867 14.4601C108.316 14.7154 108.688 15.0862 108.944 15.5337L115.723 26.5533L122.532 15.5101C122.777 15.0646 123.143 14.6961 123.587 14.446C124.031 14.1958 124.536 14.0739 125.045 14.0939H125.664C126.034 14.0908 126.4 14.161 126.742 14.3004C127.084 14.4398 127.395 14.6456 127.657 14.9059C127.918 15.1663 128.125 15.4758 128.265 15.8166C128.405 16.1574 128.476 16.5226 128.473 16.8909V37.089C128.473 37.454 128.401 37.8154 128.261 38.1526C128.121 38.4898 127.916 38.7962 127.657 39.0542C127.398 39.3123 127.09 39.517 126.752 39.6567C126.414 39.7964 126.051 39.8682 125.685 39.8682C125.319 39.8682 124.956 39.7964 124.618 39.6567C124.279 39.517 123.972 39.3123 123.713 39.0542C123.454 38.7962 123.248 38.4898 123.108 38.1526C122.968 37.8154 122.896 37.454 122.896 37.089V24.4025L117.973 31.9583C117.381 32.8434 116.662 33.3745 115.64 33.3745C114.619 33.3745 113.891 32.8316 113.307 31.9583L108.47 24.5087V37.151C108.469 37.5116 108.397 37.8685 108.257 38.2011C108.117 38.5336 107.912 38.8352 107.655 39.0885C107.397 39.3417 107.091 39.5415 106.756 39.6764C106.42 39.8112 106.061 39.8784 105.699 39.8741C105.339 39.8781 104.982 39.8104 104.648 39.675C104.315 39.5395 104.012 39.3391 103.757 39.0855C103.503 38.8319 103.301 38.5301 103.165 38.198C103.029 37.8658 102.96 37.5098 102.964 37.151V16.8791Z" fill="white"/>
<path d="M134.888 16.8194C134.888 16.0761 135.184 15.3632 135.711 14.8375C136.239 14.3119 136.954 14.0166 137.7 14.0166C138.446 14.0166 139.161 14.3119 139.688 14.8375C140.216 15.3632 140.512 16.0761 140.512 16.8194V37.0913C140.512 37.8347 140.216 38.5476 139.688 39.0733C139.161 39.5989 138.446 39.8942 137.7 39.8942C136.954 39.8942 136.239 39.5989 135.711 39.0733C135.184 38.5476 134.888 37.8347 134.888 37.0913V16.8194Z" fill="white"/>
<path d="M146.88 17.0258C146.877 16.6577 146.948 16.2928 147.088 15.9522C147.228 15.6116 147.435 15.3022 147.696 15.0419C147.957 14.7816 148.267 14.5757 148.609 14.4361C148.951 14.2966 149.317 14.2261 149.686 14.2288H163.976C164.653 14.2288 165.302 14.4968 165.781 14.9737C166.259 15.4507 166.528 16.0975 166.528 16.772C166.528 17.4465 166.259 18.0934 165.781 18.5704C165.302 19.0473 164.653 19.3153 163.976 19.3153H152.493V24.7292H162.336C163.013 24.7292 163.662 24.9971 164.14 25.474C164.619 25.951 164.888 26.5979 164.888 27.2724C164.888 27.9469 164.619 28.5937 164.14 29.0707C163.662 29.5476 163.013 29.8156 162.336 29.8156H152.493V37.0794C152.493 37.8227 152.197 38.5356 151.669 39.0613C151.142 39.5869 150.426 39.8822 149.68 39.8822C148.935 39.8822 148.219 39.5869 147.692 39.0613C147.164 38.5356 146.868 37.8227 146.868 37.0794L146.88 17.0258Z" fill="white"/>
<path d="M80.2933 46.4799C80.3855 46.4915 80.4791 46.4836 80.568 46.4567C80.6568 46.4299 80.739 46.3846 80.8092 46.3239C80.8793 46.2632 80.9358 46.1884 80.975 46.1044C81.0141 46.0205 81.035 45.9293 81.0364 45.8367C81.0364 45.4177 80.7403 45.1935 80.2756 45.1935H79.5414V46.4917L80.2933 46.4799ZM78.6148 44.807C78.614 44.7454 78.6255 44.6843 78.6487 44.6272C78.6719 44.5702 78.7063 44.5183 78.7499 44.4746C78.7934 44.4309 78.8453 44.3963 78.9024 44.3729C78.9595 44.3494 79.0208 44.3375 79.0825 44.3379H80.3555C81.3709 44.3379 81.9867 44.928 81.9867 45.8131C81.9867 46.7955 81.2199 47.2883 80.2637 47.2883H79.5414V48.1321C79.532 48.2497 79.4785 48.3594 79.3915 48.4395C79.3046 48.5195 79.1906 48.564 79.0722 48.564C78.9538 48.564 78.8398 48.5195 78.7528 48.4395C78.6658 48.3594 78.6123 48.2497 78.603 48.1321L78.6148 44.807Z" fill="white"/>
<path d="M84.7724 46.8073L84.1803 45.4059L83.5882 46.8073H84.7724ZM82.1376 47.9874L83.6178 44.6476C83.662 44.5389 83.7377 44.4457 83.8352 44.38C83.9328 44.3143 84.0478 44.2791 84.1655 44.2789H84.2217C84.3391 44.2774 84.4541 44.312 84.551 44.378C84.648 44.444 84.7222 44.5382 84.7635 44.6476L86.2437 47.9874C86.2793 48.0542 86.2968 48.1292 86.2944 48.2048C86.2921 48.2804 86.2699 48.3541 86.23 48.4185C86.1902 48.483 86.1342 48.5359 86.0675 48.5721C86.0009 48.6082 85.9259 48.6264 85.85 48.6247C85.7503 48.6247 85.6531 48.5937 85.5719 48.536C85.4908 48.4784 85.4296 48.397 85.397 48.3031L85.101 47.6364H83.2271L82.931 48.3356C82.8974 48.4226 82.8381 48.4974 82.761 48.5501C82.6838 48.6028 82.5924 48.6309 82.4988 48.6306C82.4414 48.631 82.3846 48.62 82.3316 48.5981C82.2785 48.5762 82.2305 48.544 82.1902 48.5033C82.1499 48.4626 82.1182 48.4142 82.097 48.3611C82.0757 48.308 82.0654 48.2511 82.0666 48.194C82.0718 48.124 82.0909 48.0558 82.1228 47.9934" fill="white"/>
<path d="M88.9199 46.4002C89.3787 46.4002 89.6392 46.1583 89.6392 45.8102V45.7954C89.6392 45.3971 89.358 45.1906 88.9021 45.1906H87.9725V46.4091L88.9199 46.4002ZM87.0341 44.807C87.0333 44.7455 87.0449 44.6843 87.068 44.6273C87.0912 44.5702 87.1256 44.5183 87.1692 44.4746C87.2127 44.4309 87.2646 44.3964 87.3217 44.3729C87.3788 44.3494 87.4401 44.3375 87.5018 44.3379H88.982C89.2071 44.3241 89.4327 44.3551 89.6457 44.429C89.8586 44.503 90.0547 44.6184 90.2224 44.7687C90.3456 44.8978 90.4415 45.0503 90.5045 45.217C90.5676 45.3837 90.5965 45.5613 90.5895 45.7393C90.6048 46.0173 90.5302 46.2928 90.3768 46.5254C90.2233 46.758 89.9991 46.9354 89.7369 47.0316L90.3882 47.8193C90.4811 47.9156 90.5349 48.0428 90.5392 48.1763C90.5388 48.2338 90.527 48.2906 90.5044 48.3435C90.4818 48.3963 90.4489 48.4442 90.4076 48.4843C90.3662 48.5243 90.3173 48.5558 90.2637 48.5769C90.2101 48.598 90.1528 48.6083 90.0951 48.6071C90.0042 48.6072 89.9147 48.5852 89.8342 48.5431C89.7537 48.5009 89.6848 48.4398 89.6333 48.3652L88.7215 47.2145H87.9725V48.1409C87.9632 48.2585 87.9097 48.3683 87.8227 48.4484C87.7357 48.5284 87.6217 48.5729 87.5033 48.5729C87.3849 48.5729 87.2709 48.5284 87.1839 48.4484C87.097 48.3683 87.0435 48.2585 87.0341 48.1409V44.807Z" fill="white"/>
<path d="M92.4249 45.1994H91.5368C91.4801 45.1994 91.4239 45.1883 91.3714 45.1666C91.319 45.145 91.2713 45.1132 91.2312 45.0732C91.1911 45.0332 91.1592 44.9857 91.1375 44.9335C91.1158 44.8812 91.1046 44.8252 91.1046 44.7686C91.1046 44.7121 91.1158 44.6561 91.1375 44.6038C91.1592 44.5515 91.1911 44.5041 91.2312 44.4641C91.2713 44.4241 91.319 44.3923 91.3714 44.3707C91.4239 44.349 91.4801 44.3379 91.5368 44.3379H94.2752C94.3898 44.3379 94.4997 44.3833 94.5808 44.4641C94.6619 44.5448 94.7074 44.6544 94.7074 44.7686C94.7074 44.8829 94.6619 44.9924 94.5808 45.0732C94.4997 45.154 94.3898 45.1994 94.2752 45.1994H93.3723V48.1498C93.3723 48.2734 93.323 48.392 93.2353 48.4794C93.1475 48.5668 93.0286 48.6159 92.9045 48.6159C92.7805 48.6159 92.6615 48.5668 92.5738 48.4794C92.4861 48.392 92.4368 48.2734 92.4368 48.1498L92.4249 45.1994Z" fill="white"/>
<path d="M95.3764 44.7805C95.3756 44.719 95.3872 44.6581 95.4104 44.6011C95.4336 44.5442 95.4681 44.4925 95.5117 44.4491C95.5553 44.4056 95.6071 44.3713 95.6642 44.3482C95.7213 44.325 95.7825 44.3135 95.8442 44.3143H95.9419C96.0395 44.3151 96.1354 44.3408 96.2203 44.3888C96.3053 44.4368 96.3765 44.5056 96.4274 44.5887L98.2362 46.949V44.7598C98.2362 44.6378 98.2848 44.5207 98.3714 44.4344C98.458 44.3481 98.5755 44.2996 98.698 44.2996C98.8205 44.2996 98.9379 44.3481 99.0245 44.4344C99.1111 44.5207 99.1598 44.6378 99.1598 44.7598V48.138C99.1602 48.1993 99.1484 48.2601 99.125 48.3168C99.1016 48.3736 99.0672 48.4251 99.0237 48.4685C98.9802 48.5118 98.9284 48.5462 98.8715 48.5694C98.8146 48.5927 98.7536 48.6045 98.6921 48.6041H98.6595C98.5624 48.602 98.4674 48.5762 98.3827 48.5288C98.2981 48.4815 98.2264 48.4141 98.174 48.3327L96.3001 45.881V48.1557C96.3001 48.2777 96.2514 48.3948 96.1648 48.4811C96.0782 48.5674 95.9607 48.6159 95.8383 48.6159C95.7158 48.6159 95.5983 48.5674 95.5117 48.4811C95.4251 48.3948 95.3764 48.2777 95.3764 48.1557V44.7805Z" fill="white"/>
<path d="M100.181 48.1173V44.8041C100.181 44.7427 100.193 44.6819 100.216 44.6252C100.239 44.5685 100.274 44.5169 100.317 44.4736C100.361 44.4302 100.412 44.3959 100.469 44.3726C100.526 44.3493 100.587 44.3375 100.649 44.3379H103.017C103.128 44.3387 103.235 44.3831 103.314 44.4615C103.392 44.5399 103.437 44.646 103.438 44.7569C103.437 44.8115 103.426 44.8655 103.405 44.9158C103.383 44.9661 103.352 45.0118 103.313 45.0501C103.274 45.0885 103.228 45.1188 103.177 45.1394C103.126 45.1599 103.072 45.1703 103.017 45.1699H101.12V46.0255H102.742C102.853 46.0255 102.96 46.0696 103.039 46.1482C103.118 46.2268 103.162 46.3333 103.162 46.4445C103.162 46.4991 103.151 46.5531 103.13 46.6035C103.109 46.6538 103.078 46.6994 103.039 46.7376C102.999 46.7758 102.953 46.8058 102.902 46.8259C102.851 46.846 102.797 46.8557 102.742 46.8546H101.12V47.7397H103.047C103.158 47.7404 103.264 47.7848 103.343 47.8632C103.422 47.9416 103.466 48.0477 103.467 48.1586C103.467 48.2132 103.456 48.2673 103.434 48.3176C103.413 48.3679 103.382 48.4136 103.343 48.4519C103.304 48.4903 103.258 48.5206 103.207 48.5411C103.156 48.5617 103.102 48.5721 103.047 48.5717H100.649C100.587 48.5721 100.526 48.5603 100.469 48.537C100.412 48.5137 100.361 48.4794 100.317 48.436C100.274 48.3926 100.239 48.3411 100.216 48.2844C100.193 48.2276 100.181 48.1668 100.181 48.1055" fill="white"/>
<path d="M106.143 46.4003C106.599 46.4003 106.863 46.1584 106.863 45.8103V45.7955C106.863 45.3972 106.567 45.1907 106.126 45.1907H105.196V46.4092L106.143 46.4003ZM104.258 44.8071C104.257 44.7456 104.268 44.6845 104.291 44.6274C104.315 44.5703 104.349 44.5184 104.393 44.4747C104.436 44.431 104.488 44.3965 104.545 44.373C104.602 44.3495 104.664 44.3376 104.725 44.338H106.205C106.431 44.3245 106.656 44.3557 106.869 44.4296C107.082 44.5035 107.278 44.6188 107.446 44.7688C107.568 44.8982 107.664 45.0507 107.726 45.2174C107.789 45.3841 107.817 45.5616 107.81 45.7394C107.826 46.0171 107.752 46.2926 107.599 46.5253C107.446 46.7579 107.222 46.9354 106.96 47.0317L107.609 47.8195C107.702 47.9154 107.757 48.0426 107.763 48.1764C107.762 48.2339 107.75 48.2907 107.728 48.3436C107.705 48.3964 107.672 48.4443 107.631 48.4844C107.59 48.5245 107.541 48.5559 107.487 48.577C107.434 48.5981 107.376 48.6084 107.319 48.6072C107.228 48.6073 107.138 48.5853 107.058 48.5432C106.977 48.501 106.908 48.4399 106.857 48.3653L105.942 47.2146H105.196V48.141C105.187 48.2586 105.133 48.3684 105.046 48.4485C104.959 48.5285 104.845 48.573 104.727 48.573C104.608 48.573 104.494 48.5285 104.407 48.4485C104.32 48.3684 104.267 48.2586 104.258 48.141V44.8071Z" fill="white"/>
<path d="M108.571 48.135C108.516 48.0943 108.471 48.0413 108.44 47.9804C108.41 47.9195 108.393 47.8522 108.393 47.784C108.393 47.7268 108.404 47.6701 108.426 47.6173C108.448 47.5644 108.48 47.5165 108.521 47.4764C108.562 47.4362 108.61 47.4046 108.664 47.3835C108.717 47.3623 108.774 47.352 108.831 47.3532C108.928 47.3519 109.023 47.3819 109.101 47.4388C109.412 47.6816 109.795 47.8154 110.19 47.8194C110.572 47.8194 110.803 47.6689 110.803 47.4181C110.803 47.1821 110.658 47.0611 109.947 46.8782C109.089 46.6599 108.535 46.4238 108.535 45.58C108.535 44.81 109.154 44.3025 110.015 44.3025C110.493 44.2953 110.963 44.4254 111.368 44.6772C111.448 44.7276 111.509 44.8024 111.542 44.8902C111.575 44.9781 111.579 45.0743 111.552 45.1644C111.526 45.2546 111.471 45.3337 111.396 45.3901C111.32 45.4464 111.229 45.4768 111.135 45.4768C111.051 45.4765 110.969 45.4541 110.898 45.4119C110.634 45.2351 110.327 45.1331 110.01 45.1168C109.651 45.1168 109.462 45.282 109.462 45.4886C109.462 45.7659 109.645 45.8574 110.383 46.0462C111.244 46.2704 111.733 46.5802 111.733 47.3178C111.733 48.1616 111.087 48.6366 110.169 48.6366C109.595 48.6369 109.035 48.4584 108.568 48.1262" fill="white"/>
<path d="M112.55 44.7686C112.559 44.651 112.612 44.5412 112.699 44.4612C112.786 44.3811 112.9 44.3367 113.019 44.3367C113.137 44.3367 113.251 44.3811 113.338 44.4612C113.425 44.5412 113.479 44.651 113.488 44.7686V46.0255H115.214V44.7745C115.223 44.6569 115.277 44.5471 115.364 44.4671C115.451 44.387 115.565 44.3426 115.683 44.3426C115.801 44.3426 115.916 44.387 116.002 44.4671C116.089 44.5471 116.143 44.6569 116.152 44.7745V48.1586C116.143 48.2762 116.089 48.3859 116.002 48.466C115.916 48.546 115.801 48.5905 115.683 48.5905C115.565 48.5905 115.451 48.546 115.364 48.466C115.277 48.3859 115.223 48.2762 115.214 48.1586V46.884H113.488V48.1586C113.479 48.2762 113.425 48.3859 113.338 48.466C113.251 48.546 113.137 48.5905 113.019 48.5905C112.9 48.5905 112.786 48.546 112.699 48.466C112.612 48.3859 112.559 48.2762 112.55 48.1586V44.7686Z" fill="white"/>
<path d="M117.215 44.7686C117.224 44.651 117.278 44.5412 117.365 44.4612C117.452 44.3811 117.566 44.3367 117.684 44.3367C117.803 44.3367 117.917 44.3811 118.004 44.4612C118.091 44.5412 118.144 44.651 118.154 44.7686V48.1527C118.144 48.2703 118.091 48.38 118.004 48.4601C117.917 48.5401 117.803 48.5846 117.684 48.5846C117.566 48.5846 117.452 48.5401 117.365 48.4601C117.278 48.38 117.224 48.2703 117.215 48.1527V44.7686Z" fill="white"/>
<path d="M120.898 46.4799C120.99 46.491 121.083 46.4828 121.172 46.4557C121.26 46.4287 121.342 46.3833 121.412 46.3227C121.481 46.262 121.538 46.1874 121.577 46.1037C121.616 46.0199 121.637 45.929 121.638 45.8367C121.638 45.4177 121.342 45.1935 120.877 45.1935H120.155V46.4917L120.898 46.4799ZM119.21 44.807C119.21 44.7453 119.222 44.6841 119.245 44.627C119.269 44.5699 119.304 44.5181 119.347 44.4744C119.391 44.4308 119.443 44.3962 119.501 44.3728C119.558 44.3494 119.619 44.3375 119.681 44.3379H120.951C121.967 44.3379 122.582 44.928 122.582 45.8131C122.582 46.7955 121.816 47.2883 120.859 47.2883H120.149V48.1321C120.139 48.2497 120.086 48.3594 119.999 48.4395C119.912 48.5195 119.798 48.564 119.68 48.564C119.561 48.564 119.447 48.5195 119.36 48.4395C119.273 48.3594 119.22 48.2497 119.21 48.1321V44.807Z" fill="white"/>
<path d="M125.107 44.807C125.107 44.7454 125.118 44.6843 125.141 44.6272C125.165 44.5702 125.199 44.5183 125.243 44.4746C125.286 44.4309 125.338 44.3963 125.395 44.3729C125.452 44.3494 125.513 44.3375 125.575 44.3379H127.961C128.074 44.3379 128.183 44.3827 128.263 44.4623C128.343 44.542 128.388 44.6501 128.388 44.7628C128.388 44.8754 128.343 44.9835 128.263 45.0632C128.183 45.1428 128.074 45.1876 127.961 45.1876H126.043V46.0904H127.686C127.799 46.0904 127.907 46.1352 127.987 46.2148C128.067 46.2945 128.112 46.4026 128.112 46.5153C128.112 46.6279 128.067 46.736 127.987 46.8157C127.907 46.8954 127.799 46.9401 127.686 46.9401H126.043V48.1527C126.043 48.2763 125.994 48.3949 125.906 48.4823C125.818 48.5698 125.699 48.6189 125.575 48.6189C125.451 48.6189 125.332 48.5698 125.244 48.4823C125.157 48.3949 125.107 48.2763 125.107 48.1527V44.807Z" fill="white"/>
<path d="M132.484 46.4761C132.49 46.3035 132.461 46.1314 132.399 45.97C132.337 45.8087 132.243 45.6614 132.123 45.5368C132.003 45.4122 131.859 45.3128 131.7 45.2446C131.541 45.1764 131.369 45.1407 131.196 45.1396C131.024 45.139 130.853 45.1733 130.694 45.2403C130.535 45.3074 130.392 45.4057 130.272 45.5295C130.153 45.6533 130.06 45.8 129.999 45.9607C129.938 46.1213 129.91 46.2926 129.917 46.4643C129.911 46.6371 129.94 46.8092 130.002 46.9706C130.064 47.132 130.158 47.2793 130.279 47.4037C130.399 47.5281 130.544 47.6271 130.703 47.6948C130.863 47.7625 131.034 47.7976 131.208 47.7979C131.38 47.7984 131.55 47.7642 131.708 47.6973C131.867 47.6305 132.01 47.5323 132.129 47.4088C132.248 47.2852 132.341 47.1389 132.402 46.9786C132.463 46.8183 132.491 46.6474 132.484 46.4761ZM128.931 46.4761C128.931 46.182 128.99 45.8909 129.105 45.6201C129.22 45.3493 129.388 45.1042 129.6 44.8995C129.812 44.6947 130.063 44.5345 130.338 44.4282C130.613 44.322 130.907 44.2719 131.202 44.281C131.495 44.2711 131.788 44.3203 132.062 44.4257C132.335 44.5311 132.585 44.6904 132.796 44.8943C133.006 45.0982 133.174 45.3423 133.287 45.6121C133.401 45.8818 133.459 46.1717 133.458 46.4643C133.436 47.0484 133.189 47.6015 132.767 48.0073C132.344 48.413 131.781 48.6397 131.194 48.6397C130.608 48.6397 130.044 48.413 129.622 48.0073C129.2 47.6015 128.952 47.0484 128.931 46.4643" fill="white"/>
<path d="M136.184 46.4024C136.64 46.4024 136.901 46.1605 136.901 45.8124V45.7976C136.901 45.3993 136.622 45.1928 136.163 45.1928H135.225V46.4113L136.184 46.4024ZM134.295 44.8092C134.295 44.7475 134.307 44.6863 134.33 44.6292C134.354 44.5722 134.389 44.5203 134.432 44.4766C134.476 44.433 134.528 44.3985 134.586 44.375C134.643 44.3516 134.704 44.3397 134.766 44.3401H136.246C136.471 44.3263 136.697 44.3573 136.91 44.4312C137.123 44.5052 137.319 44.6206 137.487 44.7709C137.61 44.8996 137.707 45.052 137.77 45.2188C137.833 45.3856 137.861 45.5634 137.854 45.7415C137.87 46.0197 137.796 46.2956 137.642 46.5284C137.489 46.7612 137.264 46.9384 137.001 47.0338L137.652 47.8215C137.745 47.9178 137.799 48.045 137.803 48.1785C137.803 48.236 137.791 48.2928 137.769 48.3457C137.746 48.3985 137.713 48.4464 137.672 48.4865C137.631 48.5265 137.582 48.558 137.528 48.5791C137.474 48.6002 137.417 48.6105 137.359 48.6093C137.268 48.6094 137.179 48.5874 137.098 48.5453C137.018 48.5031 136.949 48.442 136.898 48.3674L135.986 47.2167H135.225V48.1431C135.216 48.2607 135.162 48.3705 135.075 48.4506C134.988 48.5306 134.874 48.5751 134.756 48.5751C134.637 48.5751 134.523 48.5306 134.436 48.4506C134.349 48.3705 134.296 48.2607 134.287 48.1431L134.295 44.8092Z" fill="white"/>
<path d="M140.521 44.7827C140.521 44.7213 140.533 44.6605 140.556 44.6038C140.579 44.5471 140.614 44.4955 140.657 44.4522C140.701 44.4088 140.752 44.3745 140.809 44.3512C140.866 44.3279 140.927 44.3161 140.989 44.3165H141.092C141.179 44.3152 141.264 44.3369 141.339 44.3794C141.414 44.422 141.476 44.4838 141.519 44.5584L142.65 46.3965L143.789 44.5525C143.83 44.4784 143.891 44.417 143.964 44.3753C144.038 44.3336 144.122 44.3133 144.207 44.3165H144.31C144.372 44.3157 144.433 44.3272 144.49 44.3504C144.547 44.3735 144.599 44.4078 144.643 44.4513C144.686 44.4947 144.721 44.5464 144.744 44.6033C144.767 44.6602 144.779 44.7212 144.778 44.7827V48.1549C144.778 48.2778 144.729 48.3956 144.642 48.4824C144.555 48.5693 144.437 48.6181 144.313 48.6181C144.19 48.6181 144.072 48.5693 143.985 48.4824C143.898 48.3956 143.849 48.2778 143.849 48.1549V46.0277L143.026 47.2875C142.988 47.358 142.933 47.4172 142.864 47.4587C142.796 47.5002 142.718 47.5226 142.638 47.5235C142.557 47.5222 142.479 47.4997 142.41 47.4582C142.342 47.4168 142.285 47.3578 142.247 47.2875L141.442 46.0572V48.1667C141.442 48.2269 141.43 48.2864 141.407 48.342C141.383 48.3975 141.349 48.4478 141.306 48.4901C141.263 48.5324 141.212 48.5657 141.156 48.5882C141.1 48.6107 141.04 48.6218 140.98 48.6211C140.92 48.6219 140.86 48.6106 140.805 48.5881C140.749 48.5655 140.698 48.5321 140.656 48.4898C140.613 48.4474 140.58 48.397 140.557 48.3415C140.535 48.286 140.523 48.2266 140.524 48.1667L140.521 44.7827Z" fill="white"/>
<path d="M148.197 46.8095L147.605 45.4081L147.013 46.8095H148.197ZM145.563 47.9897L147.043 44.6499C147.087 44.5411 147.163 44.4479 147.26 44.3822C147.358 44.3165 147.473 44.2813 147.59 44.2811H147.659C147.776 44.2792 147.891 44.3137 147.988 44.3797C148.085 44.4458 148.159 44.5401 148.2 44.6499L149.68 47.9897C149.709 48.0487 149.725 48.113 149.728 48.1785C149.729 48.2371 149.718 48.2953 149.696 48.3497C149.674 48.404 149.641 48.4535 149.6 48.4953C149.559 48.537 149.509 48.5701 149.455 48.5927C149.401 48.6153 149.343 48.627 149.284 48.627C149.185 48.6245 149.09 48.5917 149.011 48.533C148.932 48.4744 148.873 48.3928 148.843 48.2995L148.547 47.6327H146.67L146.374 48.3319C146.34 48.4189 146.281 48.4937 146.204 48.5464C146.127 48.5991 146.035 48.6272 145.942 48.627C145.884 48.6274 145.827 48.6163 145.774 48.5944C145.721 48.5726 145.673 48.5403 145.633 48.4996C145.593 48.4589 145.561 48.4105 145.54 48.3574C145.518 48.3043 145.508 48.2475 145.509 48.1903C145.513 48.1205 145.532 48.0523 145.563 47.9897Z" fill="white"/>
<path d="M152.348 46.4026C152.804 46.4026 153.064 46.1606 153.064 45.8125V45.7977C153.064 45.3994 152.786 45.1929 152.33 45.1929H151.398V46.4114L152.348 46.4026ZM150.462 44.8094C150.461 44.7478 150.473 44.6867 150.496 44.6296C150.519 44.5725 150.554 44.5206 150.597 44.477C150.641 44.4333 150.692 44.3987 150.75 44.3752C150.807 44.3517 150.868 44.3399 150.93 44.3403H152.41C152.635 44.3267 152.861 44.3578 153.075 44.4317C153.288 44.5056 153.485 44.621 153.653 44.771C153.776 44.9004 153.871 45.0529 153.934 45.2196C153.996 45.3864 154.025 45.5639 154.017 45.7417C154.034 46.0198 153.96 46.2958 153.806 46.5286C153.652 46.7613 153.428 46.9386 153.165 47.0339L153.816 47.8217C153.91 47.9177 153.965 48.0448 153.97 48.1787C153.969 48.2363 153.957 48.2931 153.934 48.346C153.911 48.3989 153.878 48.4467 153.837 48.4868C153.795 48.5268 153.746 48.5583 153.692 48.5793C153.638 48.6004 153.581 48.6106 153.523 48.6094C153.432 48.609 153.343 48.5868 153.262 48.5447C153.182 48.5026 153.113 48.4418 153.061 48.3675L152.149 47.2169H151.4V48.1433C151.4 48.2669 151.351 48.3855 151.263 48.4729C151.176 48.5603 151.057 48.6094 150.933 48.6094C150.809 48.6094 150.69 48.5603 150.602 48.4729C150.514 48.3855 150.465 48.2669 150.465 48.1433L150.462 44.8094Z" fill="white"/>
<path d="M154.858 44.771C154.868 44.6534 154.921 44.5436 155.008 44.4636C155.095 44.3835 155.209 44.3391 155.327 44.3391C155.446 44.3391 155.56 44.3835 155.647 44.4636C155.734 44.5436 155.787 44.6534 155.797 44.771V46.196L157.525 44.4878C157.574 44.4312 157.635 44.3855 157.703 44.354C157.77 44.3225 157.844 44.3057 157.919 44.3049C157.976 44.3032 158.033 44.3133 158.087 44.3343C158.14 44.3554 158.188 44.3871 158.228 44.4274C158.269 44.4677 158.301 44.5159 158.322 44.5689C158.343 44.6219 158.353 44.6786 158.351 44.7356C158.35 44.8028 158.335 44.869 158.306 44.9295C158.276 44.9901 158.235 45.0438 158.183 45.0867L156.999 46.2019L158.307 47.8394C158.387 47.9301 158.432 48.0461 158.434 48.1669C158.435 48.2283 158.423 48.2893 158.4 48.346C158.376 48.4027 158.341 48.4539 158.296 48.4965C158.252 48.5391 158.199 48.5722 158.142 48.5936C158.084 48.6151 158.022 48.6245 157.961 48.6212C157.881 48.6207 157.802 48.5998 157.733 48.5606C157.664 48.5213 157.605 48.465 157.564 48.397L156.347 46.8097L155.811 47.3054V48.1551C155.802 48.2727 155.749 48.3824 155.662 48.4625C155.575 48.5426 155.461 48.587 155.342 48.587C155.224 48.587 155.11 48.5426 155.023 48.4625C154.936 48.3824 154.882 48.2727 154.873 48.1551L154.858 44.771Z" fill="white"/>
<path d="M159.204 48.1195V44.8063C159.203 44.7448 159.215 44.6839 159.238 44.627C159.261 44.57 159.296 44.5183 159.339 44.4749C159.383 44.4314 159.435 44.3971 159.492 44.374C159.549 44.3508 159.61 44.3393 159.672 44.3401H162.04C162.151 44.3409 162.258 44.3853 162.336 44.4637C162.415 44.5421 162.46 44.6482 162.46 44.7591C162.46 44.8137 162.449 44.8677 162.428 44.9181C162.406 44.9684 162.375 45.014 162.336 45.0524C162.297 45.0907 162.251 45.121 162.2 45.1416C162.149 45.1621 162.095 45.1725 162.04 45.1721H160.122V46.0277H161.747C161.858 46.0285 161.965 46.0729 162.043 46.1513C162.122 46.2297 162.167 46.3358 162.167 46.4467C162.167 46.5012 162.156 46.5551 162.134 46.6052C162.113 46.6554 162.082 46.7008 162.043 46.7389C162.004 46.7771 161.957 46.8071 161.907 46.8273C161.856 46.8476 161.802 46.8576 161.747 46.8568H160.122V47.7419H162.052C162.163 47.7427 162.269 47.7872 162.347 47.8656C162.425 47.9441 162.469 48.0502 162.469 48.1608C162.469 48.2153 162.458 48.2693 162.437 48.3196C162.416 48.3699 162.386 48.4156 162.347 48.454C162.308 48.4923 162.262 48.5227 162.211 48.5433C162.161 48.5639 162.107 48.5743 162.052 48.5739H159.66C159.598 48.5747 159.537 48.5632 159.48 48.54C159.423 48.5169 159.371 48.4826 159.327 48.4391C159.284 48.3957 159.249 48.344 159.226 48.2871C159.203 48.2301 159.191 48.1692 159.192 48.1077" fill="white"/>
<path d="M164.26 45.2016H163.349C163.292 45.2016 163.236 45.1905 163.183 45.1688C163.131 45.1472 163.083 45.1154 163.043 45.0754C163.003 45.0354 162.971 44.9879 162.949 44.9357C162.927 44.8834 162.916 44.8274 162.916 44.7708C162.916 44.7143 162.927 44.6583 162.949 44.606C162.971 44.5537 163.003 44.5063 163.043 44.4663C163.083 44.4263 163.131 44.3945 163.183 44.3729C163.236 44.3512 163.292 44.3401 163.349 44.3401H166.087C166.144 44.3401 166.2 44.3512 166.252 44.3729C166.305 44.3945 166.352 44.4263 166.392 44.4663C166.433 44.5063 166.464 44.5537 166.486 44.606C166.508 44.6583 166.519 44.7143 166.519 44.7708C166.519 44.8274 166.508 44.8834 166.486 44.9357C166.464 44.9879 166.433 45.0354 166.392 45.0754C166.352 45.1154 166.305 45.1472 166.252 45.1688C166.2 45.1905 166.144 45.2016 166.087 45.2016H165.199V48.1519C165.199 48.2756 165.149 48.3942 165.062 48.4816C164.974 48.569 164.855 48.6181 164.731 48.6181C164.607 48.6181 164.488 48.569 164.4 48.4816C164.313 48.3942 164.263 48.2756 164.263 48.1519L164.26 45.2016Z" fill="white"/>
<path d="M78.6533 51.1031C78.6627 50.9855 78.7162 50.8757 78.8031 50.7956C78.8901 50.7156 79.0041 50.6711 79.1225 50.6711C79.2409 50.6711 79.3549 50.7156 79.4419 50.7956C79.5288 50.8757 79.5823 50.9855 79.5917 51.1031V54.4871C79.5823 54.6047 79.5288 54.7145 79.4419 54.7946C79.3549 54.8746 79.2409 54.9191 79.1225 54.9191C79.0041 54.9191 78.8901 54.8746 78.8031 54.7946C78.7162 54.7145 78.6627 54.6047 78.6533 54.4871V51.1031Z" fill="white"/>
<path d="M80.6574 51.1148C80.6571 51.0532 80.669 50.9922 80.6925 50.9353C80.7161 50.8783 80.7508 50.8267 80.7946 50.7832C80.8384 50.7398 80.8905 50.7056 80.9478 50.6825C81.005 50.6594 81.0664 50.6479 81.1281 50.6486H81.2318C81.3176 50.6475 81.4022 50.6694 81.4766 50.7119C81.5511 50.7545 81.6127 50.8162 81.6551 50.8906L82.7889 52.7286L83.9257 50.8847C83.9666 50.8101 84.0277 50.7484 84.102 50.7067C84.1763 50.665 84.2609 50.6449 84.3461 50.6486H84.4497C84.5112 50.6483 84.5722 50.66 84.6292 50.6833C84.6861 50.7066 84.7378 50.7409 84.7813 50.7843C84.8248 50.8277 84.8593 50.8792 84.8826 50.936C84.906 50.9927 84.9178 51.0535 84.9174 51.1148V54.4871C84.9174 54.6099 84.8685 54.7277 84.7813 54.8146C84.6941 54.9015 84.5759 54.9503 84.4527 54.9503C84.3294 54.9503 84.2112 54.9015 84.124 54.8146C84.0368 54.7277 83.9879 54.6099 83.9879 54.4871V52.3717L83.1649 53.6315C83.128 53.7026 83.0722 53.7623 83.0035 53.804C82.9348 53.8457 82.856 53.8678 82.7756 53.8678C82.6952 53.8678 82.6164 53.8457 82.5477 53.804C82.479 53.7623 82.4232 53.7026 82.3863 53.6315L81.5781 52.3894V54.4989C81.5688 54.6142 81.5163 54.7218 81.431 54.8003C81.3457 54.8787 81.2339 54.9223 81.1178 54.9223C81.0017 54.9223 80.8899 54.8787 80.8046 54.8003C80.7193 54.7218 80.6667 54.6142 80.6574 54.4989V51.1148Z" fill="white"/>
<path d="M87.6203 52.8114C87.7122 52.8226 87.8054 52.8144 87.894 52.7873C87.9825 52.7602 88.0643 52.7149 88.1341 52.6542C88.2039 52.5936 88.2601 52.519 88.2991 52.4352C88.3381 52.3515 88.359 52.2605 88.3604 52.1683C88.3604 51.7493 88.0643 51.5251 87.5995 51.5251H86.8772V52.8114H87.6203ZM85.9388 51.1356C85.9384 51.0741 85.9503 51.013 85.9738 50.9561C85.9974 50.8992 86.0321 50.8475 86.0759 50.8041C86.1197 50.7607 86.1718 50.7264 86.2291 50.7033C86.2864 50.6802 86.3477 50.6687 86.4095 50.6695H87.6795C88.6949 50.6695 89.3106 51.2595 89.3106 52.1446C89.3106 53.1271 88.5439 53.6375 87.5877 53.6375H86.8772V54.4813C86.8678 54.5989 86.8143 54.7087 86.7274 54.7888C86.6404 54.8688 86.5264 54.9133 86.408 54.9133C86.2896 54.9133 86.1756 54.8688 86.0886 54.7888C86.0017 54.7087 85.9481 54.5989 85.9388 54.4813V51.1356Z" fill="white"/>
<path d="M90.0034 51.1031C90.0127 50.9855 90.0662 50.8757 90.1532 50.7956C90.2402 50.7156 90.3542 50.6711 90.4726 50.6711C90.591 50.6711 90.705 50.7156 90.792 50.7956C90.8789 50.8757 90.9324 50.9855 90.9418 51.1031V54.0534H92.6736C92.7296 54.0534 92.785 54.0644 92.8368 54.0858C92.8885 54.1071 92.9355 54.1384 92.9751 54.1779C93.0146 54.2173 93.046 54.2642 93.0675 54.3157C93.0889 54.3672 93.0999 54.4225 93.0999 54.4783C93.0999 54.5341 93.0889 54.5893 93.0675 54.6409C93.046 54.6924 93.0146 54.7392 92.9751 54.7787C92.9355 54.8181 92.8885 54.8494 92.8368 54.8708C92.785 54.8921 92.7296 54.9031 92.6736 54.9031H90.4711C90.4093 54.9035 90.3481 54.8916 90.2909 54.8682C90.2338 54.8447 90.182 54.8101 90.1384 54.7664C90.0949 54.7228 90.0605 54.6709 90.0373 54.6138C90.0141 54.5567 90.0026 54.4956 90.0034 54.434V51.1031Z" fill="white"/>
<path d="M93.769 54.4488V51.1385C93.7686 51.0772 93.7804 51.0164 93.8038 50.9597C93.8271 50.9029 93.8616 50.8514 93.9051 50.808C93.9486 50.7647 94.0003 50.7303 94.0572 50.7071C94.1142 50.6838 94.1752 50.672 94.2367 50.6724H96.605C96.7162 50.6731 96.8227 50.7175 96.9014 50.7959C96.9801 50.8743 97.0246 50.9804 97.0254 51.0913C97.025 51.146 97.0138 51.2 96.9925 51.2503C96.9711 51.3006 96.9401 51.3463 96.901 51.3846C96.862 51.423 96.8158 51.4533 96.765 51.4738C96.7142 51.4944 96.6598 51.5048 96.605 51.5044H94.7074V52.3629H96.3297C96.4409 52.3637 96.5474 52.4081 96.6261 52.4865C96.7047 52.5649 96.7493 52.671 96.7501 52.7819C96.7497 52.8365 96.7385 52.8905 96.7171 52.9409C96.6958 52.9912 96.6647 53.0368 96.6257 53.0752C96.5867 53.1135 96.5404 53.1438 96.4896 53.1644C96.4388 53.1849 96.3845 53.1953 96.3297 53.1949H94.7074V54.08H96.6346C96.7458 54.0808 96.8523 54.1252 96.931 54.2036C97.0097 54.282 97.0542 54.3881 97.055 54.499C97.0546 54.5536 97.0434 54.6076 97.0221 54.658C97.0007 54.7083 96.9697 54.7539 96.9306 54.7923C96.8916 54.8306 96.8454 54.861 96.7946 54.8815C96.7438 54.9021 96.6894 54.9124 96.6346 54.912H94.2426C94.1808 54.9124 94.1196 54.9005 94.0625 54.8771C94.0053 54.8536 93.9535 54.819 93.9099 54.7753C93.8664 54.7317 93.832 54.6798 93.8088 54.6227C93.7856 54.5656 93.7741 54.5045 93.7749 54.4429" fill="white"/>
<path d="M97.8454 51.1148C97.845 51.0535 97.8568 50.9927 97.8802 50.936C97.9036 50.8792 97.938 50.8277 97.9815 50.7843C98.025 50.7409 98.0767 50.7066 98.1337 50.6833C98.1906 50.66 98.2516 50.6483 98.3131 50.6486H98.4167C98.503 50.6473 98.5881 50.669 98.663 50.7116C98.738 50.7541 98.8002 50.816 98.843 50.8906L99.9739 52.7286L101.114 50.8847C101.155 50.8101 101.216 50.7484 101.29 50.7067C101.364 50.665 101.449 50.6449 101.534 50.6486H101.635C101.696 50.6479 101.758 50.6594 101.815 50.6825C101.872 50.7056 101.924 50.7398 101.968 50.7832C102.012 50.8267 102.047 50.8783 102.07 50.9353C102.094 50.9922 102.106 51.0532 102.105 51.1148V54.4871C102.11 54.5512 102.102 54.6157 102.081 54.6765C102.06 54.7373 102.027 54.7931 101.983 54.8404C101.939 54.8876 101.886 54.9254 101.827 54.9512C101.768 54.977 101.704 54.9903 101.639 54.9903C101.575 54.9903 101.511 54.977 101.452 54.9512C101.392 54.9254 101.339 54.8876 101.295 54.8404C101.252 54.7931 101.218 54.7373 101.197 54.6765C101.176 54.6157 101.168 54.5512 101.173 54.4871V52.3717L100.353 53.6315C100.316 53.7026 100.26 53.7623 100.191 53.804C100.123 53.8457 100.044 53.8678 99.9635 53.8678C99.8831 53.8678 99.8043 53.8457 99.7356 53.804C99.667 53.7623 99.6111 53.7026 99.5743 53.6315L98.7631 52.3894V54.4989C98.7627 54.5589 98.7505 54.6183 98.727 54.6736C98.7036 54.729 98.6695 54.7792 98.6266 54.8214C98.5837 54.8636 98.5329 54.8969 98.4771 54.9195C98.4213 54.9422 98.3615 54.9536 98.3013 54.9532C98.2413 54.9536 98.1819 54.9421 98.1264 54.9194C98.0709 54.8967 98.0205 54.8633 97.978 54.821C97.9356 54.7787 97.9021 54.7285 97.8793 54.6732C97.8565 54.6179 97.845 54.5586 97.8454 54.4989V51.1148Z" fill="white"/>
<path d="M103.127 54.4488V51.1385C103.127 51.0772 103.138 51.0164 103.162 50.9597C103.185 50.9029 103.22 50.8514 103.263 50.808C103.307 50.7647 103.358 50.7303 103.415 50.7071C103.472 50.6838 103.533 50.672 103.595 50.6724H105.963C106.074 50.6732 106.18 50.7176 106.258 50.7961C106.337 50.8746 106.38 50.9807 106.38 51.0913C106.38 51.1458 106.37 51.1998 106.349 51.2501C106.328 51.3004 106.297 51.346 106.258 51.3844C106.219 51.4228 106.173 51.4532 106.122 51.4738C106.072 51.4944 106.018 51.5048 105.963 51.5044H104.062V52.3629H105.688C105.799 52.3637 105.905 52.4081 105.984 52.4865C106.063 52.5649 106.107 52.671 106.108 52.7819C106.108 52.8365 106.096 52.8905 106.075 52.9409C106.054 52.9912 106.023 53.0368 105.984 53.0752C105.945 53.1135 105.898 53.1438 105.848 53.1644C105.797 53.1849 105.742 53.1953 105.688 53.1949H104.062V54.08H105.993C106.104 54.0808 106.21 54.1252 106.289 54.2036C106.368 54.282 106.412 54.3881 106.413 54.499C106.413 54.5536 106.401 54.6076 106.38 54.658C106.359 54.7083 106.328 54.7539 106.289 54.7923C106.25 54.8306 106.203 54.861 106.153 54.8815C106.102 54.9021 106.047 54.9124 105.993 54.912H103.601C103.539 54.9124 103.478 54.9005 103.42 54.8771C103.363 54.8536 103.311 54.819 103.268 54.7753C103.224 54.7317 103.19 54.6798 103.167 54.6227C103.144 54.5656 103.132 54.5045 103.133 54.4429" fill="white"/>
<path d="M107.203 51.115C107.202 51.0535 107.214 50.9926 107.237 50.9356C107.26 50.8787 107.295 50.827 107.338 50.7836C107.382 50.7401 107.434 50.7058 107.491 50.6827C107.548 50.6595 107.609 50.648 107.671 50.6488H107.769C107.866 50.6509 107.961 50.6768 108.045 50.7241C108.13 50.7714 108.202 50.8388 108.254 50.9202L110.063 53.2805V51.0914C110.063 50.9693 110.112 50.8522 110.198 50.7659C110.285 50.6796 110.402 50.6311 110.525 50.6311C110.647 50.6311 110.765 50.6796 110.851 50.7659C110.938 50.8522 110.986 50.9693 110.986 51.0914V54.4695C110.987 54.5308 110.975 54.5916 110.952 54.6484C110.928 54.7051 110.894 54.7566 110.85 54.8C110.807 54.8434 110.755 54.8777 110.698 54.901C110.641 54.9243 110.58 54.9361 110.519 54.9357H110.486C110.389 54.9349 110.293 54.9092 110.208 54.8612C110.123 54.8132 110.052 54.7444 110.001 54.6613L108.127 52.2125V54.4872C108.127 54.6093 108.078 54.7264 107.992 54.8127C107.905 54.899 107.787 54.9475 107.665 54.9475C107.542 54.9475 107.425 54.899 107.338 54.8127C107.252 54.7264 107.203 54.6093 107.203 54.4872V51.115Z" fill="white"/>
<path d="M112.994 51.5339H112.106C111.991 51.5339 111.881 51.4885 111.8 51.4077C111.719 51.3269 111.673 51.2174 111.673 51.1031C111.673 50.9889 111.719 50.8793 111.8 50.7985C111.881 50.7177 111.991 50.6724 112.106 50.6724H114.844C114.958 50.6724 115.068 50.7177 115.149 50.7985C115.231 50.8793 115.276 50.9889 115.276 51.1031C115.276 51.2174 115.231 51.3269 115.149 51.4077C115.068 51.4885 114.958 51.5339 114.844 51.5339H113.956V54.4842C113.946 54.6018 113.893 54.7116 113.806 54.7917C113.719 54.8717 113.605 54.9162 113.487 54.9162C113.368 54.9162 113.254 54.8717 113.167 54.7917C113.08 54.7116 113.027 54.6018 113.017 54.4842L112.994 51.5339Z" fill="white"/>
<path d="M117.89 53.1389L117.298 51.7404L116.706 53.1389H117.89ZM115.255 54.319L116.736 50.9792C116.779 50.8699 116.855 50.7761 116.952 50.7098C117.05 50.6436 117.165 50.6079 117.283 50.6075H117.336C117.454 50.6062 117.569 50.6413 117.666 50.7078C117.763 50.7744 117.837 50.8692 117.878 50.9792L119.358 54.319C119.387 54.378 119.403 54.4423 119.406 54.5078C119.407 54.5664 119.396 54.6246 119.374 54.679C119.352 54.7334 119.319 54.7829 119.278 54.8246C119.237 54.8663 119.187 54.8994 119.133 54.922C119.079 54.9446 119.021 54.9563 118.962 54.9563C118.862 54.9561 118.766 54.9249 118.685 54.8673C118.604 54.8096 118.544 54.7283 118.512 54.6347L118.216 53.9679H116.342L116.046 54.6642C116.013 54.7515 115.953 54.8265 115.876 54.8792C115.799 54.932 115.707 54.9599 115.614 54.9592C115.556 54.9592 115.5 54.9479 115.447 54.9259C115.394 54.9039 115.346 54.8716 115.306 54.831C115.266 54.7904 115.234 54.7422 115.213 54.6892C115.191 54.6363 115.181 54.5796 115.181 54.5226C115.185 54.4528 115.203 54.3845 115.235 54.322" fill="white"/>
<path d="M120.691 51.5339H119.802C119.688 51.5339 119.578 51.4885 119.497 51.4077C119.416 51.3269 119.37 51.2174 119.37 51.1031C119.37 50.9889 119.416 50.8793 119.497 50.7985C119.578 50.7177 119.688 50.6724 119.802 50.6724H122.541C122.598 50.6724 122.654 50.6835 122.706 50.7052C122.759 50.7268 122.806 50.7585 122.846 50.7985C122.887 50.8385 122.918 50.886 122.94 50.9383C122.962 50.9905 122.973 51.0466 122.973 51.1031C122.973 51.1597 122.962 51.2157 122.94 51.268C122.918 51.3202 122.887 51.3677 122.846 51.4077C122.806 51.4477 122.759 51.4794 122.706 51.5011C122.654 51.5227 122.598 51.5339 122.541 51.5339H121.653V54.4842C121.653 54.6079 121.603 54.7264 121.516 54.8138C121.428 54.9013 121.309 54.9504 121.185 54.9504C121.061 54.9504 120.942 54.9013 120.854 54.8138C120.767 54.7264 120.717 54.6079 120.717 54.4842L120.691 51.5339Z" fill="white"/>
<path d="M123.684 51.1031C123.684 50.9795 123.733 50.8609 123.821 50.7735C123.908 50.6861 124.027 50.637 124.151 50.637C124.275 50.637 124.394 50.6861 124.482 50.7735C124.57 50.8609 124.619 50.9795 124.619 51.1031V54.4872C124.619 54.6108 124.57 54.7294 124.482 54.8168C124.394 54.9042 124.275 54.9533 124.151 54.9533C124.027 54.9533 123.908 54.9042 123.821 54.8168C123.733 54.7294 123.684 54.6108 123.684 54.4872V51.1031Z" fill="white"/>
<path d="M129.042 52.8113C129.048 52.6388 129.019 52.4669 128.957 52.3057C128.895 52.1445 128.801 51.9974 128.681 51.873C128.561 51.7486 128.417 51.6496 128.258 51.5817C128.099 51.5138 127.927 51.4784 127.754 51.4777C127.582 51.4768 127.411 51.5107 127.252 51.5774C127.094 51.6441 126.95 51.7422 126.831 51.8658C126.711 51.9893 126.618 52.1358 126.557 52.2963C126.496 52.4568 126.468 52.628 126.475 52.7995C126.469 52.9723 126.498 53.1444 126.56 53.3058C126.622 53.4672 126.717 53.6145 126.837 53.7389C126.957 53.8633 127.102 53.9623 127.261 54.03C127.421 54.0977 127.592 54.1328 127.766 54.1331C127.938 54.134 128.109 54.1001 128.267 54.0334C128.426 53.9667 128.569 53.8685 128.688 53.7449C128.808 53.6213 128.9 53.4748 128.961 53.3143C129.022 53.1538 129.049 52.9827 129.042 52.8113ZM125.489 52.8113C125.489 52.5172 125.548 52.2262 125.663 51.9553C125.778 51.6845 125.947 51.4394 126.158 51.2347C126.37 51.0299 126.621 50.8697 126.896 50.7634C127.171 50.6572 127.465 50.6072 127.76 50.6162C128.053 50.6063 128.346 50.6555 128.62 50.7609C128.894 50.8663 129.143 51.0257 129.354 51.2295C129.565 51.4334 129.732 51.6775 129.846 51.9473C129.959 52.217 130.017 52.5069 130.016 52.7995C129.995 53.3836 129.747 53.9367 129.325 54.3425C128.903 54.7482 128.339 54.9749 127.753 54.9749C127.166 54.9749 126.603 54.7482 126.18 54.3425C125.758 53.9367 125.511 53.3836 125.489 52.7995" fill="white"/>
<path d="M130.885 51.1172C130.884 51.0557 130.896 50.9948 130.919 50.9378C130.942 50.8809 130.977 50.8292 131.02 50.7858C131.064 50.7423 131.116 50.708 131.173 50.6849C131.23 50.6617 131.291 50.6502 131.353 50.651H131.451C131.548 50.6531 131.643 50.679 131.727 50.7263C131.812 50.7736 131.884 50.841 131.936 50.9224L133.745 53.2827V51.0936C133.745 50.9715 133.793 50.8544 133.88 50.7681C133.967 50.6818 134.084 50.6333 134.207 50.6333C134.329 50.6333 134.447 50.6818 134.533 50.7681C134.62 50.8544 134.668 50.9715 134.668 51.0936V54.4717C134.669 54.533 134.657 54.5938 134.634 54.6506C134.61 54.7073 134.576 54.7588 134.532 54.8022C134.489 54.8456 134.437 54.8799 134.38 54.9032C134.323 54.9265 134.262 54.9383 134.201 54.9379H134.168C134.07 54.937 133.975 54.9114 133.89 54.8634C133.805 54.8154 133.733 54.7466 133.683 54.6635L131.809 52.2147V54.4894C131.809 54.6115 131.76 54.7286 131.673 54.8149C131.587 54.9012 131.469 54.9497 131.347 54.9497C131.224 54.9497 131.107 54.9012 131.02 54.8149C130.934 54.7286 130.885 54.6115 130.885 54.4894V51.1172Z" fill="white"/>
<path d="M137.516 51.1408C137.516 51.0793 137.527 51.0183 137.55 50.9614C137.574 50.9045 137.608 50.8528 137.652 50.8094C137.695 50.7659 137.747 50.7316 137.804 50.7085C137.861 50.6853 137.922 50.6738 137.984 50.6746H140.367C140.48 50.6746 140.589 50.7194 140.669 50.799C140.749 50.8787 140.793 50.9868 140.793 51.0995C140.793 51.2121 140.749 51.3202 140.669 51.3999C140.589 51.4795 140.48 51.5243 140.367 51.5243H138.452V52.4271H140.095C140.208 52.4271 140.316 52.4719 140.396 52.5515C140.476 52.6312 140.521 52.7393 140.521 52.852C140.521 52.9646 140.476 53.0727 140.396 53.1524C140.316 53.2321 140.208 53.2768 140.095 53.2768H138.452V54.4894C138.452 54.613 138.403 54.7316 138.315 54.819C138.227 54.9065 138.108 54.9556 137.984 54.9556C137.86 54.9556 137.741 54.9065 137.653 54.819C137.566 54.7316 137.516 54.613 137.516 54.4894V51.1408Z" fill="white"/>
<path d="M143.514 53.1411L142.922 51.7426L142.33 53.1411H143.514ZM140.879 54.3212L142.359 50.9814C142.401 50.8711 142.475 50.7763 142.573 50.7097C142.67 50.6432 142.786 50.6083 142.904 50.6097H142.96C143.078 50.6089 143.193 50.6441 143.29 50.7106C143.387 50.7771 143.461 50.8716 143.502 50.9814L144.982 54.3212C145.013 54.3795 145.031 54.4441 145.033 54.51C145.033 54.5686 145.023 54.6268 145.001 54.6812C144.979 54.7356 144.946 54.7851 144.905 54.8268C144.863 54.8685 144.814 54.9016 144.76 54.9242C144.706 54.9468 144.647 54.9585 144.589 54.9585C144.489 54.9587 144.392 54.9278 144.312 54.87C144.231 54.8123 144.17 54.7308 144.139 54.6369L143.843 53.9701H141.969L141.673 54.6664C141.64 54.7539 141.581 54.8292 141.503 54.882C141.426 54.9348 141.334 54.9625 141.24 54.9614C141.183 54.9614 141.127 54.9501 141.074 54.928C141.021 54.906 140.974 54.8737 140.934 54.833C140.894 54.7924 140.862 54.7441 140.841 54.6912C140.82 54.6383 140.81 54.5817 140.811 54.5248C140.815 54.455 140.833 54.3867 140.864 54.3242" fill="white"/>
<path d="M145.429 52.8137C145.424 52.5224 145.478 52.2332 145.588 51.9633C145.698 51.6934 145.862 51.4485 146.069 51.2434C146.277 51.0383 146.524 50.8772 146.795 50.7698C147.067 50.6624 147.358 50.611 147.65 50.6186C148.16 50.5978 148.661 50.7496 149.074 51.0493C149.131 51.0932 149.177 51.1495 149.209 51.2139C149.241 51.2784 149.257 51.3493 149.257 51.4211C149.257 51.4811 149.245 51.5405 149.221 51.5959C149.198 51.6512 149.164 51.7014 149.121 51.7436C149.078 51.7858 149.027 51.8191 148.971 51.8418C148.915 51.8644 148.856 51.8758 148.795 51.8754C148.695 51.8734 148.597 51.8415 148.514 51.784C148.266 51.5906 147.959 51.4866 147.644 51.4889C147.475 51.4923 147.308 51.5294 147.154 51.5982C147 51.667 146.861 51.7659 146.746 51.8892C146.63 52.0125 146.541 52.1576 146.484 52.3159C146.426 52.4742 146.401 52.6425 146.409 52.8107C146.399 52.9798 146.424 53.1491 146.481 53.3086C146.538 53.4681 146.627 53.6145 146.742 53.739C146.857 53.8635 146.997 53.9635 147.152 54.0332C147.306 54.1028 147.474 54.1406 147.644 54.1443C147.983 54.1508 148.312 54.0333 148.57 53.8138C148.644 53.7441 148.741 53.7032 148.843 53.6988C148.958 53.6988 149.068 53.7439 149.15 53.8246C149.232 53.9052 149.279 54.0147 149.281 54.1295C149.281 54.1927 149.267 54.2551 149.24 54.3123C149.212 54.3694 149.173 54.4198 149.124 54.46C148.801 54.7346 148.407 54.9124 147.987 54.9727C147.567 55.033 147.138 54.9734 146.751 54.8007C146.363 54.6281 146.033 54.3494 145.798 53.9972C145.563 53.645 145.433 53.2336 145.423 52.8107" fill="white"/>
<path d="M150.151 51.1053C150.151 50.9817 150.2 50.8631 150.288 50.7757C150.376 50.6883 150.495 50.6392 150.619 50.6392C150.743 50.6392 150.862 50.6883 150.95 50.7757C151.037 50.8631 151.087 50.9817 151.087 51.1053V54.4894C151.087 54.613 151.037 54.7316 150.95 54.819C150.862 54.9064 150.743 54.9555 150.619 54.9555C150.495 54.9555 150.376 54.9064 150.288 54.819C150.2 54.7316 150.151 54.613 150.151 54.4894V51.1053Z" fill="white"/>
<path d="M152.152 51.1053C152.162 50.9877 152.215 50.8779 152.302 50.7978C152.389 50.7178 152.503 50.6733 152.622 50.6733C152.74 50.6733 152.854 50.7178 152.941 50.7978C153.028 50.8779 153.081 50.9877 153.091 51.1053V54.0556H154.823C154.936 54.0556 155.044 54.1004 155.124 54.1801C155.204 54.2597 155.249 54.3678 155.249 54.4805C155.249 54.5932 155.204 54.7012 155.124 54.7809C155.044 54.8606 154.936 54.9053 154.823 54.9053H152.62C152.558 54.9057 152.497 54.8938 152.44 54.8704C152.383 54.8469 152.331 54.8123 152.287 54.7686C152.244 54.725 152.21 54.6731 152.186 54.616C152.163 54.5589 152.152 54.4978 152.152 54.4362V51.1053Z" fill="white"/>
<path d="M155.948 51.1053C155.957 50.9877 156.01 50.8779 156.097 50.7978C156.184 50.7178 156.298 50.6733 156.417 50.6733C156.535 50.6733 156.649 50.7178 156.736 50.7978C156.823 50.8779 156.877 50.9877 156.886 51.1053V54.4893C156.877 54.6069 156.823 54.7167 156.736 54.7968C156.649 54.8768 156.535 54.9213 156.417 54.9213C156.298 54.9213 156.184 54.8768 156.097 54.7968C156.01 54.7167 155.957 54.6069 155.948 54.4893V51.1053Z" fill="white"/>
<path d="M158.955 51.5361H158.067C157.953 51.5361 157.843 51.4907 157.762 51.4099C157.681 51.3291 157.635 51.2196 157.635 51.1053C157.635 50.9911 157.681 50.8815 157.762 50.8007C157.843 50.7199 157.953 50.6746 158.067 50.6746H160.806C160.862 50.6746 160.919 50.6857 160.971 50.7073C161.023 50.729 161.071 50.7607 161.111 50.8007C161.151 50.8407 161.183 50.8882 161.205 50.9405C161.227 50.9927 161.238 51.0487 161.238 51.1053C161.238 51.1619 161.227 51.2179 161.205 51.2702C161.183 51.3224 161.151 51.3699 161.111 51.4099C161.071 51.4499 161.023 51.4816 160.971 51.5033C160.919 51.5249 160.862 51.5361 160.806 51.5361H159.917V54.4864C159.917 54.5476 159.905 54.6083 159.882 54.6648C159.858 54.7214 159.824 54.7728 159.78 54.816C159.737 54.8593 159.685 54.8937 159.629 54.9171C159.572 54.9405 159.511 54.9526 159.45 54.9526C159.388 54.9526 159.327 54.9405 159.271 54.9171C159.214 54.8937 159.162 54.8593 159.119 54.816C159.076 54.7728 159.041 54.7214 159.018 54.6648C158.994 54.6083 158.982 54.5476 158.982 54.4864L158.955 51.5361Z" fill="white"/>
<path d="M163.017 53.2827L161.643 51.421C161.569 51.3256 161.529 51.2084 161.528 51.0876C161.529 51.0274 161.541 50.968 161.565 50.9128C161.589 50.8576 161.624 50.8076 161.668 50.7659C161.711 50.7242 161.763 50.6915 161.819 50.6697C161.875 50.648 161.935 50.6376 161.996 50.6392C162.092 50.6426 162.186 50.6718 162.267 50.7237C162.348 50.7756 162.414 50.8483 162.457 50.9342L163.494 52.4094L164.545 50.9106C164.589 50.8295 164.654 50.7613 164.733 50.7127C164.812 50.6641 164.902 50.6367 164.995 50.6333C165.055 50.6298 165.116 50.6392 165.173 50.6609C165.23 50.6825 165.281 50.7158 165.324 50.7587C165.368 50.8016 165.401 50.8531 165.423 50.9098C165.444 50.9664 165.454 51.027 165.45 51.0876C165.445 51.2067 165.403 51.3212 165.329 51.4151L163.955 53.265V54.4894C163.946 54.607 163.893 54.7167 163.806 54.7968C163.719 54.8768 163.605 54.9213 163.486 54.9213C163.368 54.9213 163.254 54.8768 163.167 54.7968C163.08 54.7167 163.026 54.607 163.017 54.4894V53.2827Z" fill="white"/>
</svg>
