<svg width="266" height="53" viewBox="0 0 266 53" fill="none" xmlns="http://www.w3.org/2000/svg">
<path d="M33.2041 43.3379C36.5234 43.3321 39.8218 42.8153 42.9816 41.8058C43.7233 41.5561 44.4265 41.281 45.1128 40.9847C44.3616 42.8921 43.1233 44.5724 41.5197 45.8603C38.3653 48.1733 34.6901 49.6871 30.813 50.2702C31.8061 48.5773 32.6074 46.165 33.2169 43.3379M16.6965 48.1668C16.6213 48.1051 16.5398 48.0512 16.4535 48.006C15.0768 47.3415 14.5185 44.2901 15.2345 39.622C17.9853 40.8402 20.8585 41.7652 23.8059 42.3814C26.051 42.8637 28.3315 43.1666 30.6254 43.2871C29.5258 48.0271 28.1192 50.5157 27.1901 50.5157C27.1319 50.5111 27.0735 50.5111 27.0153 50.5157C23.4428 50.5026 19.918 49.7002 16.6965 48.1668ZM3.90976 33.079C3.70079 32.2763 3.56808 31.4558 3.51338 30.6285C4.4009 31.8738 5.41966 33.0216 6.55235 34.0524C8.4862 35.7931 10.6344 37.2834 12.9457 38.4877C12.4555 41.2091 12.3149 43.6807 12.6303 45.6825C8.42391 42.5315 5.36325 38.108 3.90976 33.079ZM34.7683 26.4556C34.7683 25.4963 34.7541 24.5327 34.7257 23.565C37.6322 23.4204 40.4674 22.62 43.0157 21.2245C45.1852 25.4864 46.3488 29.981 46.336 34.2174C46.3382 35.3921 46.2369 36.5646 46.0334 37.7217C44.8242 38.4443 43.5376 39.0306 42.1974 39.4696C39.4413 40.3525 36.5685 40.8246 33.6729 40.8705C34.4257 36.1023 34.792 31.2819 34.7683 26.4556ZM24.3386 39.9732C21.369 39.3521 18.4804 38.3965 15.7289 37.125C16.862 32.3711 18.5469 27.7638 20.7498 23.3957C21.1207 22.6466 21.4957 21.9059 21.8879 21.1822C23.7355 21.9977 25.664 22.619 27.6419 23.0359C29.1565 23.3574 30.697 23.5443 32.2451 23.5946C32.2735 24.52 32.2877 25.4737 32.2877 26.4556C32.3272 31.2759 31.945 36.0905 31.1454 40.8451C28.8519 40.7421 26.5709 40.4505 24.3259 39.9732M8.24019 32.241C6.13465 30.3026 4.68123 28.2585 3.94386 26.2397C4.60311 23.7816 5.75085 21.4793 7.31955 19.4682C8.96422 17.333 10.9242 15.4567 13.1332 13.9028C13.8586 15.1649 14.7775 16.3072 15.8568 17.2886C17.0226 18.3576 18.3099 19.2879 19.6928 20.0607C19.2964 20.8013 18.9128 21.5504 18.5377 22.3165C16.3628 26.6769 14.6625 31.2552 13.4657 35.9738C11.5853 34.9346 9.83183 33.6835 8.24019 32.2452M33.0847 9.33203C36.0322 11.5417 38.5914 14.2202 40.6587 17.259C41.0849 17.8557 41.4558 18.4651 41.8223 19.0746C39.6051 20.2692 37.1469 20.9561 34.6277 21.0849C34.4505 17.1309 33.9343 13.199 33.0847 9.33203ZM28.1619 20.6278C26.4206 20.2622 24.7211 19.722 23.0898 19.0153C25.1253 15.3627 27.5905 11.963 30.4336 8.88765C31.3925 12.9044 31.9634 17.0028 32.1385 21.1272C30.7984 21.0692 29.4654 20.9007 28.1533 20.6236M17.5489 15.4899C16.6094 14.6397 15.8212 13.6381 15.2175 12.5273C17.6139 11.0997 20.1814 9.97643 22.8596 9.1839C24.4723 8.71149 26.1157 8.34949 27.7783 8.10045C25.1395 11.1222 22.8227 14.407 20.8649 17.9023C19.6714 17.2251 18.5589 16.4158 17.5489 15.4899ZM12.2126 7.61798C12.1785 7.74495 12.1444 7.87192 12.1146 8.00311C11.8696 9.17158 11.8958 10.3801 12.1913 11.537C9.57876 13.3069 7.2679 15.4801 5.34613 17.9742C4.79954 18.6992 4.29163 19.4521 3.82452 20.23C5.18532 15.2412 8.12619 10.8194 12.2126 7.61798ZM14.5653 8.53214C14.8898 7.17639 15.6851 5.97757 16.8115 5.14637C19.7099 4.29993 23.0813 4.49461 26.6147 5.78543C25.1106 6.0431 23.6233 6.38934 22.1606 6.82233C19.4839 7.62029 16.9093 8.7238 14.4886 10.1108C14.4324 9.58376 14.4583 9.05131 14.5653 8.53214ZM34.6831 5.28603C35.3825 4.80253 36.1572 4.4365 36.9762 4.20259C38.2595 4.71197 39.4829 5.35911 40.6246 6.13248C38.6769 5.65747 36.6868 5.37396 34.6831 5.28603ZM30.5018 2.64513C31.5746 2.76162 32.6393 2.94253 33.69 3.18686C32.943 3.59009 32.2303 4.05292 31.5589 4.57079C31.2674 3.89938 30.9165 3.25497 30.5104 2.64513M27.8124 3.61431C26.731 3.20002 25.6197 2.86755 24.4878 2.61974C25.3736 2.51951 26.2644 2.46865 27.156 2.46738C27.5822 2.46738 28.0979 2.97525 28.6392 3.94865C28.3664 3.83438 28.0894 3.71588 27.8124 3.61431ZM0.499977 26.4979C0.499985 28.9558 0.845724 31.4017 1.52718 33.7646L1.65078 34.2301C1.65078 34.2598 1.67635 34.2852 1.68488 34.319C2.91432 38.2763 5.06104 41.8921 7.9527 44.8764C10.8444 47.8607 14.4004 50.1301 18.3353 51.5026C22.2702 52.8751 26.4744 53.3124 30.6104 52.7794C34.7463 52.2464 38.6988 50.7579 42.1505 48.4334L42.2741 48.3615C42.5298 48.1922 42.7728 48.0102 43.0115 47.824C48.0015 44.1694 51.5597 38.9086 53.0789 32.9393C53.1641 32.66 53.2366 32.3764 53.3005 32.0929C53.3118 32.0257 53.3189 31.9578 53.3218 31.8897C54.4179 26.6214 53.8799 21.1468 51.7789 16.1882C51.6261 15.9306 51.3841 15.737 51.0981 15.6435C50.812 15.55 50.5015 15.563 50.2245 15.6801C49.9474 15.7972 49.7227 16.0103 49.5923 16.2798C49.4619 16.5493 49.4346 16.8567 49.5156 17.1447C51.5454 21.9272 51.9626 27.2333 50.7048 32.2706C50.3158 33.4705 49.667 34.5713 48.8039 35.4956C48.8039 35.0723 48.8422 34.6491 48.8422 34.2259C48.8422 29.4985 47.538 24.4918 45.0914 19.8068C46.8067 18.4094 47.9815 16.4652 48.416 14.3049C48.4502 14.1431 48.4512 13.9762 48.4191 13.814C48.387 13.6519 48.3223 13.4978 48.2289 13.361C48.1356 13.2242 48.0154 13.1074 47.8756 13.0177C47.7359 12.9279 47.5793 12.867 47.4154 12.8386C47.2514 12.8102 47.0834 12.8148 46.9212 12.8523C46.7591 12.8897 46.6062 12.9591 46.4717 13.0565C46.3372 13.1538 46.2238 13.277 46.1382 13.4188C46.0527 13.5606 45.9967 13.718 45.9737 13.8817C45.6828 15.3271 44.9364 16.6433 43.8426 17.6399C43.4846 17.06 43.1138 16.4802 42.7259 15.9131C40.6264 12.8228 38.057 10.0745 35.1093 7.76611C38.8473 8.00735 42.3039 8.90881 45.0872 10.4536C45.3073 10.5797 45.5604 10.6378 45.8139 10.6204C46.0675 10.6031 46.3101 10.5111 46.5108 10.3562C46.7634 10.1462 46.9222 9.84545 46.9526 9.51963C46.9829 9.19381 46.8823 8.86929 46.6727 8.61679C42.6705 3.05989 35.7529 0 27.1858 0C20.1111 0.00895895 13.3287 2.80357 8.32604 7.77095C3.32343 12.7383 0.509 19.473 0.499977 26.4979Z" fill="white"/>
<mask id="mask0_323_1842" style="mask-type:luminance" maskUnits="userSpaceOnUse" x="0" y="0" width="54" height="53">
<path d="M33.2041 43.3379C36.5234 43.3321 39.8218 42.8153 42.9816 41.8058C43.7233 41.5561 44.4265 41.281 45.1128 40.9847C44.3616 42.8921 43.1233 44.5724 41.5197 45.8603C38.3653 48.1733 34.6901 49.6871 30.813 50.2702C31.8061 48.5773 32.6074 46.165 33.2169 43.3379M16.6965 48.1668C16.6213 48.1051 16.5398 48.0512 16.4535 48.006C15.0768 47.3415 14.5185 44.2901 15.2345 39.622C17.9853 40.8402 20.8585 41.7652 23.8059 42.3814C26.051 42.8637 28.3315 43.1666 30.6254 43.2871C29.5258 48.0271 28.1192 50.5157 27.1901 50.5157C27.1319 50.5111 27.0735 50.5111 27.0153 50.5157C23.4428 50.5026 19.918 49.7002 16.6965 48.1668ZM3.90976 33.079C3.70079 32.2763 3.56808 31.4558 3.51338 30.6285C4.4009 31.8738 5.41966 33.0216 6.55235 34.0524C8.4862 35.7931 10.6344 37.2834 12.9457 38.4877C12.4555 41.2091 12.3149 43.6807 12.6303 45.6825C8.42391 42.5315 5.36325 38.108 3.90976 33.079ZM34.7683 26.4556C34.7683 25.4963 34.7541 24.5327 34.7257 23.565C37.6322 23.4204 40.4674 22.62 43.0157 21.2245C45.1852 25.4864 46.3488 29.981 46.336 34.2174C46.3382 35.3921 46.2369 36.5646 46.0334 37.7217C44.8242 38.4443 43.5376 39.0306 42.1974 39.4696C39.4413 40.3525 36.5685 40.8246 33.6729 40.8705C34.4257 36.1023 34.792 31.2819 34.7683 26.4556ZM24.3386 39.9732C21.369 39.3521 18.4804 38.3965 15.7289 37.125C16.862 32.3711 18.5469 27.7638 20.7498 23.3957C21.1207 22.6466 21.4957 21.9059 21.8879 21.1822C23.7355 21.9977 25.664 22.619 27.6419 23.0359C29.1565 23.3574 30.697 23.5443 32.2451 23.5946C32.2735 24.52 32.2877 25.4737 32.2877 26.4556C32.3272 31.2759 31.945 36.0905 31.1454 40.8451C28.8519 40.7421 26.5709 40.4505 24.3259 39.9732M8.24019 32.241C6.13465 30.3026 4.68123 28.2585 3.94386 26.2397C4.60311 23.7816 5.75085 21.4793 7.31955 19.4682C8.96422 17.333 10.9242 15.4567 13.1332 13.9028C13.8586 15.1649 14.7775 16.3072 15.8568 17.2886C17.0226 18.3576 18.3099 19.2879 19.6928 20.0607C19.2964 20.8013 18.9128 21.5504 18.5377 22.3165C16.3628 26.6769 14.6625 31.2552 13.4657 35.9738C11.5853 34.9346 9.83183 33.6835 8.24019 32.2452M33.0847 9.33203C36.0322 11.5417 38.5914 14.2202 40.6587 17.259C41.0849 17.8557 41.4558 18.4651 41.8223 19.0746C39.6051 20.2692 37.1469 20.9561 34.6277 21.0849C34.4505 17.1309 33.9343 13.199 33.0847 9.33203ZM28.1619 20.6278C26.4206 20.2622 24.7211 19.722 23.0898 19.0153C25.1253 15.3627 27.5905 11.963 30.4336 8.88765C31.3925 12.9044 31.9634 17.0028 32.1385 21.1272C30.7984 21.0692 29.4654 20.9007 28.1533 20.6236M17.5489 15.4899C16.6094 14.6397 15.8212 13.6381 15.2175 12.5273C17.6139 11.0997 20.1814 9.97643 22.8596 9.1839C24.4723 8.71149 26.1157 8.34949 27.7783 8.10045C25.1395 11.1222 22.8227 14.407 20.8649 17.9023C19.6714 17.2251 18.5589 16.4158 17.5489 15.4899ZM12.2126 7.61798C12.1785 7.74495 12.1444 7.87192 12.1146 8.00311C11.8696 9.17158 11.8958 10.3801 12.1913 11.537C9.57876 13.3069 7.2679 15.4801 5.34613 17.9742C4.79954 18.6992 4.29163 19.4521 3.82452 20.23C5.18532 15.2412 8.12619 10.8194 12.2126 7.61798ZM14.5653 8.53214C14.8898 7.17639 15.6851 5.97757 16.8115 5.14637C19.7099 4.29993 23.0813 4.49461 26.6147 5.78543C25.1106 6.0431 23.6233 6.38934 22.1606 6.82233C19.4839 7.62029 16.9093 8.7238 14.4886 10.1108C14.4324 9.58376 14.4583 9.05131 14.5653 8.53214ZM34.6831 5.28603C35.3825 4.80253 36.1572 4.4365 36.9762 4.20259C38.2595 4.71197 39.4829 5.35911 40.6246 6.13248C38.6769 5.65747 36.6868 5.37396 34.6831 5.28603ZM30.5018 2.64513C31.5746 2.76162 32.6393 2.94253 33.69 3.18686C32.943 3.59009 32.2303 4.05292 31.5589 4.57079C31.2674 3.89938 30.9165 3.25497 30.5104 2.64513M27.8124 3.61431C26.731 3.20002 25.6197 2.86755 24.4878 2.61974C25.3736 2.51951 26.2644 2.46865 27.156 2.46738C27.5822 2.46738 28.0979 2.97525 28.6392 3.94865C28.3664 3.83438 28.0894 3.71588 27.8124 3.61431ZM0.499977 26.4979C0.499985 28.9558 0.845724 31.4017 1.52718 33.7646L1.65078 34.2301C1.65078 34.2598 1.67635 34.2852 1.68488 34.319C2.91432 38.2763 5.06104 41.8921 7.9527 44.8764C10.8444 47.8607 14.4004 50.1301 18.3353 51.5026C22.2702 52.8751 26.4744 53.3124 30.6104 52.7794C34.7463 52.2464 38.6988 50.7579 42.1505 48.4334L42.2741 48.3615C42.5298 48.1922 42.7728 48.0102 43.0115 47.824C48.0015 44.1694 51.5597 38.9086 53.0789 32.9393C53.1641 32.66 53.2366 32.3764 53.3005 32.0929C53.3118 32.0257 53.3189 31.9578 53.3218 31.8897C54.4179 26.6214 53.8799 21.1468 51.7789 16.1882C51.6261 15.9306 51.3841 15.737 51.0981 15.6435C50.812 15.55 50.5015 15.563 50.2245 15.6801C49.9474 15.7972 49.7227 16.0103 49.5923 16.2798C49.4619 16.5493 49.4346 16.8567 49.5156 17.1447C51.5454 21.9272 51.9626 27.2333 50.7048 32.2706C50.3158 33.4705 49.667 34.5713 48.8039 35.4956C48.8039 35.0723 48.8422 34.6491 48.8422 34.2259C48.8422 29.4985 47.538 24.4918 45.0914 19.8068C46.8067 18.4094 47.9815 16.4652 48.416 14.3049C48.4502 14.1431 48.4512 13.9762 48.4191 13.814C48.387 13.6519 48.3223 13.4978 48.2289 13.361C48.1356 13.2242 48.0154 13.1074 47.8756 13.0177C47.7359 12.9279 47.5793 12.867 47.4154 12.8386C47.2514 12.8102 47.0834 12.8148 46.9212 12.8523C46.7591 12.8897 46.6062 12.9591 46.4717 13.0565C46.3372 13.1538 46.2238 13.277 46.1382 13.4188C46.0527 13.5606 45.9967 13.718 45.9737 13.8817C45.6828 15.3271 44.9364 16.6433 43.8426 17.6399C43.4846 17.06 43.1138 16.4802 42.7259 15.9131C40.6264 12.8228 38.057 10.0745 35.1093 7.76611C38.8473 8.00735 42.3039 8.90881 45.0872 10.4536C45.3073 10.5797 45.5604 10.6378 45.8139 10.6204C46.0675 10.6031 46.3101 10.5111 46.5108 10.3562C46.7634 10.1462 46.9222 9.84545 46.9526 9.51963C46.9829 9.19381 46.8823 8.86929 46.6727 8.61679C42.6705 3.05989 35.7529 0 27.1858 0C20.1111 0.00895895 13.3287 2.80357 8.32604 7.77095C3.32343 12.7383 0.509 19.473 0.499977 26.4979Z" fill="white"/>
</mask>
<g mask="url(#mask0_323_1842)">
<path d="M53.8759 0H0.499977V53H53.8759V0Z" fill="white"/>
</g>
<path d="M66.961 33.79H65.2049V42.6396H66.961V33.79Z" fill="white"/>
<path d="M68.5295 42.6396V33.79H71.9009C73.7251 33.79 74.7822 34.4757 74.7822 36.1305C74.7822 37.7006 73.8402 37.9672 73.3927 37.9672V37.9926C73.9452 38.0211 74.4641 38.2653 74.8361 38.672C75.2081 39.0787 75.4032 39.6149 75.3789 40.1638C75.3789 42.009 73.9169 42.6396 72.2717 42.6396H68.5295ZM71.7006 37.4848C72.651 37.4848 72.9792 37.015 72.9792 36.3336C72.9792 35.6522 72.5104 35.2078 71.4661 35.2078H70.294V37.4848H71.7006ZM71.8881 41.226C72.7704 41.226 73.431 40.9509 73.431 39.9564C73.431 39.0465 72.7533 38.6867 71.854 38.6867H70.2855V41.226H71.8881Z" fill="white"/>
<path d="M83.8863 42.6184C83.584 42.6842 83.275 42.7141 82.9656 42.7073C80.2676 42.7073 81.005 39.3215 79.1296 39.3215H78.1877V42.6354H76.4316V33.79H79.5601C81.7552 33.79 82.9273 34.5899 82.9273 36.5748C82.9401 37.0633 82.7981 37.5435 82.5212 37.9475C82.2444 38.3515 81.8467 38.6589 81.3844 38.8264C82.3007 39.5712 82.3519 41.2895 83.5155 41.2895H83.8863V42.6184ZM79.3513 38.0138C80.4083 38.0138 81.184 37.5355 81.184 36.6256C81.184 35.7157 80.5617 35.2078 79.4791 35.2078H78.1664V38.0138H79.3513Z" fill="white"/>
<path d="M84.6577 42.6396V33.79H87.2705C89.6105 33.79 91.7032 35.0597 91.7032 38.3693C91.7032 41.5181 89.8193 42.6396 87.6498 42.6396H84.6577ZM87.6413 41.226C89.0052 41.226 89.96 40.2399 89.96 38.3439C89.96 36.4479 89.1075 35.2078 87.2492 35.2078H86.4223V41.226H87.6413Z" fill="white"/>
<path d="M96.9244 40.6292C96.5975 40.6292 96.278 40.533 96.0061 40.3527C95.7343 40.1725 95.5223 39.9163 95.397 39.6164C95.2717 39.3166 95.2387 38.9867 95.3022 38.6683C95.3656 38.3498 95.5227 38.0572 95.7536 37.8274C95.9844 37.5976 96.2787 37.4409 96.5992 37.377C96.9197 37.3132 97.2521 37.3451 97.5544 37.4688C97.8566 37.5924 98.1152 37.8022 98.2974 38.0717C98.4796 38.3412 98.5774 38.6582 98.5782 38.9828C98.5799 39.1992 98.5383 39.4136 98.4558 39.6139C98.3734 39.8141 98.2517 39.9961 98.0979 40.1492C97.944 40.3024 97.7611 40.4237 97.5596 40.5061C97.3582 40.5885 97.1423 40.6303 96.9244 40.6292Z" fill="white"/>
<path d="M104.319 33.79H102.559V42.6396H104.319V33.79Z" fill="white"/>
<path d="M105.884 42.6396V33.79H108.496C110.841 33.79 112.925 35.0597 112.925 38.3693C112.925 41.5181 111.041 42.6396 108.876 42.6396H105.884ZM108.867 41.226C110.231 41.226 111.19 40.2399 111.19 38.3439C111.19 36.4479 110.338 35.2078 108.475 35.2078H107.644V41.226H108.867Z" fill="white"/>
<path d="M118.739 40.4304H115.58L114.83 42.6438H112.997L116.271 33.79H118.065L121.339 42.6438H119.519L118.739 40.4304ZM116.045 39.1015H118.287L117.153 35.8892L116.045 39.1015Z" fill="white"/>
<path d="M60.5463 12.303H73.7976V15.0031H68.9301V28.542H65.418V15.0031H60.5463V12.303Z" fill="white"/>
<path d="M75.6602 28.542V12.303H79.1723V18.7148H85.3567V12.303H88.9114V28.542H85.3994V21.4107H79.1723V28.542H75.6602Z" fill="white"/>
<path d="M91.7714 12.303H102.734V15.0031H95.2835V18.8037H102.261V21.5038H95.2835V25.8461H102.985V28.542H91.7714V12.303Z" fill="white"/>
<path d="M120.183 12.303H124.143L126.994 24.5171H127.041L129.671 12.303H133.026L128.853 28.542H124.961L122.016 16.1755H121.969L118.798 28.542H114.813L110.824 12.303H114.451L116.965 24.5171H117.008L120.183 12.303Z" fill="white"/>
<path d="M134.215 20.4246C134.215 15.6338 136.661 11.9602 142.074 11.9602C147.487 11.9602 149.93 15.6295 149.93 20.4246C149.93 25.2197 147.483 28.8891 142.074 28.8891C136.666 28.8891 134.215 25.224 134.215 20.4246ZM137.948 20.4246C137.948 23.2137 138.609 26.3497 142.074 26.3497C145.539 26.3497 146.196 23.201 146.196 20.4246C146.196 17.6483 145.539 14.4995 142.074 14.4995C138.609 14.4995 137.948 17.6525 137.948 20.4246Z" fill="white"/>
<path d="M155.765 28.542H152.235V12.303H159.187C161.996 12.3284 164.873 13.2256 164.873 16.5352C164.873 18.6513 163.492 20.0437 161.463 20.4669V20.5135C164.161 20.8055 164.161 22.4476 164.447 24.6991C164.604 25.7318 164.741 27.6617 165.397 28.542H161.523C161.233 27.1073 161.071 25.6429 160.913 24.1786C160.82 23.2813 160.594 22.0413 159.443 21.999H155.73L155.765 28.542ZM155.765 19.3031H158.706C160.244 19.2734 161.152 18.5159 161.152 17.0727C161.152 15.6295 160.244 15.0285 158.706 15.0031H155.765V19.3031Z" fill="white"/>
<path d="M167.571 28.542V12.303H171.079V25.8461H178.171V28.542H167.571Z" fill="white"/>
<path d="M180.076 12.303H185.647C190.762 12.2607 193.916 14.7789 193.916 20.4289C193.916 26.0789 190.745 28.5886 185.647 28.542H180.076V12.303ZM183.584 25.8461H185.4C189.568 25.8884 190.178 23.0105 190.178 20.4289C190.178 17.8472 189.568 14.9608 185.4 15.0032H183.584V25.8461Z" fill="white"/>
<path d="M202.807 28.542V12.303H208.923C211.847 12.1253 214.839 13.3399 214.839 16.5098C214.839 18.2874 213.59 19.5232 211.958 20.0607V20.1072C214.025 20.5304 215.559 21.9567 215.559 24.3394C215.559 27.5559 211.48 28.724 208.97 28.542H202.807ZM209.055 25.8461C210.709 25.8461 211.838 25.5498 211.838 23.6877C211.838 21.8255 210.709 21.525 209.055 21.525H206.315V25.8461H209.055ZM209.055 18.8291C210.53 18.8291 211.34 18.2196 211.34 16.9161C211.34 15.6126 210.53 15.0032 209.055 15.0032H206.315V18.8122L209.055 18.8291Z" fill="white"/>
<path d="M216.672 28.542L222.584 12.303H226.752L232.438 28.542H228.904L227.728 25.1012H221.249L220.026 28.542H216.672ZM226.846 22.4053L224.604 15.4771H224.557L222.157 22.4053H226.846Z" fill="white"/>
<path d="M244.023 28.542L237.565 15.0455L237.523 15.092V28.542H234.237V12.303H239.445L245.676 25.08L245.723 25.0335V12.303H249.005V28.542H244.023Z" fill="white"/>
<path d="M255.398 19.3242H255.445L260.88 12.303H264.98L258.975 19.5697L265.5 28.542H261.127L255.445 20.268H255.398V28.542H251.886V12.303H255.398V19.3242Z" fill="white"/>
<path d="M224.131 35.7411C225.874 35.7411 226.837 36.5875 226.837 38.1026C226.837 39.5416 225.891 40.4007 224.301 40.4007H223.193V42.5972H221.71V35.7411H224.131ZM223.193 39.2072H224.075C224.928 39.2072 225.354 38.8348 225.354 38.1026C225.354 37.3705 224.881 36.9515 224.02 36.9515H223.189L223.193 39.2072ZM219.016 39.8505C219.016 40.8578 218.628 41.3487 217.827 41.3487C217.026 41.3487 216.595 40.8409 216.595 39.8505V35.7411H215.125V39.7532C215.093 40.1526 215.141 40.5544 215.267 40.9352C215.393 41.3159 215.594 41.6679 215.858 41.9709C216.121 42.2086 216.429 42.3914 216.764 42.5085C217.099 42.6255 217.455 42.6744 217.81 42.6523C219.025 42.6523 220.474 42.1529 220.474 39.7574V35.7411H218.999L219.016 39.8505ZM211.131 35.686C212.623 35.686 214.217 36.6002 214.217 39.1818C214.217 41.7635 212.623 42.6523 211.131 42.6523C209.639 42.6523 208.037 41.7423 208.037 39.1818C208.037 36.6214 209.635 35.686 211.131 35.686ZM211.131 41.3741C211.715 41.3741 212.695 41.0906 212.695 39.1818C212.695 37.2731 211.715 36.9811 211.131 36.9811C210.117 36.9811 209.558 37.7598 209.558 39.1818C209.558 40.6039 210.117 41.3741 211.131 41.3741ZM206.519 40.5277C206.762 41.0186 206.971 41.4418 207.457 41.4418H207.806V42.5718H207.755C207.522 42.6232 207.283 42.6459 207.043 42.6396C205.88 42.6396 205.526 41.8481 205.211 41.1456C204.955 40.5742 204.729 40.0791 204.124 40.0791H203.476V42.593H202.006V35.7411H204.452C206.238 35.7411 207.073 36.4351 207.073 37.9206C207.082 38.2863 206.981 38.6461 206.783 38.9544C206.585 39.2627 206.298 39.5054 205.961 39.6516C206.193 39.9011 206.382 40.1872 206.519 40.4981M203.476 38.9364H204.299C205.113 38.9364 205.62 38.5555 205.62 37.946C205.62 37.3366 205.194 36.9388 204.401 36.9388H203.476V38.9364ZM198.093 40.0791H199.61V40.1553C199.627 40.3173 199.606 40.481 199.55 40.6341C199.495 40.7873 199.405 40.9261 199.288 41.0403C199.171 41.1544 199.03 41.241 198.874 41.2937C198.719 41.3463 198.554 41.3637 198.391 41.3445C197.394 41.3445 196.797 40.5277 196.797 39.1691C196.797 37.8106 197.368 36.9684 198.361 36.9684C198.524 36.9684 198.686 37.0006 198.836 37.0632C198.986 37.1257 199.123 37.2174 199.237 37.3328C199.351 37.4483 199.441 37.5852 199.502 37.7355C199.562 37.8858 199.592 38.0466 199.589 38.2084V38.2846L200.966 38.073V38.0138C200.949 37.689 200.867 37.3708 200.726 37.0773C200.585 36.7838 200.388 36.5208 200.144 36.3034C199.901 36.086 199.616 35.9184 199.307 35.8103C198.999 35.7022 198.671 35.6556 198.344 35.6733C196.396 35.6733 195.28 36.943 195.28 39.1691C195.28 41.3953 196.431 42.6396 198.361 42.6396C200.292 42.6396 200.995 41.298 200.995 40.1468V38.966H198.093V40.0791ZM193.686 35.7411H191.938L189.658 38.8263V35.7411H188.166V42.5972H189.658V39.4442L191.998 42.5972H193.767L191.094 39.1395L193.686 35.7411ZM185.374 39.9733L182.958 35.7411H181.466V42.5972H182.924V38.5132L185.332 42.6015H186.832V35.7411H185.361L185.374 39.9733ZM178.555 35.7834L181.074 42.593H179.544L178.955 40.9001H176.654L176.083 42.593H174.544L177.101 35.7368H178.559L178.555 35.7834ZM177.809 37.6117L177.059 39.7828H178.568L177.809 37.6117ZM173.184 38.9829C173.543 39.083 173.858 39.2996 174.078 39.598C174.298 39.8964 174.411 40.2595 174.399 40.6293C174.399 41.8693 173.512 42.5803 171.974 42.5803H169.063V35.7411H171.693C173.189 35.7411 173.947 36.3632 173.947 37.5863C173.947 38.5301 173.521 38.856 173.176 38.9829M171.539 38.5597C172.149 38.5597 172.434 38.3058 172.434 37.7556C172.434 37.2054 172.072 36.9684 171.352 36.9684H170.533V38.5597H171.539ZM170.533 41.4038H171.684C172.434 41.4038 172.784 41.1202 172.784 40.5192C172.784 39.7828 172.17 39.6305 171.654 39.6305H170.533V41.4038ZM163.006 35.7411C165.159 35.7411 166.437 37.0657 166.437 39.2834C166.437 41.3995 165.295 42.5972 163.296 42.5972H160.956V35.7411H163.006ZM162.426 41.3868H163.279C164.336 41.3868 164.984 40.5912 164.984 39.2707C164.984 37.7344 164.315 36.9557 162.993 36.9557H162.431L162.426 41.3868ZM157.286 35.7411H155.816V42.5972H160.274V41.3868H157.29L157.286 35.7411ZM153.834 40.5192C154.077 41.0102 154.286 41.4334 154.771 41.4334H155.121V42.5634H155.07C154.836 42.6147 154.597 42.6374 154.358 42.6311C153.194 42.6311 152.841 41.8397 152.525 41.1371C152.27 40.5658 152.044 40.0706 151.438 40.0706H150.791V42.5845H149.32V35.7411H151.767C153.552 35.7411 154.388 36.4351 154.388 37.9206C154.397 38.2863 154.295 38.6461 154.097 38.9544C153.899 39.2627 153.613 39.5054 153.275 39.6516C153.509 39.8999 153.698 40.1862 153.834 40.4981M150.791 38.9364H151.609C152.427 38.9364 152.934 38.5555 152.934 37.946C152.934 37.3366 152.508 36.9388 151.72 36.9388H150.791V38.9364ZM145.416 35.686C146.903 35.686 148.497 36.6002 148.497 39.1818C148.497 41.7635 146.903 42.6523 145.416 42.6523C143.928 42.6523 142.321 41.7423 142.321 39.1818C142.321 36.6214 143.92 35.686 145.416 35.686ZM145.416 41.3741C145.996 41.3741 146.98 41.0906 146.98 39.1818C146.98 37.2731 145.996 36.9811 145.416 36.9811C144.397 36.9811 143.839 37.7598 143.839 39.1818C143.839 40.6039 144.397 41.3741 145.416 41.3741ZM140.433 35.7411H142.096L140.114 42.5972H138.451L137.249 38.2973L136.039 42.5972H134.377L132.395 35.7411H134.1L135.259 40.7435L136.648 35.7411H137.884L139.231 40.7435L140.433 35.7411Z" fill="white"/>
</svg>
