<?xml version="1.0" encoding="UTF-8"?>
<svg version="1.1" xmlns="http://www.w3.org/2000/svg" width="532" height="106">
<path d="M0 0 C3.26481197 2.46622487 6.19061951 5.015349 8.171875 8.640625 C8.046875 11.578125 8.046875 11.578125 7.171875 13.640625 C1.97644171 12.71460969 -2.94407368 11.07824496 -7.96484375 9.48046875 C-10.65066462 8.54680583 -10.65066462 8.54680583 -12.828125 8.640625 C-11.8175 9.445 -10.806875 10.249375 -9.765625 11.078125 C-5.49051772 14.73377796 -1.92037662 18.94115446 1.171875 23.640625 C1.171875 24.300625 1.171875 24.960625 1.171875 25.640625 C1.831875 25.640625 2.491875 25.640625 3.171875 25.640625 C3.460625 24.7125 3.749375 23.784375 4.046875 22.828125 C5.171875 19.640625 5.171875 19.640625 7.171875 16.640625 C9.151875 17.135625 9.151875 17.135625 11.171875 17.640625 C10.66577744 25.10556402 10.66577744 25.10556402 7.921875 28.078125 C5.91107398 30.39234981 5.91107398 30.39234981 6.47265625 32.5234375 C7.00386835 34.04352136 7.5720942 35.55095563 8.16796875 37.046875 C10.96317446 44.26872944 12.43276948 51.95392757 13.171875 59.640625 C15.23263406 54.52961542 15.47580744 50.11884054 15.421875 44.703125 C15.42960937 43.93033203 15.43734375 43.15753906 15.4453125 42.36132812 C15.42868162 37.44274498 14.66157445 33.36778152 13.171875 28.640625 C13.046875 25.203125 13.046875 25.203125 13.171875 22.640625 C15.484375 22.640625 15.484375 22.640625 18.171875 23.640625 C23.78310475 33.36372757 23.68734995 47.73553198 21.046875 58.390625 C16.07304135 73.7496391 7.53370734 85.04561943 -6.828125 92.640625 C-19.48184266 98.54449327 -35.02749506 100.27490307 -48.515625 95.953125 C-50.30638446 95.22978878 -52.08013218 94.46193847 -53.828125 93.640625 C-54.61058594 93.29 -55.39304687 92.939375 -56.19921875 92.578125 C-69.52656038 85.92600301 -77.91925087 74.5088276 -83.1015625 60.83203125 C-87.07737532 48.84046679 -86.15993096 33.98825151 -80.828125 22.640625 C-80.4775 21.85816406 -80.126875 21.07570313 -79.765625 20.26953125 C-72.65434961 6.02228855 -60.48462329 -2.22141261 -45.828125 -7.359375 C-30.60381322 -11.50668752 -13.07164039 -8.45812025 0 0 Z M-23.828125 -2.359375 C-23.498125 -1.699375 -23.168125 -1.039375 -22.828125 -0.359375 C-21.838125 -0.689375 -20.848125 -1.019375 -19.828125 -1.359375 C-21.148125 -1.689375 -22.468125 -2.019375 -23.828125 -2.359375 Z M-13.828125 0.640625 C-13.498125 1.300625 -13.168125 1.960625 -12.828125 2.640625 C-11.508125 2.310625 -10.188125 1.980625 -8.828125 1.640625 C-10.478125 1.310625 -12.128125 0.980625 -13.828125 0.640625 Z M-54.078125 3.890625 C-55.63698766 6.34026633 -56.23804794 7.87906434 -56.828125 10.640625 C-55.0028125 10.021875 -55.0028125 10.021875 -53.140625 9.390625 C-47.07055351 7.36403564 -40.94970949 5.50453867 -34.828125 3.640625 C-40.45001447 -0.10730131 -48.57004291 0.0773374 -54.078125 3.890625 Z M-65.015625 10.640625 C-69.21578124 14.93874407 -73.69726025 19.59588365 -74.828125 25.640625 C-74.39242187 25.26550781 -73.95671875 24.89039062 -73.5078125 24.50390625 C-72.91226563 23.99214844 -72.31671875 23.48039062 -71.703125 22.953125 C-71.07019531 22.40269531 -70.43726562 21.85226563 -69.78515625 21.28515625 C-67.828125 19.640625 -67.828125 19.640625 -66.02734375 18.33984375 C-64.15138137 17.02413081 -64.15138137 17.02413081 -61.828125 14.640625 C-61.32546808 11.42901804 -61.32546808 11.42901804 -61.828125 8.640625 C-63.19911627 8.52816347 -63.19911627 8.52816347 -65.015625 10.640625 Z M-42.203125 10.953125 C-43.193125 11.27313477 -43.193125 11.27313477 -44.203125 11.59960938 C-48.06243593 12.88732766 -51.42983983 14.40352994 -54.828125 16.640625 C-51.85960375 21.86522241 -49.20107882 23.95414809 -43.828125 26.640625 C-43.29703125 25.84398438 -42.7659375 25.04734375 -42.21875 24.2265625 C-38.75520833 19.03125 -35.29166667 13.8359375 -31.828125 8.640625 C-35.57428062 8.640625 -38.69632379 9.77177981 -42.203125 10.953125 Z M-25.828125 10.640625 C-31.15729363 16.52108693 -35.6647161 22.35103058 -38.828125 29.640625 C-33.09501811 32.03810606 -28.02330973 33.22474454 -21.828125 33.640625 C-22.29381622 25.8219146 -23.05270962 18.27663485 -24.828125 10.640625 C-25.158125 10.640625 -25.488125 10.640625 -25.828125 10.640625 Z M-18.828125 11.640625 C-18.52206151 14.93292366 -18.20718297 18.22432014 -17.890625 21.515625 C-17.80361328 22.45277344 -17.71660156 23.38992187 -17.62695312 24.35546875 C-17.53994141 25.25136719 -17.45292969 26.14726563 -17.36328125 27.0703125 C-17.284729 27.89772949 -17.20617676 28.72514648 -17.12524414 29.57763672 C-16.93035137 31.6987916 -16.93035137 31.6987916 -15.828125 33.640625 C-14.41006669 33.35580132 -12.99372121 33.06244356 -11.578125 32.765625 C-10.39476563 32.52199219 -10.39476563 32.52199219 -9.1875 32.2734375 C-6.85981356 31.64912425 -4.93780548 30.79223958 -2.828125 29.640625 C-6.9823847 22.74944126 -11.81020152 16.99974423 -17.828125 11.640625 C-18.158125 11.640625 -18.488125 11.640625 -18.828125 11.640625 Z M-66.73046875 25.515625 C-70.05488378 28.88337505 -72.50193684 32.53600553 -74.828125 36.640625 C-75.23933594 37.31222656 -75.65054688 37.98382813 -76.07421875 38.67578125 C-77.15911848 40.79914531 -77.72278184 42.25437338 -77.828125 44.640625 C-75.25615037 51.23631104 -69.55983918 56.65382573 -63.828125 60.640625 C-62.18137576 61.35507524 -60.51774049 62.03447178 -58.828125 62.640625 C-58.6422583 62.09237061 -58.4563916 61.54411621 -58.26489258 60.97924805 C-51.41117967 40.84897447 -51.41117967 40.84897447 -46.828125 31.640625 C-47.35921875 31.26550781 -47.8903125 30.89039063 -48.4375 30.50390625 C-52.55302391 27.52240444 -55.72038132 24.70459751 -58.828125 20.640625 C-62.26880749 20.640625 -64.26625215 23.29738283 -66.73046875 25.515625 Z M-41.828125 34.640625 C-49.27889013 48.57327742 -49.27889013 48.57327742 -53.828125 63.640625 C-53.498125 64.630625 -53.168125 65.620625 -52.828125 66.640625 C-50.38988778 67.68991614 -48.10870904 68.51323435 -45.578125 69.265625 C-44.86462891 69.48436279 -44.15113281 69.70310059 -43.41601562 69.9284668 C-36.94086937 71.80841759 -30.56962342 72.51364472 -23.828125 72.640625 C-22.02748015 64.87534409 -21.63523996 57.39808021 -21.640625 49.453125 C-21.63998047 48.50800049 -21.63933594 47.56287598 -21.63867188 46.58911133 C-21.28045042 42.28358925 -21.28045042 42.28358925 -22.828125 38.640625 C-25.72695248 38.09652331 -28.63796282 37.67542261 -31.5546875 37.23828125 C-35.08346866 36.59400498 -38.39543135 35.67389173 -41.828125 34.640625 Z M-0.828125 34.640625 C-2.5915625 35.3521875 -2.5915625 35.3521875 -4.390625 36.078125 C-8.37220694 37.68472824 -11.28248079 37.99124726 -15.828125 38.640625 C-16.488125 49.860625 -17.148125 61.080625 -17.828125 72.640625 C-11.66340282 72.640625 -8.52096044 72.55502228 -3.015625 70.765625 C-1.91605469 70.41757813 -0.81648438 70.06953125 0.31640625 69.7109375 C3.31168496 68.71163408 3.31168496 68.71163408 6.171875 66.640625 C7.61009893 56.62488537 6.39627659 44.74029794 0.53515625 36.27734375 C0.08527344 35.73722656 -0.36460938 35.19710937 -0.828125 34.640625 Z M-77.828125 55.640625 C-76.74282342 64.42639969 -71.96543088 72.34595231 -65.828125 78.640625 C-64.17950348 79.67010295 -62.514995 80.67509542 -60.828125 81.640625 C-60.14858899 77.13784092 -59.89855119 73.11901375 -60.828125 68.640625 C-64.01093056 65.13009601 -67.75865542 63.00750443 -71.828125 60.640625 C-73.08285488 59.67289383 -74.31866142 58.67895485 -75.515625 57.640625 C-76.27875 56.980625 -77.041875 56.320625 -77.828125 55.640625 Z M-54.828125 71.640625 C-56.81869864 75.62177228 -56.19175519 80.35393354 -55.015625 84.515625 C-53.87255652 86.9401483 -53.87255652 86.9401483 -50.828125 88.640625 C-49.838125 88.640625 -48.848125 88.640625 -47.828125 88.640625 C-47.79074219 88.03734375 -47.75335938 87.4340625 -47.71484375 86.8125 C-47.64910156 86.01328125 -47.58335938 85.2140625 -47.515625 84.390625 C-47.45761719 83.60171875 -47.39960937 82.8128125 -47.33984375 82 C-46.7431397 79.24878438 -45.64148711 77.76026543 -43.828125 75.640625 C-45.47311542 74.97188116 -47.11914148 74.30568426 -48.765625 73.640625 C-49.68214844 73.269375 -50.59867188 72.898125 -51.54296875 72.515625 C-53.57594658 71.581027 -53.57594658 71.581027 -54.828125 71.640625 Z M-10.390625 76.640625 C-11.15826172 76.71667969 -11.92589844 76.79273437 -12.71679688 76.87109375 C-15.00951048 77.21090309 -16.76882435 77.56985672 -18.828125 78.640625 C-20.51255539 81.15982363 -21.19763781 83.69811704 -21.828125 86.640625 C-22.055 87.630625 -22.281875 88.620625 -22.515625 89.640625 C-22.61875 90.300625 -22.721875 90.960625 -22.828125 91.640625 C-14.26119692 89.4787513 -6.28671308 86.94200607 0.171875 80.640625 C1.45693472 78.03346416 1.45693472 78.03346416 2.171875 75.640625 C-2.11645584 75.640625 -6.15265798 76.04695198 -10.390625 76.640625 Z M-32.828125 77.640625 C-32.498125 78.300625 -32.168125 78.960625 -31.828125 79.640625 C-31.66015625 81.6640625 -31.66015625 81.6640625 -31.640625 84.015625 C-31.62644531 84.78648438 -31.61226562 85.55734375 -31.59765625 86.3515625 C-31.85010893 88.85897388 -32.57619033 90.47324402 -33.828125 92.640625 C-31.88359779 92.46972037 -31.88359779 92.46972037 -29.828125 91.640625 C-28.50865893 89.70721951 -28.50865893 89.70721951 -27.640625 87.328125 C-27.31707031 86.54824219 -26.99351563 85.76835938 -26.66015625 84.96484375 C-25.90970616 82.86851605 -25.31967973 80.81041708 -24.828125 78.640625 C-27.468125 78.310625 -30.108125 77.980625 -32.828125 77.640625 Z " fill="#FFFFFF" transform="translate(85.828125,8.359375)"/>
<path d="M0 0 C2.64 0 5.28 0 8 0 C10.49836687 6.7812815 12.1808572 13.75279368 12 21 C12.66 21 13.32 21 14 21 C14.12246094 19.99839844 14.24492187 18.99679688 14.37109375 17.96484375 C14.92969679 14.05462246 15.94359758 10.35233077 17.0625 6.5625 C17.42472656 5.32628906 17.78695312 4.09007812 18.16015625 2.81640625 C18.43730469 1.88699219 18.71445313 0.95757812 19 0 C21.97 0 24.94 0 28 0 C28.67218507 2.74875682 29.33792435 5.49880726 30 8.25 C30.19078125 9.02730469 30.3815625 9.80460937 30.578125 10.60546875 C30.84882813 11.73662109 30.84882813 11.73662109 31.125 12.890625 C31.29257813 13.58188477 31.46015625 14.27314453 31.6328125 14.98535156 C32 17 32 17 32 21 C32.66 21 33.32 21 34 21 C34.103125 19.7625 34.20625 18.525 34.3125 17.25 C34.95168106 11.35637468 36.46277997 5.71381786 38 0 C40.31 0 42.62 0 45 0 C44.32166946 6.99528367 42.73245571 13.63434256 41 20.4375 C40.72671875 21.53771484 40.4534375 22.63792969 40.171875 23.77148438 C38.13132225 31.86867775 38.13132225 31.86867775 37 33 C35.48071962 33.07179964 33.95832518 33.08392007 32.4375 33.0625 C31.61121094 33.05347656 30.78492188 33.04445312 29.93359375 33.03515625 C29.29550781 33.02355469 28.65742188 33.01195312 28 33 C27.32781493 30.25124318 26.66207565 27.50119274 26 24.75 C25.80921875 23.97269531 25.6184375 23.19539063 25.421875 22.39453125 C25.15117187 21.26337891 25.15117187 21.26337891 24.875 20.109375 C24.70742187 19.41811523 24.53984375 18.72685547 24.3671875 18.01464844 C24 16 24 16 24 12 C23.34 12 22.68 12 22 12 C21.9175 13.051875 21.835 14.10375 21.75 15.1875 C21.00810063 21.33308436 18.92058197 27.13999174 17 33 C14.03 33 11.06 33 8 33 C6.85759207 28.62254197 5.71834123 24.24427929 4.58203125 19.86523438 C4.19488183 18.37509885 3.80686479 16.88518846 3.41796875 15.39550781 C2.85970426 13.25644335 2.30454674 11.11659336 1.75 8.9765625 C1.57500977 8.30879791 1.40001953 7.64103333 1.21972656 6.95303345 C0 2.22774341 0 2.22774341 0 0 Z " fill="#FFFFFF" transform="translate(221,34)"/>
<path d="M0 0 C16 0 16 0 23 3 C28.09903386 8.36740406 28.29695466 12.91995883 28.2109375 20.05078125 C27.94554338 23.7613842 27.23897263 26.01470315 25 29 C19.77710869 33.47210068 15.6518306 33.50357808 9.125 33.25 C6.11375 33.1675 3.1025 33.085 0 33 C0 22.11 0 11.22 0 0 Z M8 6 C8 12.93 8 19.86 8 27 C14.43114099 27.56430046 14.43114099 27.56430046 17.375 25.6875 C20.35823088 22.58952947 20.28343001 19.14565842 20.21484375 15 C19.89310914 12.00494328 18.9426827 10.27762799 17 8 C13.65167209 6.1970542 11.88518739 6 8 6 Z " fill="#FFFFFF" transform="translate(360,34)"/>
<path d="M0 0 C2.84625 -0.061875 5.6925 -0.12375 8.625 -0.1875 C9.51010254 -0.21481201 10.39520508 -0.24212402 11.30712891 -0.27026367 C16.28219813 -0.32233226 19.7215708 0.17623673 24 3 C26.46324069 6.69486103 26.38991688 8.63293092 26 13 C24.5 14.9375 24.5 14.9375 23 16 C23.30679687 16.52078125 23.61359375 17.0415625 23.9296875 17.578125 C25.27248151 20.61656401 25.6649441 23.46388645 26.125 26.75 C26.29257812 27.92046875 26.46015625 29.0909375 26.6328125 30.296875 C26.75398438 31.18890625 26.87515625 32.0809375 27 33 C20.84765625 33.09765625 20.84765625 33.09765625 19 33 C17.26043342 31.26043342 17.62809614 28.8063378 17.4375 26.4375 C17.31181641 24.91962891 17.31181641 24.91962891 17.18359375 23.37109375 C17.12300781 22.58863281 17.06242187 21.80617188 17 21 C14.03 20.67 11.06 20.34 8 20 C8 24.29 8 28.58 8 33 C5.36 33 2.72 33 0 33 C0 22.11 0 11.22 0 0 Z M8 6 C8 8.64 8 11.28 8 14 C12.0100934 14.17864631 12.0100934 14.17864631 16 14 C16.66 13.34 17.32 12.68 18 12 C17.67958603 9.39719432 17.67958603 9.39719432 17 7 C14.03 6.67 11.06 6.34 8 6 Z " fill="#FFFFFF" transform="translate(304,34)"/>
<path d="M0 0 C1.03769531 -0.02578125 2.07539063 -0.0515625 3.14453125 -0.078125 C7.82212508 0.42626252 10.33862581 2.30680646 13.4375 5.75 C17.16992107 11.08203009 16.64446961 16.9770536 16.1875 23.25 C14.56587809 28.02951721 12.35144853 30.43933474 8.1875 33.25 C2.7590082 35.05949727 -2.7756261 34.92895797 -8.1875 33.125 C-12.20780086 30.25335653 -14.26342353 26.89722941 -15.8125 22.25 C-16.39293451 15.86522044 -16.05008956 10.83205096 -12.8125 5.25 C-8.46739142 1.2228262 -5.85605695 0.08664942 0 0 Z M-3.5625 6.25 C-6.50735985 8.8676532 -7.10513508 10.35949295 -7.8125 14.25 C-7.87180369 18.94240469 -7.69748969 22.87334938 -5.125 26.875 C-2.05908776 28.69797485 -0.32336845 28.83514474 3.1875 28.25 C6.03530619 26.01793569 7.03747666 24.70007001 8.1875 21.25 C8.60130115 17.00058048 8.59858576 13.3233906 7.0625 9.3125 C3.88586049 5.81819654 0.95155358 4.60852597 -3.5625 6.25 Z " fill="#FFFFFF" transform="translate(283.8125,33.75)"/>
<path d="M0 0 C2.64 0 5.28 0 8 0 C8 4.29 8 8.58 8 13 C11.63 13 15.26 13 19 13 C19 8.71 19 4.42 19 0 C21.64 0 24.28 0 27 0 C27 10.89 27 21.78 27 33 C24.36 33 21.72 33 19 33 C19 28.38 19 23.76 19 19 C15.37 19 11.74 19 8 19 C8 23.62 8 28.24 8 33 C5.36 33 2.72 33 0 33 C0 22.11 0 11.22 0 0 Z " fill="#FFFFFF" transform="translate(151,34)"/>
<path d="M0 0 C7.59 0 15.18 0 23 0 C23 1.98 23 3.96 23 6 C18.05 6 13.1 6 8 6 C8 8.31 8 10.62 8 13 C12.62 13 17.24 13 22 13 C22 14.98 22 16.96 22 19 C17.38 19 12.76 19 8 19 C8 21.64 8 24.28 8 27 C12.95 27 17.9 27 23 27 C23 28.98 23 30.96 23 33 C15.41 33 7.82 33 0 33 C0 22.11 0 11.22 0 0 Z " fill="#FFFFFF" transform="translate(183,34)"/>
<path d="M0 0 C8.91 0 17.82 0 27 0 C27 1.98 27 3.96 27 6 C23.7 6 20.4 6 17 6 C17 14.91 17 23.82 17 33 C14.36 33 11.72 33 9 33 C9 24.09 9 15.18 9 6 C6.03 6 3.06 6 0 6 C0 4.02 0 2.04 0 0 Z " fill="#FFFFFF" transform="translate(121,34)"/>
<path d="M0 0 C2.64 0 5.28 0 8 0 C8 8.91 8 17.82 8 27 C12.62 27 17.24 27 22 27 C22 28.98 22 30.96 22 33 C14.74 33 7.48 33 0 33 C0 22.11 0 11.22 0 0 Z " fill="#FFFFFF" transform="translate(335,34)"/>
<path d="M0 0 C2.5625 1.4375 2.5625 1.4375 4 4 C4.74831272 8.29295189 4.7145847 11.72617511 2.5625 15.5625 C-1.27382489 17.7145847 -4.70704811 17.74831272 -9 17 C-11.5625 15.5625 -11.5625 15.5625 -13 13 C-13.74831272 8.70704811 -13.7145847 5.27382489 -11.5625 1.4375 C-7.72617511 -0.7145847 -4.29295189 -0.74831272 0 0 Z " fill="#FFFFFF" transform="translate(85,54)"/>
<path d="M0 0 C2.5625 1.4375 2.5625 1.4375 4 4 C4.74831272 8.29295189 4.7145847 11.72617511 2.5625 15.5625 C-1.27382489 17.7145847 -4.70704811 17.74831272 -9 17 C-11.5625 15.5625 -11.5625 15.5625 -13 13 C-13.74831272 8.70704811 -13.7145847 5.27382489 -11.5625 1.4375 C-7.72617511 -0.7145847 -4.29295189 -0.74831272 0 0 Z " fill="#FFFFFF" transform="translate(54,54)"/>
<path d="M0 0 C2.5625 1.4375 2.5625 1.4375 4 4 C4.74831272 8.29295189 4.7145847 11.72617511 2.5625 15.5625 C-1.27382489 17.7145847 -4.70704811 17.74831272 -9 17 C-11.5625 15.5625 -11.5625 15.5625 -13 13 C-13.74831272 8.70704811 -13.7145847 5.27382489 -11.5625 1.4375 C-7.72617511 -0.7145847 -4.29295189 -0.74831272 0 0 Z " fill="#FFFFFF" transform="translate(26,42)"/>
</svg>
