<svg width="337" height="200" viewBox="0 0 337 200" fill="none" xmlns="http://www.w3.org/2000/svg">
<rect width="337" height="200" fill="#F2F2F2"/>
<path d="M30.6589 111.301C32.1789 111.301 33.4613 110.267 33.7463 108.81H38.9238C39.1138 109.656 39.6363 110.361 40.3012 110.831L39.1138 115.484H39.0663C35.2663 115.484 34.6963 120.889 38.4013 121.641C42.1062 122.44 43.8162 117.27 40.3487 115.719L41.4887 111.254C44.2437 111.677 46.1912 108.669 44.5762 106.413C43.0087 104.157 39.4463 104.862 38.8763 107.541H33.7463C33.2239 104.956 29.8989 104.157 28.1889 106.178C26.5264 108.246 27.9989 111.301 30.6589 111.301Z" fill="#00845F"/>
<path d="M50.9413 123.145C51.6538 121.829 51.3688 120.231 50.2288 119.244L52.7463 114.779C53.5537 115.061 54.4562 114.92 55.2162 114.544L58.7312 117.834C56.8312 121.077 61.3436 124.273 63.8611 121.453C66.3786 118.633 62.6261 114.638 59.5862 116.894L56.2137 113.745C57.9237 111.583 56.1662 108.434 53.4112 108.716C50.6563 108.998 49.5638 112.429 51.7013 114.215L49.1838 118.68C46.6663 117.881 44.3389 120.372 45.2889 122.816C46.2388 125.26 49.6588 125.448 50.9413 123.145Z" fill="#662841"/>
<path d="M72.0307 111.677C71.2233 110.455 69.6083 109.938 68.2308 110.455L65.4283 106.178C66.0458 105.567 66.3783 104.768 66.3783 103.922L70.9858 102.371V102.418C73.0757 105.567 77.9207 103.076 76.5907 99.5981C75.2132 96.1202 69.9408 97.5302 70.5108 101.196L66.0933 102.653C64.9533 100.162 61.3434 100.162 60.2984 102.747C59.2534 105.285 61.7709 107.87 64.3834 106.836L67.1858 111.113C65.2858 112.946 66.4258 116.142 69.0383 116.424C71.6982 116.8 73.5032 113.886 72.0307 111.677Z" fill="#FF595D"/>
<path d="M30.944 88.1304C31.7514 89.3994 33.3189 89.9164 34.7439 89.3994L37.4989 93.7233C36.8814 94.2873 36.5489 95.1333 36.5014 95.9793L31.8939 97.4362C29.9465 94.1933 24.959 96.5433 26.194 100.115C27.4765 103.64 32.8439 102.371 32.2739 98.6112L36.7389 97.2012C37.8314 99.7392 41.4413 99.7392 42.5338 97.2482C43.6263 94.7103 41.1563 92.1253 38.5438 93.0653L35.7889 88.7414C37.7364 86.9084 36.6439 83.7125 34.0314 83.3835C31.3714 83.0545 29.519 85.8745 30.944 88.1304Z" fill="#018EE7"/>
<path d="M51.8912 76.8036C51.1312 78.0726 51.3687 79.7176 52.5086 80.7046L49.8962 85.1225C49.0887 84.8405 48.1862 84.9345 47.4262 85.3105L43.9588 81.9265C45.9062 78.7306 41.5363 75.4407 38.9238 78.2136C36.3589 80.9866 40.0163 85.0755 43.1038 82.8665L46.4287 86.1095C44.6713 88.2244 46.3337 91.4204 49.0887 91.2324C51.8437 91.0444 53.0311 87.6134 50.9412 85.7805L53.5536 81.3626C56.0711 82.2085 58.4461 79.7646 57.5436 77.3206C56.6411 74.7827 53.2686 74.5007 51.8912 76.8036Z" fill="#004586"/>
<path d="M71.9833 88.4593C70.4634 88.4593 69.1809 89.5403 68.8959 90.9973H63.7659C63.576 90.1513 63.0535 89.4463 62.341 89.0233L63.481 84.3704H63.5285C67.3284 84.3234 67.8509 78.9185 64.0984 78.2135C60.3935 77.4615 58.731 82.6314 62.1985 84.1354L61.106 88.6003C58.351 88.1773 56.4511 91.2323 58.066 93.4882C59.681 95.7442 63.196 94.9922 63.7185 92.2662L68.8959 92.2192C69.4659 94.8042 72.7908 95.5562 74.4533 93.5352C76.1633 91.4673 74.6433 88.4123 71.9833 88.4593Z" fill="#FFBE00"/>
<path d="M111.883 107.776C115.113 107.776 117.108 106.131 118.343 104.204L115.92 102.982C115.065 104.392 113.545 105.285 111.883 105.285C108.7 105.285 106.373 102.888 106.373 99.5512C106.373 96.2143 108.748 93.8174 111.883 93.8174C113.593 93.8174 115.16 94.8043 115.92 96.1203L118.343 94.8983C117.155 92.9714 115.16 91.3264 111.883 91.3264C107.133 91.3264 103.476 94.6633 103.476 99.5042C103.476 104.439 107.18 107.776 111.883 107.776ZM123.045 107.494V91.6084H120.528V107.494H123.045ZM127.558 94.6163C128.413 94.6163 129.125 93.9114 129.125 93.0654C129.125 92.2194 128.413 91.5144 127.558 91.5144C126.703 91.5144 125.99 92.2194 125.99 93.0654C125.99 93.9114 126.75 94.6163 127.558 94.6163ZM128.84 107.494V96.0263H126.323V107.494H128.84ZM148.885 107.494V99.1752C148.885 96.8253 147.697 95.6973 145.56 95.6973C143.85 95.6973 142.282 96.7783 141.617 97.8123C141.237 96.5433 140.193 95.6973 138.435 95.6973C136.678 95.6973 135.158 96.8253 134.683 97.5773V96.0263H132.165V107.494H134.683V99.4572C135.205 98.7053 136.25 97.9063 137.343 97.9063C138.72 97.9063 139.243 98.7523 139.243 99.9742V107.447H141.76V99.4572C142.282 98.7053 143.327 97.9533 144.467 97.9533C145.797 97.9533 146.367 98.7993 146.367 100.021V107.494H148.885ZM161.757 107.494V99.8802C161.757 96.7783 159.477 95.6973 156.912 95.6973C155.06 95.6973 153.397 96.3083 152.02 97.5773L153.065 99.3162C154.062 98.3293 155.202 97.8593 156.485 97.8593C158.1 97.8593 159.192 98.6583 159.192 99.9742V101.666C158.337 100.679 157.007 100.209 155.44 100.209C153.54 100.209 151.402 101.29 151.402 103.922C151.402 106.46 153.54 107.729 155.44 107.729C156.96 107.729 158.337 107.165 159.192 106.225V107.447H161.757V107.494ZM156.485 106.084C155.06 106.084 154.015 105.285 154.015 104.063C154.015 102.794 155.06 101.995 156.485 101.995C157.577 101.995 158.67 102.418 159.24 103.17V104.909C158.67 105.661 157.577 106.084 156.485 106.084ZM168.55 107.776C169.737 107.776 170.497 107.447 170.925 107.024L170.307 105.144C170.117 105.379 169.642 105.567 169.167 105.567C168.455 105.567 168.075 105.003 168.075 104.204V98.1883H170.45V96.0263H168.075V92.8774H165.557V96.0263H163.61V98.1883H165.557V104.815C165.557 106.742 166.602 107.776 168.55 107.776ZM178.097 107.776C179.949 107.776 181.659 107.212 182.799 106.131L181.659 104.486C180.852 105.285 179.474 105.755 178.382 105.755C176.197 105.755 174.867 104.345 174.677 102.606H183.654V101.995C183.654 98.3763 181.422 95.7443 177.954 95.7443C174.535 95.7443 172.065 98.4233 172.065 101.76C172.017 105.379 174.582 107.776 178.097 107.776ZM181.137 100.82H174.582C174.725 99.4102 175.674 97.7653 177.859 97.7653C180.187 97.7653 181.089 99.4572 181.137 100.82ZM207.642 107.494L212.201 91.6084H209.019L205.932 103.828L202.607 91.6084H200.374L197.049 103.828L193.914 91.6084H190.779L195.387 107.494H198.379L201.467 95.7913L204.602 107.494H207.642ZM222.651 107.494V99.8802C222.651 96.7783 220.371 95.6973 217.806 95.6973C215.954 95.6973 214.291 96.3083 212.914 97.5773L213.959 99.3162C214.956 98.3293 216.096 97.8593 217.379 97.8593C218.994 97.8593 220.086 98.6583 220.086 99.9742V101.666C219.231 100.679 217.901 100.209 216.334 100.209C214.434 100.209 212.296 101.29 212.296 103.922C212.296 106.46 214.434 107.729 216.334 107.729C217.854 107.729 219.231 107.165 220.086 106.225V107.447H222.651V107.494ZM217.379 106.084C215.954 106.084 214.909 105.285 214.909 104.063C214.909 102.794 215.954 101.995 217.379 101.995C218.471 101.995 219.564 102.418 220.134 103.17V104.909C219.564 105.661 218.471 106.084 217.379 106.084ZM228.446 107.494V99.6922C228.969 98.8933 230.394 98.1883 231.439 98.1883C231.771 98.1883 232.009 98.2353 232.246 98.2823V95.7913C230.726 95.7913 229.349 96.6373 228.494 97.7183V96.0263H225.976V107.494H228.446ZM239.609 107.776C241.461 107.776 243.171 107.212 244.311 106.131L243.171 104.486C242.364 105.285 241.034 105.755 239.894 105.755C237.709 105.755 236.379 104.345 236.189 102.606H245.166V101.995C245.166 98.3763 242.934 95.7443 239.466 95.7443C236.046 95.7443 233.576 98.4233 233.576 101.76C233.529 105.379 236.141 107.776 239.609 107.776ZM242.696 100.82H236.141C236.284 99.4102 237.234 97.7653 239.419 97.7653C241.699 97.7653 242.649 99.4572 242.696 100.82ZM258.038 107.494V99.3632C258.038 97.0133 256.803 95.7443 254.286 95.7443C252.433 95.7443 250.961 96.6843 250.153 97.6243V91.6554H247.636V107.541H250.153V99.4572C250.771 98.6583 251.863 97.9063 253.146 97.9063C254.571 97.9063 255.521 98.4703 255.521 100.256V107.494H258.038ZM266.541 107.776C270.246 107.776 272.526 105.05 272.526 101.713C272.526 98.4233 270.246 95.6973 266.541 95.6973C262.883 95.6973 260.556 98.4233 260.556 101.713C260.603 105.05 262.883 107.776 266.541 107.776ZM266.541 105.567C264.403 105.567 263.216 103.781 263.216 101.713C263.216 99.6922 264.403 97.9063 266.541 97.9063C268.678 97.9063 269.913 99.6922 269.913 101.713C269.913 103.781 268.726 105.567 266.541 105.567ZM285.445 107.494V96.0263H282.928V104.11C282.31 104.909 281.218 105.614 279.935 105.614C278.51 105.614 277.608 105.05 277.608 103.264V96.0263H275.091V104.157C275.091 106.507 276.326 107.776 278.796 107.776C280.363 107.776 281.835 107.118 282.928 105.99V107.494H285.445ZM292.713 107.776C295.848 107.776 297.558 106.225 297.558 104.204C297.558 99.6452 290.528 101.149 290.528 99.1282C290.528 98.3293 291.383 97.7183 292.665 97.7183C294.09 97.7183 295.42 98.3293 296.085 99.0812L297.13 97.3423C296.085 96.4023 294.565 95.7443 292.618 95.7443C289.673 95.7443 288.058 97.3423 288.058 99.2222C288.058 103.64 295.088 101.995 295.088 104.251C295.088 105.144 294.328 105.802 292.808 105.802C291.288 105.802 289.673 105.003 288.865 104.204L287.725 106.037C288.913 107.165 290.718 107.776 292.713 107.776ZM305.443 107.776C307.295 107.776 309.005 107.212 310.145 106.131L309.005 104.486C308.198 105.285 306.868 105.755 305.728 105.755C303.543 105.755 302.213 104.345 302.023 102.606H311V101.995C311 98.3763 308.768 95.7443 305.3 95.7443C301.88 95.7443 299.41 98.4233 299.41 101.76C299.363 105.379 301.975 107.776 305.443 107.776ZM308.53 100.82H301.975C302.118 99.4102 303.068 97.7653 305.253 97.7653C307.533 97.7653 308.483 99.4572 308.53 100.82Z" fill="black"/>
</svg>
